<svg width="533" height="311" viewBox="0 0 533 311" fill="none" xmlns="http://www.w3.org/2000/svg">
<path d="M105.574 93.375C105.402 93.2891 105.227 93.332 105.098 93.418L91.0469 105.125C90.9609 105.211 90.875 105.34 90.875 105.473C90.875 105.602 90.9179 105.73 91.0469 105.816L105.098 117.523C105.184 117.609 105.273 117.609 105.402 117.609C105.488 117.609 105.531 117.609 105.574 117.566C105.746 117.48 105.832 117.352 105.832 117.133L105.832 93.7227C105.875 93.5938 105.746 93.418 105.574 93.375ZM104.926 116.227L92.0429 105.473L104.926 94.7149L104.926 116.227ZM540.027 314.848C539.855 314.762 539.684 314.805 539.555 314.891L503.844 344.609L468.562 315.238L504.144 285.606C504.23 285.516 504.316 285.387 504.316 285.258C504.316 285.129 504.273 285 504.144 284.914L468.176 254.934L432.594 225.301L468.176 195.668C468.262 195.582 468.348 195.449 468.348 195.32C468.348 195.191 468.305 195.063 468.176 194.977L432.203 164.996C432.074 164.867 431.859 164.867 431.73 164.953C431.555 165.039 431.469 165.168 431.469 165.387L431.469 224.352L396.234 195.02C396.234 195.02 396.191 195.02 396.191 194.977L396.148 194.934C396.105 194.934 396.105 194.934 396.062 194.934C396.019 194.934 395.973 194.934 395.93 194.934C395.887 194.934 395.844 194.934 395.801 194.934C395.758 194.934 395.758 194.934 395.715 194.934L395.672 194.977C395.672 194.977 395.629 194.977 395.629 195.02L359.918 224.738L324.379 195.148L324.379 135.449C324.379 135.363 324.336 135.277 324.336 135.234L324.293 135.191C324.293 135.148 324.25 135.148 324.25 135.106L288.281 105.125C288.281 105.125 288.238 105.125 288.238 105.082L288.191 105.039C288.148 105.039 288.148 105.039 288.105 105.039C288.062 105.039 288.02 105.039 287.977 105.039C287.934 105.039 287.891 105.039 287.848 105.039C287.805 105.039 287.805 105.039 287.762 105.039L287.719 105.082C287.719 105.082 287.676 105.082 287.676 105.125L251.965 134.844L216.254 105.125C216.121 104.996 215.906 104.996 215.777 105.082C215.605 105.168 215.516 105.297 215.516 105.516L215.516 164.434L180.453 135.234L180.453 75.5352C180.453 75.4492 180.41 75.3633 180.41 75.3203L180.367 75.2774C180.367 75.2344 180.324 75.2344 180.324 75.1914L144.227 45.211C144.227 45.211 144.184 45.211 144.184 45.168L144.137 45.125C144.137 45.125 144.094 45.125 144.051 45.125C144.008 45.125 143.965 45.125 143.922 45.125C143.879 45.125 143.836 45.125 143.793 45.125C143.75 45.125 143.75 45.125 143.707 45.125L143.664 45.168C143.664 45.168 143.621 45.168 143.621 45.211L108.383 74.543L108.383 15.5781C108.383 15.4063 108.297 15.2305 108.125 15.1445C107.953 15.0586 107.777 15.1016 107.648 15.1875L71.9375 44.9531L36.2266 15.2305L0.257812 -14.7461C0.128906 -14.875 -0.0898437 -14.875 -0.21875 -14.7891C-0.390625 -14.7031 -0.476563 -14.5742 -0.476563 -14.3594L-0.476573 44.6055L-35.7148 15.2305L-71.7266 -14.7461C-71.8555 -14.832 -72.0312 -14.875 -72.2031 -14.7891C-72.375 -14.7031 -72.4609 -14.5742 -72.4609 -14.3594L-72.461 405.172C-72.461 405.262 -72.418 405.348 -72.418 405.391L-72.3751 405.434C-72.3751 405.477 -72.3321 405.477 -72.3321 405.52L-36.3634 435.496L-36.3204 435.496L-36.2735 435.543C-36.2305 435.586 -36.1446 435.586 -36.1016 435.586C-36.0587 435.586 -35.9727 435.586 -35.9298 435.543C-35.8868 435.543 -35.8868 435.496 -35.8868 435.496L-35.8438 435.496L-0.132886 405.777L35.578 435.496L35.621 435.496L35.664 435.543C35.707 435.586 35.7968 435.586 35.8398 435.586C35.9257 435.586 35.9687 435.586 36.0116 435.543L36.0546 435.496L36.0976 435.496L72.0663 405.52L107.305 376.188L107.305 435.152C107.305 435.324 107.391 435.496 107.562 435.586C107.605 435.629 107.691 435.629 107.734 435.629C107.824 435.629 107.953 435.586 108.039 435.543L143.75 405.82L179.461 435.543C179.547 435.629 179.633 435.629 179.762 435.629C179.848 435.629 179.894 435.629 179.937 435.586C180.109 435.496 180.195 435.367 180.195 435.152L180.195 376.188L215.43 405.52L251.402 435.496L251.445 435.496L251.488 435.543C251.531 435.586 251.617 435.586 251.66 435.586C251.746 435.586 251.789 435.586 251.832 435.543C251.875 435.543 251.875 435.496 251.875 435.496L251.922 435.496L287.633 405.777L323.344 435.496C323.43 435.586 323.516 435.586 323.644 435.586C323.73 435.586 323.773 435.586 323.816 435.543C323.992 435.453 324.078 435.324 324.078 435.109L324.078 376.188L359.312 405.52L395.281 435.496L395.324 435.496L395.367 435.543C395.414 435.586 395.5 435.586 395.543 435.586C395.586 435.586 395.672 435.586 395.715 435.543L395.758 435.496L395.801 435.496L431.512 405.777L467.223 435.496L467.266 435.496L467.309 435.543C467.351 435.586 467.437 435.586 467.484 435.586C467.527 435.586 467.613 435.586 467.656 435.543L467.699 435.496L467.742 435.496L503.711 405.52C503.801 405.434 503.887 405.305 503.887 405.172C503.887 405.043 503.844 404.914 503.711 404.828L468.133 375.195L503.41 345.82L539.121 375.539C539.207 375.625 539.293 375.625 539.422 375.625C539.508 375.625 539.555 375.625 539.598 375.582C539.769 375.496 539.855 375.367 539.855 375.152L539.855 315.281C540.289 315.063 540.203 314.934 540.027 314.848ZM-71.5547 -13.4063L-36.75 15.5781L-71.207 44.3047L-71.5547 44.6055L-71.5547 -13.4063ZM-71.5547 46.5508L-71.207 46.8516L-36.75 75.5351L-71.2071 104.219L-71.5547 104.52L-71.5547 46.5508ZM-71.5547 106.465L-71.2071 106.766L-36.75 135.449L-69.2617 162.535L-71.5547 164.434L-71.5547 106.465ZM-71.5547 166.422L-71.2071 166.727L-36.75 195.406L-71.2071 224.09L-71.5547 224.395L-71.5547 166.422ZM-71.5547 226.336L-71.2071 226.641L-36.75 255.324L-71.2071 284.004L-71.5547 284.309L-71.5547 226.336ZM-71.5547 286.25L-71.2071 286.555L-36.7501 315.238L-71.2071 343.965L-71.5548 344.266L-71.5547 286.25ZM-71.5548 346.211L-71.2071 346.512L-36.7501 375.195L-71.2071 403.879L-71.5548 404.18L-71.5548 346.211ZM-36.4923 434.16L-71.293 405.172L-36.836 376.492L-36.4923 376.188L-36.4923 434.16ZM-36.4923 374.199L-36.836 373.898L-71.293 345.215L-36.836 316.531L-36.4922 316.23L-36.4923 374.199ZM-36.4922 314.285L-36.836 313.984L-71.293 285.301L-36.836 256.617L-36.4922 256.316L-36.4922 314.285ZM-36.4922 254.371L-36.836 254.07L-71.293 225.344L-36.836 196.66L-36.4922 196.359L-36.4922 254.371ZM-36.4922 194.414L-36.836 194.113L-71.293 165.43L-38.7383 138.344L-36.4492 136.445L-36.4493 194.414L-36.4922 194.414ZM-36.4922 134.5L-36.836 134.199L-71.293 105.516L-36.836 76.832L-36.4922 76.5273L-36.4922 134.5ZM-36.4922 74.543L-36.836 74.2383L-71.293 45.5586L-36.8359 16.875L-36.4922 16.5703L-36.4922 74.543ZM-35.5391 16.5703L-0.738292 45.5586L-35.1953 74.2383L-35.5391 74.543L-35.5391 16.5703ZM-35.5391 76.4844L-35.1953 76.7891L-0.738302 105.473L-35.1953 134.199L-35.5391 134.5L-35.5391 76.4844ZM-35.5391 136.445L-33.25 138.344L-0.695344 165.43L-35.1524 194.113L-35.4961 194.414L-35.4961 136.445L-35.5391 136.445ZM-35.5391 196.359L-35.1953 196.66L-0.738323 225.344L-35.1954 254.027L-35.5391 254.328L-35.5391 196.359ZM-35.5391 256.316L-35.1954 256.617L-0.738334 285.301L-35.1954 313.984L-35.5391 314.285L-35.5391 256.316ZM-35.5391 316.23L-35.1954 316.531L-0.738344 345.215L-35.1954 373.941L-35.5391 374.246L-35.5391 316.23ZM-35.5391 434.16L-35.5391 376.188L-35.1954 376.492L-0.738355 405.172L-35.5391 434.16ZM-0.476636 404.18L-0.824292 403.879L-35.2813 375.195L-0.824282 346.512L-0.476626 346.211L-0.476636 404.18ZM-0.476625 344.266L-0.824281 343.965L-35.2813 315.281L-0.824271 286.598L-0.476615 286.293L-0.476625 344.266ZM-0.476615 284.309L-0.824271 284.004L-35.2813 255.324L-0.824261 226.641L-0.476605 226.336L-0.476615 284.309ZM-0.476604 224.395L-0.824261 224.09L-35.2813 195.406L-0.82425 166.727L-0.476594 166.422L-0.476604 224.395ZM-0.476594 164.434L-2.76956 162.535L-35.2813 135.449L-0.82424 106.766L-0.476584 106.465L-0.476594 164.434ZM-0.476583 104.52L-0.82424 104.219L-35.2813 75.5351L-0.82423 46.8516L-0.476573 46.5508L-0.476583 104.52ZM0.429687 -13.4063L35.2344 15.5781L0.429677 44.5625L0.429687 -13.4063ZM0.429677 46.5508L35.2344 75.5352L0.429667 104.52L0.429677 46.5508ZM0.429666 106.465L35.2343 135.449L1.94138 163.184L0.429656 164.434L0.429666 106.465ZM0.429656 166.422L35.2343 195.406L0.429646 224.395L0.429656 166.422ZM0.429645 226.336L35.2343 255.324L0.429635 284.309L0.429645 226.336ZM0.429635 286.25L35.2343 315.238L0.429625 344.223L0.429635 286.25ZM0.429624 346.211L35.2343 375.195L0.429614 404.18L0.429624 346.211ZM35.4921 434.16L0.687427 405.172L35.4921 376.188L35.4921 434.16ZM35.4921 374.199L0.687437 345.215L35.4921 316.23L35.4921 374.199ZM35.4921 314.285L0.687448 285.301L35.4921 256.316L35.4921 314.285ZM35.4921 254.371L0.687458 225.344L35.4922 196.359L35.4921 254.371ZM35.4922 194.414L0.687468 165.43L33.9804 137.695L35.4922 136.445L35.4922 194.414ZM35.4922 134.5L0.687479 105.516L35.4922 76.5273L35.4922 134.5ZM35.4922 74.543L0.687489 45.5586L35.4922 16.5703L35.4922 74.543ZM36.4453 16.5703L71.2461 45.5586L36.789 74.2383L36.4453 74.543L36.4453 16.5703ZM36.4453 76.4844L36.789 76.7891L71.2461 105.473L36.789 134.199L36.4453 134.5L36.4453 76.4844ZM36.4453 136.445L38.7343 138.344L71.289 165.43L36.832 194.113L36.4882 194.414L36.4883 136.445L36.4453 136.445ZM36.4453 196.359L36.789 196.66L71.2461 225.344L36.789 254.027L36.4453 254.328L36.4453 196.359ZM36.4453 256.316L36.789 256.617L71.246 285.301L36.789 313.984L36.4453 314.285L36.4453 256.316ZM36.4453 316.23L36.789 316.531L71.246 345.215L36.789 373.941L36.4452 374.246L36.4453 316.23ZM36.4452 434.16L36.4452 376.188L36.789 376.492L71.246 405.172L36.4452 434.16ZM71.5077 404.18L71.1601 403.879L36.7031 375.195L71.1601 346.512L71.5077 346.211L71.5077 404.18ZM71.5077 344.266L71.1601 343.965L36.7031 315.281L71.1601 286.598L71.5078 286.293L71.5077 344.266ZM71.5078 284.309L71.1601 284.004L36.7031 255.324L71.1601 226.641L71.5078 226.336L71.5078 284.309ZM71.5078 224.395L71.1601 224.09L36.7031 195.406L71.1601 166.727L71.5078 166.422L71.5078 224.395ZM71.5078 164.434L69.2148 162.535L36.6601 135.449L71.1172 106.766L71.4609 106.465L71.4609 164.434L71.5078 164.434ZM71.5078 104.52L71.1601 104.219L36.7031 75.5352L71.1601 46.8516L71.5078 46.5508L71.5078 104.52ZM107.477 16.5703L107.477 74.543L72.6719 45.5586L107.477 16.5703ZM72.4141 46.5508L107.219 75.5352L72.414 104.52L72.4141 46.5508ZM72.414 106.465L107.219 135.449L73.9258 163.184L72.414 164.434L72.414 106.465ZM72.414 166.422L107.219 195.406L72.414 224.395L72.414 166.422ZM72.414 226.336L107.219 255.324L72.414 284.309L72.414 226.336ZM72.414 286.25L107.219 315.238L72.414 344.223L72.414 286.25ZM72.414 404.18L72.414 346.211L107.219 375.195L72.414 404.18ZM107.476 374.199L72.6718 345.215L107.477 316.231L107.476 374.199ZM107.477 314.285L72.6718 285.301L107.477 256.316L107.477 314.285ZM107.477 254.371L72.6718 225.344L107.477 196.359L107.477 254.371ZM107.477 194.414L72.6718 165.43L105.965 137.695L107.477 136.445L107.477 194.414ZM107.953 134.844L72.6719 105.473L107.953 76.0977L143.23 105.473L107.953 134.844ZM108.426 136.445L110.719 138.344L143.273 165.43L108.816 194.113L108.473 194.414L108.473 136.445L108.426 136.445ZM108.773 196.66L143.23 225.344L108.773 254.027L108.426 254.328L108.426 196.359L108.773 196.66ZM108.773 256.617L143.23 285.301L108.773 313.984L108.426 314.285L108.426 256.316L108.773 256.617ZM108.773 316.531L143.23 345.215L108.773 373.941L108.426 374.246L108.426 316.231L108.773 316.531ZM108.426 434.16L108.426 376.188L108.773 376.492L143.23 405.172L108.426 434.16ZM143.488 404.18L143.144 403.879L108.687 375.195L143.144 346.512L143.488 346.211L143.488 404.18ZM143.488 344.266L143.144 343.965L108.687 315.281L143.144 286.598L143.488 286.293L143.488 344.266ZM143.488 284.309L143.144 284.004L108.687 255.324L143.144 226.641L143.488 226.336L143.488 284.309ZM143.488 224.395L143.144 224.09L108.687 195.406L143.144 166.727L143.488 166.422L143.488 224.395ZM143.488 164.434L141.199 162.535L108.645 135.449L143.445 106.465L143.445 164.434L143.488 164.434ZM143.488 104.52L108.687 75.5352L143.488 46.5508L143.488 104.52ZM144.398 46.5508L179.199 75.5352L144.398 104.52L144.398 46.5508ZM144.398 106.465L179.199 135.449L145.91 163.184L144.398 164.434L144.398 106.465ZM144.398 226.336L179.199 255.324L144.398 284.309L144.398 226.336ZM144.398 286.25L179.199 315.238L144.398 344.223L144.398 286.25ZM144.398 346.211L179.199 375.195L144.398 404.18L144.398 346.211ZM179.461 434.16L144.656 405.172L179.461 376.188L179.461 434.16ZM179.461 374.199L144.656 345.215L179.461 316.231L179.461 374.199ZM179.461 314.285L144.656 285.301L179.461 256.316L179.461 314.285ZM179.461 254.371L144.398 225.172L144.398 166.422L179.461 195.625L179.461 254.371ZM179.461 194.414L144.656 165.43L177.945 137.695L179.461 136.445L179.461 194.414ZM179.461 134.5L144.656 105.516L179.461 76.5274L179.461 134.5ZM216.383 106.465L251.184 135.449L217.895 163.184L216.383 164.434L216.383 106.465ZM180.367 136.445L215.172 165.43L180.367 194.414L180.367 136.445ZM180.367 196.359L215.172 225.344L180.367 254.328L180.367 196.359ZM180.367 256.316L215.172 285.301L180.715 313.984L180.367 314.285L180.367 256.316ZM180.367 316.231L180.715 316.531L215.172 345.215L180.758 373.941L180.41 374.246L180.41 316.231L180.367 316.231ZM215.473 404.18L180.672 375.195L215.129 346.512L215.473 346.211L215.473 404.18ZM215.473 344.266L215.129 343.965L180.672 315.281L215.129 286.598L215.473 286.293L215.473 344.266ZM251.445 434.16L216.641 405.172L251.445 376.188L251.445 434.16ZM216.383 404.18L216.383 346.211L251.184 375.195L216.383 404.18ZM251.445 374.199L216.641 345.215L251.445 316.231L251.445 374.199ZM216.383 344.266L216.383 286.25L251.184 315.238L216.383 344.266ZM251.445 314.285L216.641 285.301L251.445 256.316L251.445 314.285ZM251.445 255.106L215.906 284.695L180.629 255.324L216.211 225.688C216.297 225.602 216.383 225.473 216.383 225.344C216.383 225.215 216.34 225.086 216.211 224.996L180.629 195.363L215.906 165.992L251.445 195.582L251.445 255.106ZM251.445 194.414L216.641 165.43L249.93 137.695L251.445 136.445L251.445 194.414ZM252.352 136.445L254.645 138.344L287.199 165.43L252.742 194.113L252.394 194.414L252.395 136.445L252.352 136.445ZM252.352 196.359L252.699 196.66L287.156 225.344L252.699 254.027L252.352 254.328L252.352 196.359ZM252.352 256.316L252.699 256.617L287.156 285.301L252.699 313.984L252.352 314.285L252.352 256.316ZM252.352 316.231L252.699 316.531L287.156 345.215L252.742 373.941L252.394 374.246L252.394 316.231L252.352 316.231ZM252.351 434.16L252.351 376.188L252.699 376.492L287.156 405.172L252.351 434.16ZM287.457 404.18L287.113 403.879L252.656 375.195L287.113 346.512L287.457 346.211L287.457 404.18ZM287.457 344.266L287.113 343.965L252.656 315.281L287.113 286.598L287.457 286.293L287.457 344.266ZM287.457 284.309L287.113 284.004L252.656 255.324L287.113 226.641L287.457 226.336L287.457 284.309ZM287.457 224.395L287.113 224.09L252.656 195.406L287.113 166.727L287.457 166.422L287.457 224.395ZM287.457 164.434L285.168 162.535L252.613 135.449L287.414 106.465L287.414 164.434L287.457 164.434ZM288.367 106.465L323.168 135.449L289.879 163.184L288.367 164.434L288.367 106.465ZM288.367 166.422L323.168 195.406L288.367 224.395L288.367 166.422ZM288.367 226.336L323.168 255.324L288.367 284.309L288.367 226.336ZM288.367 286.25L323.168 315.238L288.367 344.223L288.367 286.25ZM288.367 346.211L323.168 375.195L288.367 404.18L288.367 346.211ZM323.43 434.16L288.625 405.172L323.43 376.188L323.43 434.16ZM323.43 374.199L288.625 345.215L323.43 316.231L323.43 374.199ZM323.43 314.285L288.625 285.301L323.43 256.316L323.43 314.285ZM323.43 254.371L288.625 225.344L323.43 196.359L323.43 254.371ZM323.43 194.414L288.625 165.43L321.914 137.695L323.43 136.445L323.43 194.414ZM324.336 196.359L359.141 225.344L324.684 254.027L324.336 254.328L324.336 196.359ZM324.336 256.316L324.684 256.617L359.141 285.301L324.684 313.984L324.336 314.285L324.336 256.316ZM324.336 316.231L324.684 316.531L359.141 345.215L324.726 373.941L324.379 374.246L324.379 316.231L324.336 316.231ZM359.441 404.18L324.641 375.195L359.098 346.512L359.441 346.211L359.441 404.18ZM359.441 344.266L359.098 343.965L324.641 315.281L359.098 286.598L359.441 286.293L359.441 344.266ZM359.441 284.309L359.098 284.004L324.641 255.324L359.098 226.641L359.441 226.336L359.441 284.309ZM360.352 226.336L395.152 255.324L360.352 284.309L360.352 226.336ZM360.352 286.25L395.152 315.238L360.351 344.223L360.352 286.25ZM360.351 346.211L395.152 375.195L360.351 404.18L360.351 346.211ZM395.414 434.16L360.609 405.172L395.414 376.188L395.414 434.16ZM395.414 374.199L360.609 345.215L395.414 316.231L395.414 374.199ZM395.414 314.285L360.609 285.301L395.414 256.316L395.414 314.285ZM395.414 254.371L360.609 225.387L395.414 196.402L395.414 254.371ZM396.32 196.359L431.125 225.344L396.668 254.027L396.32 254.328L396.32 196.359ZM396.32 256.316L431.125 285.301L396.32 314.285L396.32 256.316ZM396.32 316.231L396.668 316.531L431.125 345.215L396.32 374.199L396.32 316.231ZM396.32 434.16L396.32 376.188L431.125 405.172L396.32 434.16ZM431.426 404.18L396.621 375.195L431.426 346.211L431.426 404.18ZM431.426 344.266L431.078 343.965L396.621 315.281L431.426 286.293L431.426 344.266ZM431.426 284.309L396.621 255.324L431.078 226.641L431.426 226.336L431.426 284.309ZM432.332 166.422L467.137 195.406L432.332 224.395L432.332 166.422ZM432.332 226.336L467.137 255.324L432.68 284.004L432.332 284.309L432.332 226.336ZM432.332 286.25L432.68 286.555L467.137 315.238L432.68 343.918L432.332 344.223L432.332 286.25ZM432.332 346.211L432.68 346.512L467.137 375.195L432.68 403.879L432.332 404.18L432.332 346.211ZM467.394 434.16L432.594 405.172L467.051 376.492L467.394 376.188L467.394 434.16ZM467.394 374.199L467.051 373.899L432.594 345.215L467.051 316.531L467.394 316.231L467.394 374.199ZM467.394 314.285L467.051 313.984L432.594 285.301L467.051 256.617L467.394 256.317L467.394 314.285ZM468.305 256.317L503.105 285.301L468.305 314.285L468.305 256.317ZM503.152 405.172L468.348 434.16L468.348 376.188L503.152 405.172ZM468.305 374.199L468.305 316.231L503.105 345.215L468.305 374.199ZM539.379 374.199L504.578 345.215L539.379 316.231L539.379 374.199Z" fill="white" fill-opacity="0.16"/>
</svg>
