<svg width="396" height="331" viewBox="0 0 396 331" fill="none" xmlns="http://www.w3.org/2000/svg">
<g clip-path="url(#clip0_574_3461)">
<mask id="mask0_574_3461" style="mask-type:luminance" maskUnits="userSpaceOnUse" x="0" y="-121" width="613" height="452">
<path d="M612.17 330.746L0.169922 330.746L0.169882 -120.004L612.17 -120.004L612.17 330.746Z" fill="white"/>
</mask>
<g mask="url(#mask0_574_3461)">
<path d="M434.596 222.371C434.768 222.457 434.943 222.414 435.072 222.328L449.123 210.621C449.209 210.535 449.295 210.406 449.295 210.273C449.295 210.144 449.252 210.015 449.123 209.929L435.072 198.222C434.986 198.136 434.896 198.136 434.768 198.136C434.682 198.136 434.639 198.136 434.596 198.179C434.424 198.265 434.338 198.394 434.338 198.613L434.338 222.023C434.295 222.152 434.424 222.328 434.596 222.371ZM435.244 199.519L448.127 210.273L435.244 221.031L435.244 199.519ZM0.142549 0.898186C0.314424 0.984123 0.486299 0.941155 0.615206 0.855217L36.3261 -28.8635L71.6074 0.507555L36.0254 30.1404C35.9394 30.2302 35.8535 30.3591 35.8535 30.488C35.8535 30.6169 35.8965 30.7458 36.0254 30.8318L71.9941 60.8122L107.576 90.4451L71.9941 120.078C71.9082 120.164 71.8222 120.297 71.8222 120.426C71.8222 120.554 71.8652 120.683 71.9941 120.769L107.967 150.75C108.096 150.879 108.311 150.879 108.439 150.793C108.615 150.707 108.701 150.578 108.701 150.359L108.701 91.3943L143.936 120.726C143.936 120.726 143.978 120.726 143.978 120.769L144.021 120.812C144.064 120.812 144.064 120.812 144.107 120.812C144.15 120.812 144.197 120.812 144.24 120.812C144.283 120.812 144.326 120.812 144.369 120.812C144.412 120.812 144.412 120.812 144.455 120.812L144.498 120.769C144.498 120.769 144.541 120.769 144.541 120.726L180.252 91.0076L215.791 120.597L215.791 180.297C215.791 180.383 215.834 180.468 215.834 180.511L215.877 180.554C215.877 180.597 215.92 180.597 215.92 180.64L251.889 210.621C251.889 210.621 251.932 210.621 251.932 210.664L251.979 210.707C252.021 210.707 252.021 210.707 252.064 210.707C252.107 210.707 252.15 210.707 252.193 210.707C252.236 210.707 252.279 210.707 252.322 210.707C252.365 210.707 252.365 210.707 252.408 210.707L252.451 210.664C252.451 210.664 252.494 210.664 252.494 210.621L288.205 180.902L323.916 210.621C324.049 210.75 324.264 210.75 324.393 210.664C324.564 210.578 324.654 210.449 324.654 210.23L324.654 151.312L359.717 180.511L359.717 240.211C359.717 240.297 359.76 240.383 359.76 240.426L359.803 240.468C359.803 240.511 359.846 240.511 359.846 240.554L395.943 270.535C395.943 270.535 395.986 270.535 395.986 270.578L396.033 270.621C396.033 270.621 396.076 270.621 396.119 270.621C396.162 270.621 396.205 270.621 396.248 270.621C396.291 270.621 396.334 270.621 396.377 270.621C396.42 270.621 396.42 270.621 396.463 270.621L396.506 270.578C396.506 270.578 396.549 270.578 396.549 270.535L431.787 241.203L431.787 300.168C431.787 300.34 431.873 300.515 432.045 300.601C432.217 300.687 432.393 300.644 432.521 300.558L468.232 270.793L503.943 300.515L539.912 330.492C540.041 330.621 540.26 330.621 540.389 330.535C540.561 330.449 540.646 330.32 540.646 330.105L540.646 271.14L575.885 300.515L611.896 330.492C612.025 330.578 612.201 330.621 612.373 330.535C612.545 330.449 612.631 330.32 612.631 330.105L612.631 -89.4261C612.631 -89.5159 612.588 -89.6019 612.588 -89.6448L612.545 -89.6878C612.545 -89.7308 612.502 -89.7308 612.502 -89.7737L576.533 -119.75L576.49 -119.75L576.443 -119.797C576.4 -119.84 576.314 -119.84 576.271 -119.84C576.228 -119.84 576.143 -119.84 576.1 -119.797C576.057 -119.797 576.057 -119.75 576.057 -119.75L576.014 -119.75L540.303 -90.0315L504.592 -119.75L504.549 -119.75L504.506 -119.797C504.463 -119.84 504.373 -119.84 504.33 -119.84C504.244 -119.84 504.201 -119.84 504.158 -119.797L504.115 -119.75L504.072 -119.75L468.103 -89.7737L432.865 -60.4417L432.865 -119.407C432.865 -119.578 432.779 -119.75 432.607 -119.84C432.564 -119.883 432.478 -119.883 432.436 -119.883C432.346 -119.883 432.217 -119.84 432.131 -119.797L396.42 -90.0745L360.709 -119.797C360.623 -119.883 360.537 -119.883 360.408 -119.883C360.322 -119.883 360.275 -119.883 360.232 -119.84C360.061 -119.75 359.975 -119.621 359.975 -119.407L359.975 -60.4417L324.74 -89.7737L288.768 -119.75L288.725 -119.75L288.682 -119.797C288.639 -119.84 288.553 -119.84 288.51 -119.84C288.424 -119.84 288.381 -119.84 288.338 -119.797C288.295 -119.797 288.295 -119.75 288.295 -119.75L288.248 -119.75L252.537 -90.0315L216.826 -119.75C216.74 -119.84 216.654 -119.84 216.525 -119.84C216.439 -119.84 216.396 -119.84 216.353 -119.797C216.178 -119.707 216.092 -119.578 216.092 -119.364L216.092 -60.4417L180.857 -89.7737L144.889 -119.75L144.846 -119.75L144.803 -119.797C144.756 -119.84 144.67 -119.84 144.627 -119.84C144.584 -119.84 144.498 -119.84 144.455 -119.797L144.412 -119.75L144.369 -119.75L108.658 -90.0315L72.9472 -119.75L72.9043 -119.75L72.8613 -119.797C72.8183 -119.84 72.7324 -119.84 72.6855 -119.84C72.6425 -119.84 72.5566 -119.84 72.5136 -119.797L72.4707 -119.75L72.4277 -119.75L36.4589 -89.7737C36.3691 -89.6878 36.2832 -89.5588 36.2832 -89.426C36.2832 -89.2971 36.3261 -89.1682 36.4589 -89.0823L72.0371 -59.4495L36.7597 -30.0745L1.04879 -59.7932C0.962856 -59.8792 0.876919 -59.8792 0.748013 -59.8792C0.662075 -59.8792 0.6152 -59.8792 0.572231 -59.8362C0.400356 -59.7503 0.314419 -59.6213 0.314419 -59.4065L0.314424 0.464592C-0.119169 0.683342 -0.033232 0.812248 0.142549 0.898186ZM611.725 329.152L576.92 300.168L611.377 271.441L611.725 271.14L611.725 329.152ZM611.725 269.195L611.377 268.894L576.92 240.211L611.377 211.527L611.725 211.226L611.725 269.195ZM611.725 209.281L611.377 208.98L576.92 180.297L609.432 153.211L611.725 151.312L611.725 209.281ZM611.725 149.324L611.377 149.019L576.92 120.34L611.377 91.656L611.725 91.3513L611.725 149.324ZM611.725 89.4099L611.377 89.1052L576.92 60.4216L611.377 31.7419L611.725 31.4372L611.725 89.4099ZM611.725 29.4958L611.377 29.1911L576.92 0.50751L611.377 -28.2191L611.725 -28.5198L611.725 29.4958ZM611.725 -30.4651L611.377 -30.7659L576.92 -59.4495L611.377 -88.1331L611.725 -88.4339L611.725 -30.4651ZM576.662 -118.414L611.463 -89.4261L577.006 -60.7464L576.662 -60.4417L576.662 -118.414ZM576.662 -58.4534L577.006 -58.1526L611.463 -29.4691L577.006 -0.785458L576.662 -0.484677L576.662 -58.4534ZM576.662 1.46064L577.006 1.76142L611.463 30.445L577.006 59.1286L576.662 59.4294L576.662 1.46064ZM576.662 61.3747L577.006 61.6755L611.463 90.4021L577.006 119.086L576.662 119.386L576.662 61.3747ZM576.662 121.332L577.006 121.633L611.463 150.316L578.908 177.402L576.619 179.3L576.619 121.332L576.662 121.332ZM576.662 181.246L577.006 181.547L611.463 210.23L577.006 238.914L576.662 239.218L576.662 181.246ZM576.662 241.203L577.006 241.508L611.463 270.187L577.006 298.871L576.662 299.175L576.662 241.203ZM575.709 299.175L540.908 270.187L575.365 241.508L575.709 241.203L575.709 299.175ZM575.709 239.261L575.365 238.957L540.908 210.273L575.365 181.547L575.709 181.246L575.709 239.261ZM575.709 179.3L573.42 177.402L540.865 150.316L575.322 121.633L575.666 121.332L575.666 179.3L575.709 179.3ZM575.709 119.386L575.365 119.086L540.908 90.4021L575.365 61.7184L575.709 61.4177L575.709 119.386ZM575.709 59.4294L575.365 59.1286L540.908 30.445L575.365 1.76142L575.709 1.46064L575.709 59.4294ZM575.709 -0.484677L575.365 -0.785458L540.908 -29.469L575.365 -58.1956L575.709 -58.5003L575.709 -0.484677ZM575.709 -118.414L575.709 -60.4417L575.365 -60.7464L540.908 -89.4261L575.709 -118.414ZM540.646 -88.4339L540.994 -88.1331L575.451 -59.4495L540.994 -30.7659L540.646 -30.4651L540.646 -88.4339ZM540.646 -28.5198L540.994 -28.219L575.451 0.464542L540.994 29.1481L540.646 29.4528L540.646 -28.5198ZM540.646 31.4372L540.994 31.7419L575.451 60.4216L540.994 89.1052L540.646 89.4099L540.646 31.4372ZM540.646 91.3513L540.994 91.656L575.451 120.34L540.994 149.019L540.646 149.324L540.646 91.3513ZM540.646 151.312L542.939 153.211L575.451 180.297L540.994 208.98L540.646 209.281L540.646 151.312ZM540.646 211.226L540.994 211.527L575.451 240.211L540.994 268.894L540.646 269.195L540.646 211.226ZM539.74 329.152L504.936 300.168L539.74 271.183L539.74 329.152ZM539.74 269.195L504.936 240.211L539.74 211.226L539.74 269.195ZM539.74 209.281L504.936 180.297L538.229 152.562L539.74 151.312L539.74 209.281ZM539.74 149.324L504.936 120.34L539.74 91.3513L539.74 149.324ZM539.74 89.4099L504.936 60.4216L539.74 31.4372L539.74 89.4099ZM539.74 29.4958L504.936 0.507517L539.74 -28.4769L539.74 29.4958ZM539.74 -30.4651L504.936 -59.4495L539.74 -88.4339L539.74 -30.4651ZM504.678 -118.414L539.482 -89.4261L504.678 -60.4417L504.678 -118.414ZM504.678 -58.4534L539.482 -29.469L504.678 -0.484671L504.678 -58.4534ZM504.678 1.46064L539.482 30.445L504.678 59.4294L504.678 1.46064ZM504.678 61.3747L539.482 90.4021L504.678 119.386L504.678 61.3747ZM504.678 121.332L539.482 150.316L506.189 178.051L504.678 179.301L504.678 121.332ZM504.678 181.246L539.482 210.23L504.678 239.218L504.678 181.246ZM504.678 241.203L539.482 270.187L504.678 299.175L504.678 241.203ZM503.725 299.175L468.924 270.187L503.381 241.508L503.725 241.203L503.725 299.175ZM503.725 239.261L503.381 238.957L468.924 210.273L503.381 181.547L503.725 181.246L503.725 239.261ZM503.725 179.301L501.436 177.402L468.881 150.316L503.338 121.633L503.682 121.332L503.682 179.301L503.725 179.301ZM503.725 119.386L503.381 119.086L468.924 90.4021L503.381 61.7185L503.725 61.4177L503.725 119.386ZM503.725 59.4294L503.381 59.1286L468.924 30.445L503.381 1.76142L503.725 1.46064L503.725 59.4294ZM503.725 -0.484671L503.381 -0.785452L468.924 -29.469L503.381 -58.1956L503.725 -58.5003L503.725 -0.484671ZM503.725 -118.414L503.725 -60.4417L503.381 -60.7464L468.924 -89.4261L503.725 -118.414ZM468.662 -88.4339L469.01 -88.1331L503.467 -59.4495L469.01 -30.7659L468.662 -30.4651L468.662 -88.4339ZM468.662 -28.5198L469.01 -28.219L503.467 0.464548L469.01 29.1481L468.662 29.4528L468.662 -28.5198ZM468.662 31.4372L469.01 31.7419L503.467 60.4216L469.01 89.1052L468.662 89.4099L468.662 31.4372ZM468.662 91.3513L469.01 91.656L503.467 120.34L469.01 149.019L468.662 149.324L468.662 91.3513ZM468.662 151.312L470.955 153.211L503.51 180.297L469.053 208.98L468.709 209.281L468.709 151.312L468.662 151.312ZM468.662 211.226L469.01 211.527L503.467 240.211L469.01 268.894L468.662 269.195L468.662 211.226ZM432.693 299.176L432.693 241.203L467.498 270.187L432.693 299.176ZM467.756 269.195L432.951 240.211L467.756 211.226L467.756 269.195ZM467.756 209.281L432.951 180.297L466.244 152.562L467.756 151.312L467.756 209.281ZM467.756 149.324L432.951 120.34L467.756 91.3513L467.756 149.324ZM467.756 89.4099L432.951 60.4216L467.756 31.4372L467.756 89.4099ZM467.756 29.4958L432.951 0.507523L467.756 -28.4769L467.756 29.4958ZM467.756 -88.4339L467.756 -30.4651L432.951 -59.4495L467.756 -88.4339ZM432.693 -58.4534L467.498 -29.469L432.693 -0.484664L432.693 -58.4534ZM432.693 1.46065L467.498 30.445L432.693 59.4294L432.693 1.46065ZM432.693 61.3747L467.498 90.4021L432.693 119.386L432.693 61.3747ZM432.693 121.332L467.498 150.316L434.205 178.051L432.693 179.301L432.693 121.332ZM432.217 180.902L467.498 210.273L432.217 239.648L396.939 210.273L432.217 180.902ZM431.744 179.301L429.451 177.402L396.896 150.316L431.353 121.633L431.697 121.332L431.697 179.301L431.744 179.301ZM431.396 119.086L396.939 90.4021L431.396 61.7185L431.744 61.4177L431.744 119.386L431.396 119.086ZM431.396 59.1286L396.939 30.445L431.396 1.76143L431.744 1.46065L431.744 59.4294L431.396 59.1286ZM431.396 -0.785446L396.939 -29.469L431.396 -58.1956L431.744 -58.5003L431.744 -0.484664L431.396 -0.785446ZM431.744 -118.414L431.744 -60.4417L431.396 -60.7464L396.939 -89.4261L431.744 -118.414ZM396.682 -88.4339L397.025 -88.1331L431.482 -59.4495L397.025 -30.7659L396.682 -30.4651L396.682 -88.4339ZM396.682 -28.5198L397.025 -28.219L431.482 0.464554L397.025 29.1482L396.682 29.4528L396.682 -28.5198ZM396.682 31.4372L397.025 31.7419L431.482 60.4216L397.025 89.1052L396.682 89.4099L396.682 31.4372ZM396.682 91.3513L397.025 91.656L431.482 120.34L397.025 149.019L396.682 149.324L396.682 91.3513ZM396.682 151.312L398.971 153.211L431.525 180.297L396.725 209.281L396.725 151.312L396.682 151.312ZM396.682 211.226L431.482 240.211L396.682 269.195L396.682 211.226ZM395.771 269.195L360.971 240.211L395.771 211.226L395.771 269.195ZM395.771 209.281L360.971 180.297L394.26 152.562L395.771 151.312L395.771 209.281ZM395.771 89.4099L360.971 60.4216L395.771 31.4372L395.771 89.4099ZM395.771 29.4958L360.971 0.507529L395.771 -28.4768L395.771 29.4958ZM395.771 -30.4651L360.971 -59.4495L395.771 -88.4339L395.771 -30.4651ZM360.709 -118.414L395.514 -89.4261L360.709 -60.4417L360.709 -118.414ZM360.709 -58.4534L395.514 -29.469L360.709 -0.484658L360.709 -58.4534ZM360.709 1.46065L395.514 30.445L360.709 59.4294L360.709 1.46065ZM360.709 61.3747L395.771 90.5739L395.771 149.324L360.709 120.121L360.709 61.3747ZM360.709 121.332L395.514 150.316L362.225 178.051L360.709 179.301L360.709 121.332ZM360.709 181.246L395.514 210.23L360.709 239.218L360.709 181.246ZM323.787 209.281L288.986 180.297L322.275 152.562L323.787 151.312L323.787 209.281ZM359.803 179.301L324.998 150.316L359.803 121.332L359.803 179.301ZM359.803 119.386L324.998 90.4021L359.803 61.4177L359.803 119.386ZM359.803 59.4294L324.998 30.445L359.455 1.76144L359.803 1.46065L359.803 59.4294ZM359.803 -0.484658L359.455 -0.785439L324.998 -29.469L359.412 -58.1956L359.76 -58.5003L359.76 -0.484658L359.803 -0.484658ZM324.697 -88.4339L359.498 -59.4495L325.041 -30.7659L324.697 -30.4651L324.697 -88.4339ZM324.697 -28.5198L325.041 -28.219L359.498 0.464561L325.041 29.1482L324.697 29.4528L324.697 -28.5198ZM288.725 -118.414L323.529 -89.4261L288.725 -60.4417L288.725 -118.414ZM323.787 -88.4339L323.787 -30.4651L288.986 -59.4495L323.787 -88.4339ZM288.725 -58.4534L323.529 -29.469L288.725 -0.484652L288.725 -58.4534ZM323.787 -28.5198L323.787 29.4958L288.986 0.507536L323.787 -28.5198ZM288.725 1.46066L323.529 30.445L288.725 59.4294L288.725 1.46066ZM288.725 60.6403L324.264 31.0505L359.541 60.4216L323.959 90.0583C323.873 90.1443 323.787 90.2732 323.787 90.4021C323.787 90.531 323.83 90.6599 323.959 90.7497L359.541 120.383L324.264 149.754L288.725 120.164L288.725 60.6403ZM288.725 121.332L323.529 150.316L290.24 178.051L288.725 179.301L288.725 121.332ZM287.818 179.301L285.525 177.402L252.971 150.316L287.428 121.633L287.775 121.332L287.775 179.301L287.818 179.301ZM287.818 119.386L287.471 119.086L253.014 90.4021L287.471 61.7185L287.818 61.4177L287.818 119.386ZM287.818 59.4294L287.471 59.1286L253.014 30.445L287.471 1.76144L287.818 1.46066L287.818 59.4294ZM287.818 -0.484652L287.471 -0.785433L253.014 -29.469L287.428 -58.1956L287.775 -58.5003L287.775 -0.484652L287.818 -0.484652ZM287.818 -118.414L287.818 -60.4417L287.471 -60.7464L253.014 -89.4261L287.818 -118.414ZM252.713 -88.4339L253.057 -88.1331L287.514 -59.4495L253.057 -30.7659L252.713 -30.4651L252.713 -88.4339ZM252.713 -28.5198L253.057 -28.219L287.514 0.464567L253.057 29.1482L252.713 29.4529L252.713 -28.5198ZM252.713 31.4372L253.057 31.7419L287.514 60.4216L253.057 89.1052L252.713 89.4099L252.713 31.4372ZM252.713 91.3513L253.057 91.656L287.514 120.34L253.057 149.019L252.713 149.324L252.713 91.3513ZM252.713 151.312L255.002 153.211L287.557 180.297L252.756 209.281L252.756 151.312L252.713 151.312ZM251.803 209.281L217.002 180.297L250.291 152.562L251.803 151.312L251.803 209.281ZM251.803 149.324L217.002 120.34L251.803 91.3513L251.803 149.324ZM251.803 89.4099L217.002 60.4216L251.803 31.4372L251.803 89.4099ZM251.803 29.4958L217.002 0.507542L251.803 -28.4768L251.803 29.4958ZM251.803 -30.4651L217.002 -59.4495L251.803 -88.4339L251.803 -30.4651ZM216.74 -118.414L251.545 -89.4261L216.74 -60.4417L216.74 -118.414ZM216.74 -58.4534L251.545 -29.469L216.74 -0.484646L216.74 -58.4534ZM216.74 1.46067L251.545 30.445L216.74 59.4294L216.74 1.46067ZM216.74 61.3747L251.545 90.4021L216.74 119.386L216.74 61.3747ZM216.74 121.332L251.545 150.316L218.256 178.051L216.74 179.301L216.74 121.332ZM215.834 119.386L181.029 90.4021L215.486 61.7185L215.834 61.4177L215.834 119.386ZM215.834 59.4294L215.486 59.1286L181.029 30.445L215.486 1.76145L215.834 1.46067L215.834 59.4294ZM215.834 -0.484645L215.486 -0.785427L181.029 -29.469L215.443 -58.1956L215.791 -58.5003L215.791 -0.484645L215.834 -0.484645ZM180.728 -88.4339L215.529 -59.4495L181.072 -30.7659L180.728 -30.4651L180.728 -88.4339ZM180.728 -28.5198L181.072 -28.219L215.529 0.464573L181.072 29.1482L180.728 29.4529L180.728 -28.5198ZM180.728 31.4372L181.072 31.7419L215.529 60.4216L181.072 89.1052L180.728 89.4099L180.728 31.4372ZM179.818 89.4099L145.018 60.4216L179.818 31.4372L179.818 89.4099ZM179.818 29.4958L145.018 0.507548L179.818 -28.4768L179.818 29.4958ZM179.818 -30.4651L145.018 -59.4495L179.818 -88.4339L179.818 -30.4651ZM144.756 -118.414L179.561 -89.426L144.756 -60.4417L144.756 -118.414ZM144.756 -58.4534L179.561 -29.469L144.756 -0.484639L144.756 -58.4534ZM144.756 1.46067L179.561 30.445L144.756 59.4294L144.756 1.46067ZM144.756 61.3747L179.561 90.3591L144.756 119.344L144.756 61.3747ZM143.85 119.386L109.045 90.4021L143.502 61.7185L143.85 61.4177L143.85 119.386ZM143.85 59.4294L109.045 30.4451L143.85 1.46067L143.85 59.4294ZM143.85 -0.484639L143.502 -0.78542L109.045 -29.469L143.85 -58.4534L143.85 -0.484639ZM143.85 -118.414L143.85 -60.4417L109.045 -89.426L143.85 -118.414ZM108.744 -88.4339L143.549 -59.4495L108.744 -30.4651L108.744 -88.4339ZM108.744 -28.5198L109.092 -28.219L143.549 0.46458L108.744 29.4529L108.744 -28.5198ZM108.744 31.4372L143.549 60.4216L109.092 89.1052L108.744 89.4099L108.744 31.4372ZM107.838 149.324L73.0332 120.34L107.838 91.3513L107.838 149.324ZM107.838 89.4099L73.0332 60.4216L107.49 31.7419L107.838 31.4372L107.838 89.4099ZM107.838 29.4958L107.49 29.1911L73.0332 0.507554L107.49 -28.1721L107.838 -28.4768L107.838 29.4958ZM107.838 -30.4651L107.49 -30.7659L73.0332 -59.4495L107.49 -88.1331L107.838 -88.4339L107.838 -30.4651ZM72.7754 -118.414L107.576 -89.426L73.1191 -60.7464L72.7754 -60.4417L72.7754 -118.414ZM72.7754 -58.4534L73.1191 -58.1526L107.576 -29.469L73.1191 -0.785414L72.7754 -0.484633L72.7754 -58.4534ZM72.7754 1.46068L73.1191 1.76146L107.576 30.4451L73.1191 59.1286L72.7754 59.4294L72.7754 1.46068ZM71.8652 59.4294L37.0644 30.4451L71.8652 1.46068L71.8652 59.4294ZM37.0175 -89.426L71.8222 -118.414L71.8222 -60.4417L37.0175 -89.426ZM71.8652 -58.4534L71.8652 -0.484633L37.0644 -29.469L71.8652 -58.4534ZM0.790982 -58.4534L35.5918 -29.469L0.790987 -0.484627L0.790982 -58.4534Z" fill="#838383" fill-opacity="0.31"/>
</g>
</g>
<defs>
<clipPath id="clip0_574_3461">
<rect width="612.63" height="450.75" fill="white" transform="translate(612.63 330.75) rotate(180)"/>
</clipPath>
</defs>
</svg>
