<svg width="546" height="451" viewBox="0 0 546 451" fill="none" xmlns="http://www.w3.org/2000/svg">
<mask id="mask0_891_3548" style="mask-type:luminance" maskUnits="userSpaceOnUse" x="-67" y="0" width="613" height="451">
<path d="M-66.3701 0L545.63 0.000107005L545.63 450.75L-66.3702 450.75L-66.3701 0Z" fill="white"/>
</mask>
<g mask="url(#mask0_891_3548)">
<path d="M111.204 108.375C111.032 108.289 110.856 108.332 110.728 108.418L96.6767 120.125C96.5908 120.211 96.5049 120.34 96.5049 120.473C96.5049 120.602 96.5478 120.73 96.6767 120.816L110.728 132.523C110.813 132.609 110.903 132.609 111.032 132.609C111.118 132.609 111.161 132.609 111.204 132.566C111.376 132.48 111.462 132.352 111.462 132.133L111.462 108.723C111.505 108.594 111.376 108.418 111.204 108.375ZM110.556 131.227L97.6728 120.473L110.556 109.715L110.556 131.227ZM545.657 329.848C545.485 329.762 545.313 329.805 545.185 329.891L509.474 359.609L474.192 330.238L509.774 300.606C509.86 300.516 509.946 300.387 509.946 300.258C509.946 300.129 509.903 300 509.774 299.914L473.806 269.934L438.224 240.301L473.806 210.668C473.892 210.582 473.978 210.449 473.978 210.32C473.978 210.191 473.935 210.063 473.806 209.977L437.833 179.996C437.704 179.867 437.489 179.867 437.36 179.953C437.185 180.039 437.099 180.168 437.099 180.387L437.099 239.352L401.864 210.02C401.864 210.02 401.821 210.02 401.821 209.977L401.778 209.934C401.735 209.934 401.735 209.934 401.692 209.934C401.649 209.934 401.603 209.934 401.56 209.934C401.517 209.934 401.474 209.934 401.431 209.934C401.388 209.934 401.388 209.934 401.345 209.934L401.302 209.977C401.302 209.977 401.259 209.977 401.259 210.02L365.548 239.738L330.009 210.148L330.009 150.449C330.009 150.363 329.966 150.277 329.966 150.234L329.923 150.191C329.923 150.148 329.88 150.148 329.88 150.106L293.911 120.125C293.911 120.125 293.868 120.125 293.868 120.082L293.821 120.039C293.778 120.039 293.778 120.039 293.735 120.039C293.692 120.039 293.649 120.039 293.606 120.039C293.563 120.039 293.52 120.039 293.478 120.039C293.435 120.039 293.435 120.039 293.392 120.039L293.349 120.082C293.349 120.082 293.306 120.082 293.306 120.125L257.595 149.844L221.884 120.125C221.751 119.996 221.536 119.996 221.407 120.082C221.235 120.168 221.145 120.297 221.145 120.516L221.145 179.434L186.083 150.234L186.083 90.5352C186.083 90.4492 186.04 90.3633 186.04 90.3203L185.997 90.2774C185.997 90.2344 185.954 90.2344 185.954 90.1914L149.856 60.211C149.856 60.211 149.813 60.211 149.813 60.168L149.767 60.125C149.767 60.125 149.724 60.125 149.681 60.125C149.638 60.125 149.595 60.125 149.552 60.125C149.509 60.125 149.466 60.125 149.423 60.125C149.38 60.125 149.38 60.125 149.337 60.125L149.294 60.168C149.294 60.168 149.251 60.168 149.251 60.211L114.013 89.543L114.013 30.5781C114.013 30.4063 113.927 30.2305 113.755 30.1445C113.583 30.0586 113.407 30.1016 113.278 30.1875L77.5674 59.9531L41.8564 30.2305L5.8877 0.253906C5.75879 0.125 5.54004 0.125 5.41113 0.210937C5.23926 0.296875 5.15332 0.42578 5.15332 0.640624L5.15331 59.6055L-30.085 30.2305L-66.0967 0.253893C-66.2256 0.167956 -66.4014 0.124987 -66.5732 0.210924C-66.7451 0.296862 -66.8311 0.425768 -66.8311 0.640612L-66.8311 420.172C-66.8311 420.262 -66.7882 420.348 -66.7882 420.391L-66.7452 420.434C-66.7452 420.477 -66.7022 420.477 -66.7022 420.52L-30.7335 450.496L-30.6905 450.496L-30.6436 450.543C-30.6007 450.586 -30.5147 450.586 -30.4718 450.586C-30.4288 450.586 -30.3429 450.586 -30.2999 450.543C-30.2569 450.543 -30.2569 450.496 -30.2569 450.496L-30.2139 450.496L5.497 420.777L41.2079 450.496L41.2509 450.496L41.2939 450.543C41.3368 450.586 41.4267 450.586 41.4696 450.586C41.5556 450.586 41.5986 450.586 41.6415 450.543L41.6845 450.496L41.7275 450.496L77.6962 420.52L112.935 391.188L112.934 450.152C112.934 450.324 113.02 450.496 113.192 450.586C113.235 450.629 113.321 450.629 113.364 450.629C113.454 450.629 113.583 450.586 113.669 450.543L149.38 420.82L185.091 450.543C185.177 450.629 185.263 450.629 185.392 450.629C185.477 450.629 185.524 450.629 185.567 450.586C185.739 450.496 185.825 450.367 185.825 450.152L185.825 391.188L221.059 420.52L257.032 450.496L257.075 450.496L257.118 450.543C257.161 450.586 257.247 450.586 257.29 450.586C257.376 450.586 257.419 450.586 257.462 450.543C257.505 450.543 257.505 450.496 257.505 450.496L257.552 450.496L293.263 420.777L328.974 450.496C329.059 450.586 329.145 450.586 329.274 450.586C329.36 450.586 329.403 450.586 329.446 450.543C329.622 450.453 329.708 450.324 329.708 450.109L329.708 391.188L364.942 420.52L400.911 450.496L400.954 450.496L400.997 450.543C401.044 450.586 401.13 450.586 401.173 450.586C401.216 450.586 401.302 450.586 401.345 450.543L401.388 450.496L401.431 450.496L437.142 420.777L472.852 450.496L472.895 450.496L472.938 450.543C472.981 450.586 473.067 450.586 473.114 450.586C473.157 450.586 473.243 450.586 473.286 450.543L473.329 450.496L473.372 450.496L509.341 420.52C509.431 420.434 509.517 420.305 509.517 420.172C509.517 420.043 509.474 419.914 509.341 419.828L473.763 390.195L509.04 360.82L544.751 390.539C544.837 390.625 544.923 390.625 545.052 390.625C545.138 390.625 545.185 390.625 545.227 390.582C545.399 390.496 545.485 390.367 545.485 390.152L545.485 330.281C545.919 330.063 545.833 329.934 545.657 329.848ZM-65.9248 1.59374L-31.1201 30.5781L-65.5772 59.3047L-65.9248 59.6055L-65.9248 1.59374ZM-65.9248 61.5508L-65.5772 61.8516L-31.1201 90.5351L-65.5772 119.219L-65.9248 119.52L-65.9248 61.5508ZM-65.9248 121.465L-65.5772 121.766L-31.1201 150.449L-63.6319 177.535L-65.9248 179.434L-65.9248 121.465ZM-65.9248 181.422L-65.5772 181.727L-31.1202 210.406L-65.5772 239.09L-65.9248 239.395L-65.9248 181.422ZM-65.9248 241.336L-65.5772 241.641L-31.1202 270.324L-65.5772 299.004L-65.9249 299.309L-65.9248 241.336ZM-65.9249 301.25L-65.5772 301.555L-31.1202 330.238L-65.5772 358.965L-65.9249 359.266L-65.9249 301.25ZM-65.9249 361.211L-65.5772 361.512L-31.1202 390.195L-65.5772 418.879L-65.9249 419.18L-65.9249 361.211ZM-30.8624 449.16L-65.6632 420.172L-31.2061 391.492L-30.8624 391.188L-30.8624 449.16ZM-30.8624 389.199L-31.2061 388.898L-65.6631 360.215L-31.2061 331.531L-30.8624 331.23L-30.8624 389.199ZM-30.8624 329.285L-31.2061 328.984L-65.6631 300.301L-31.2061 271.617L-30.8624 271.316L-30.8624 329.285ZM-30.8624 269.371L-31.2061 269.07L-65.6631 240.344L-31.2061 211.66L-30.8623 211.359L-30.8624 269.371ZM-30.8623 209.414L-31.2061 209.113L-65.6631 180.43L-33.1084 153.344L-30.8194 151.445L-30.8194 209.414L-30.8623 209.414ZM-30.8623 149.5L-31.2061 149.199L-65.6631 120.516L-31.2061 91.832L-30.8623 91.5273L-30.8623 149.5ZM-30.8623 89.543L-31.2061 89.2383L-65.6631 60.5586L-31.2061 31.875L-30.8623 31.5703L-30.8623 89.543ZM-29.9092 31.5703L4.89159 60.5586L-29.5654 89.2383L-29.9092 89.543L-29.9092 31.5703ZM-29.9092 91.4844L-29.5654 91.7891L4.89158 120.473L-29.5655 149.199L-29.9092 149.5L-29.9092 91.4844ZM-29.9092 151.445L-27.6201 153.344L4.93454 180.43L-29.5225 209.113L-29.8662 209.414L-29.8662 151.445L-29.9092 151.445ZM-29.9092 211.359L-29.5655 211.66L4.89156 240.344L-29.5655 269.027L-29.9092 269.328L-29.9092 211.359ZM-29.9092 271.316L-29.5655 271.617L4.89155 300.301L-29.5655 328.984L-29.9092 329.285L-29.9092 271.316ZM-29.9092 331.23L-29.5655 331.531L4.89154 360.215L-29.5655 388.941L-29.9092 389.246L-29.9092 331.23ZM-29.9093 449.16L-29.9092 391.188L-29.5655 391.492L4.89153 420.172L-29.9093 449.16ZM5.15325 419.18L4.80559 418.879L-29.6514 390.195L4.8056 361.512L5.15326 361.211L5.15325 419.18ZM5.15326 359.266L4.8056 358.965L-29.6514 330.281L4.80561 301.598L5.15327 301.293L5.15326 359.266ZM5.15327 299.309L4.80561 299.004L-29.6514 270.324L4.80562 241.641L5.15328 241.336L5.15327 299.309ZM5.15328 239.395L4.80562 239.09L-29.6514 210.406L4.80563 181.727L5.15329 181.422L5.15328 239.395ZM5.15329 179.434L2.86032 177.535L-29.6514 150.449L4.80564 121.766L5.1533 121.465L5.15329 179.434ZM5.1533 119.52L4.80564 119.219L-29.6514 90.5351L4.80565 61.8516L5.15331 61.5508L5.1533 119.52ZM6.05957 1.59375L40.8643 30.5781L6.05956 59.5625L6.05957 1.59375ZM6.05956 61.5508L40.8642 90.5352L6.05955 119.52L6.05956 61.5508ZM6.05955 121.465L40.8642 150.449L7.57126 178.184L6.05954 179.434L6.05955 121.465ZM6.05954 181.422L40.8642 210.406L6.05953 239.395L6.05954 181.422ZM6.05953 241.336L40.8642 270.324L6.05952 299.309L6.05953 241.336ZM6.05952 301.25L40.8642 330.238L6.05951 359.223L6.05952 301.25ZM6.05951 361.211L40.8642 390.195L6.0595 419.18L6.05951 361.211ZM41.122 449.16L6.31731 420.172L41.122 391.188L41.122 449.16ZM41.122 389.199L6.31732 360.215L41.122 331.23L41.122 389.199ZM41.122 329.285L6.31733 300.301L41.122 271.316L41.122 329.285ZM41.122 269.371L6.31734 240.344L41.122 211.359L41.122 269.371ZM41.122 209.414L6.31735 180.43L39.6103 152.695L41.122 151.445L41.122 209.414ZM41.122 149.5L6.31736 120.516L41.1221 91.5273L41.122 149.5ZM41.1221 89.543L6.31737 60.5586L41.1221 31.5703L41.1221 89.543ZM42.0752 31.5703L76.876 60.5586L42.4189 89.2383L42.0752 89.543L42.0752 31.5703ZM42.0752 91.4844L42.4189 91.7891L76.876 120.473L42.4189 149.199L42.0752 149.5L42.0752 91.4844ZM42.0752 151.445L44.3642 153.344L76.9189 180.43L42.4619 209.113L42.1181 209.414L42.1181 151.445L42.0752 151.445ZM42.0752 211.359L42.4189 211.66L76.8759 240.344L42.4189 269.027L42.0751 269.328L42.0752 211.359ZM42.0751 271.316L42.4189 271.617L76.8759 300.301L42.4189 328.984L42.0751 329.285L42.0751 271.316ZM42.0751 331.23L42.4189 331.531L76.8759 360.215L42.4189 388.941L42.0751 389.246L42.0751 331.23ZM42.0751 449.16L42.0751 391.188L42.4189 391.492L76.8759 420.172L42.0751 449.16ZM77.1376 419.18L76.79 418.879L42.3329 390.195L76.79 361.512L77.1376 361.211L77.1376 419.18ZM77.1376 359.266L76.79 358.965L42.333 330.281L76.79 301.598L77.1376 301.293L77.1376 359.266ZM77.1376 299.309L76.79 299.004L42.333 270.324L76.79 241.641L77.1377 241.336L77.1376 299.309ZM77.1377 239.395L76.79 239.09L42.333 210.406L76.79 181.727L77.1377 181.422L77.1377 239.395ZM77.1377 179.434L74.8447 177.535L42.29 150.449L76.747 121.766L77.0908 121.465L77.0908 179.434L77.1377 179.434ZM77.1377 119.52L76.79 119.219L42.333 90.5352L76.79 61.8516L77.1377 61.5508L77.1377 119.52ZM113.106 31.5703L113.106 89.543L78.3017 60.5586L113.106 31.5703ZM78.0439 61.5508L112.849 90.5352L78.0439 119.52L78.0439 61.5508ZM78.0439 121.465L112.849 150.449L79.5556 178.184L78.0439 179.434L78.0439 121.465ZM78.0439 181.422L112.849 210.406L78.0439 239.395L78.0439 181.422ZM78.0439 241.336L112.849 270.324L78.0439 299.309L78.0439 241.336ZM78.0439 301.25L112.849 330.238L78.0439 359.223L78.0439 301.25ZM78.0439 419.18L78.0439 361.211L112.849 390.195L78.0439 419.18ZM113.106 389.199L78.3017 360.215L113.106 331.231L113.106 389.199ZM113.106 329.285L78.3017 300.301L113.106 271.316L113.106 329.285ZM113.106 269.371L78.3017 240.344L113.106 211.359L113.106 269.371ZM113.106 209.414L78.3017 180.43L111.595 152.695L113.106 151.445L113.106 209.414ZM113.583 149.844L78.3017 120.473L113.583 91.0977L148.86 120.473L113.583 149.844ZM114.056 151.445L116.349 153.344L148.903 180.43L114.446 209.113L114.103 209.414L114.103 151.445L114.056 151.445ZM114.403 211.66L148.86 240.344L114.403 269.027L114.056 269.328L114.056 211.359L114.403 211.66ZM114.403 271.617L148.86 300.301L114.403 328.984L114.056 329.285L114.056 271.316L114.403 271.617ZM114.403 331.531L148.86 360.215L114.403 388.941L114.056 389.246L114.056 331.231L114.403 331.531ZM114.056 449.16L114.056 391.188L114.403 391.492L148.86 420.172L114.056 449.16ZM149.118 419.18L148.774 418.879L114.317 390.195L148.774 361.512L149.118 361.211L149.118 419.18ZM149.118 359.266L148.774 358.965L114.317 330.281L148.774 301.598L149.118 301.293L149.118 359.266ZM149.118 299.309L148.774 299.004L114.317 270.324L148.774 241.641L149.118 241.336L149.118 299.309ZM149.118 239.395L148.774 239.09L114.317 210.406L148.774 181.727L149.118 181.422L149.118 239.395ZM149.118 179.434L146.829 177.535L114.274 150.449L149.075 121.465L149.075 179.434L149.118 179.434ZM149.118 119.52L114.317 90.5352L149.118 61.5508L149.118 119.52ZM150.028 61.5508L184.829 90.5352L150.028 119.52L150.028 61.5508ZM150.028 121.465L184.829 150.449L151.54 178.184L150.028 179.434L150.028 121.465ZM150.028 241.336L184.829 270.324L150.028 299.309L150.028 241.336ZM150.028 301.25L184.829 330.238L150.028 359.223L150.028 301.25ZM150.028 361.211L184.829 390.195L150.028 419.18L150.028 361.211ZM185.091 449.16L150.286 420.172L185.091 391.188L185.091 449.16ZM185.091 389.199L150.286 360.215L185.091 331.231L185.091 389.199ZM185.091 329.285L150.286 300.301L185.091 271.316L185.091 329.285ZM185.091 269.371L150.028 240.172L150.028 181.422L185.091 210.625L185.091 269.371ZM185.091 209.414L150.286 180.43L183.575 152.695L185.091 151.445L185.091 209.414ZM185.091 149.5L150.286 120.516L185.091 91.5274L185.091 149.5ZM222.013 121.465L256.813 150.449L223.524 178.184L222.013 179.434L222.013 121.465ZM185.997 151.445L220.802 180.43L185.997 209.414L185.997 151.445ZM185.997 211.359L220.802 240.344L185.997 269.328L185.997 211.359ZM185.997 271.316L220.802 300.301L186.345 328.984L185.997 329.285L185.997 271.316ZM185.997 331.231L186.345 331.531L220.802 360.215L186.388 388.941L186.04 389.246L186.04 331.231L185.997 331.231ZM221.102 419.18L186.302 390.195L220.759 361.512L221.102 361.211L221.102 419.18ZM221.102 359.266L220.759 358.965L186.302 330.281L220.759 301.598L221.102 301.293L221.102 359.266ZM257.075 449.16L222.27 420.172L257.075 391.188L257.075 449.16ZM222.013 419.18L222.013 361.211L256.813 390.195L222.013 419.18ZM257.075 389.199L222.27 360.215L257.075 331.231L257.075 389.199ZM222.013 359.266L222.013 301.25L256.813 330.238L222.013 359.266ZM257.075 329.285L222.27 300.301L257.075 271.316L257.075 329.285ZM257.075 270.106L221.536 299.695L186.259 270.324L221.841 240.688C221.927 240.602 222.013 240.473 222.013 240.344C222.013 240.215 221.97 240.086 221.841 239.996L186.259 210.363L221.536 180.992L257.075 210.582L257.075 270.106ZM257.075 209.414L222.27 180.43L255.56 152.695L257.075 151.445L257.075 209.414ZM257.981 151.445L260.274 153.344L292.829 180.43L258.372 209.113L258.024 209.414L258.024 151.445L257.981 151.445ZM257.981 211.359L258.329 211.66L292.786 240.344L258.329 269.027L257.981 269.328L257.981 211.359ZM257.981 271.316L258.329 271.617L292.786 300.301L258.329 328.984L257.981 329.285L257.981 271.316ZM257.981 331.231L258.329 331.531L292.786 360.215L258.372 388.941L258.024 389.246L258.024 331.231L257.981 331.231ZM257.981 449.16L257.981 391.188L258.329 391.492L292.786 420.172L257.981 449.16ZM293.087 419.18L292.743 418.879L258.286 390.195L292.743 361.512L293.087 361.211L293.087 419.18ZM293.087 359.266L292.743 358.965L258.286 330.281L292.743 301.598L293.087 301.293L293.087 359.266ZM293.087 299.309L292.743 299.004L258.286 270.324L292.743 241.641L293.087 241.336L293.087 299.309ZM293.087 239.395L292.743 239.09L258.286 210.406L292.743 181.727L293.087 181.422L293.087 239.395ZM293.087 179.434L290.798 177.535L258.243 150.449L293.044 121.465L293.044 179.434L293.087 179.434ZM293.997 121.465L328.798 150.449L295.509 178.184L293.997 179.434L293.997 121.465ZM293.997 181.422L328.798 210.406L293.997 239.395L293.997 181.422ZM293.997 241.336L328.798 270.324L293.997 299.309L293.997 241.336ZM293.997 301.25L328.798 330.238L293.997 359.223L293.997 301.25ZM293.997 361.211L328.798 390.195L293.997 419.18L293.997 361.211ZM329.059 449.16L294.255 420.172L329.06 391.188L329.059 449.16ZM329.06 389.199L294.255 360.215L329.06 331.231L329.06 389.199ZM329.06 329.285L294.255 300.301L329.06 271.316L329.06 329.285ZM329.06 269.371L294.255 240.344L329.06 211.359L329.06 269.371ZM329.06 209.414L294.255 180.43L327.544 152.695L329.06 151.445L329.06 209.414ZM329.966 211.359L364.77 240.344L330.313 269.027L329.966 269.328L329.966 211.359ZM329.966 271.316L330.313 271.617L364.77 300.301L330.313 328.984L329.966 329.285L329.966 271.316ZM329.966 331.231L330.313 331.531L364.77 360.215L330.356 388.941L330.009 389.246L330.009 331.231L329.966 331.231ZM365.071 419.18L330.27 390.195L364.727 361.512L365.071 361.211L365.071 419.18ZM365.071 359.266L364.727 358.965L330.27 330.281L364.727 301.598L365.071 301.293L365.071 359.266ZM365.071 299.309L364.727 299.004L330.27 270.324L364.727 241.641L365.071 241.336L365.071 299.309ZM365.981 241.336L400.782 270.324L365.981 299.309L365.981 241.336ZM365.981 301.25L400.782 330.238L365.981 359.223L365.981 301.25ZM365.981 361.211L400.782 390.195L365.981 419.18L365.981 361.211ZM401.044 449.16L366.239 420.172L401.044 391.188L401.044 449.16ZM401.044 389.199L366.239 360.215L401.044 331.231L401.044 389.199ZM401.044 329.285L366.239 300.301L401.044 271.316L401.044 329.285ZM401.044 269.371L366.239 240.387L401.044 211.402L401.044 269.371ZM401.95 211.359L436.755 240.344L402.298 269.027L401.95 269.328L401.95 211.359ZM401.95 271.316L436.755 300.301L401.95 329.285L401.95 271.316ZM401.95 331.231L402.298 331.531L436.755 360.215L401.95 389.199L401.95 331.231ZM401.95 449.16L401.95 391.188L436.755 420.172L401.95 449.16ZM437.056 419.18L402.251 390.195L437.056 361.211L437.056 419.18ZM437.056 359.266L436.708 358.965L402.251 330.281L437.056 301.293L437.056 359.266ZM437.056 299.309L402.251 270.324L436.708 241.641L437.056 241.336L437.056 299.309ZM437.962 181.422L472.767 210.406L437.962 239.395L437.962 181.422ZM437.962 241.336L472.767 270.324L438.31 299.004L437.962 299.309L437.962 241.336ZM437.962 301.25L438.31 301.555L472.767 330.238L438.31 358.918L437.962 359.223L437.962 301.25ZM437.962 361.211L438.31 361.512L472.767 390.195L438.309 418.879L437.962 419.18L437.962 361.211ZM473.024 449.16L438.224 420.172L472.681 391.492L473.024 391.188L473.024 449.16ZM473.024 389.199L472.681 388.899L438.224 360.215L472.681 331.531L473.024 331.231L473.024 389.199ZM473.024 329.285L472.681 328.984L438.224 300.301L472.681 271.617L473.024 271.317L473.024 329.285ZM473.935 271.317L508.735 300.301L473.935 329.285L473.935 271.317ZM508.782 420.172L473.977 449.16L473.977 391.188L508.782 420.172ZM473.935 389.199L473.935 331.231L508.735 360.215L473.935 389.199ZM545.009 389.199L510.208 360.215L545.009 331.231L545.009 389.199Z" fill="#838383" fill-opacity="0.31"/>
</g>
</svg>
