<svg width="38" height="38" viewBox="0 0 38 38" fill="none" xmlns="http://www.w3.org/2000/svg">
<path d="M0 5C0 2.23858 2.23858 0 5 0H33C35.7614 0 38 2.23858 38 5V33C38 35.7614 35.7614 38 33 38H5C2.23858 38 0 35.7614 0 33V5Z" fill="url(#paint0_linear_412_3771)"/>
<path d="M12.8898 14.6758L8.6418 27H6.07344L11.425 12.7812H13.0656L12.8898 14.6758ZM16.4445 27L12.1867 14.6758L12.0012 12.7812H13.6516L19.0227 27H16.4445ZM16.2395 21.7266V23.6699H8.50508V21.7266H16.2395ZM26.1648 21.6973H22.4637V19.7539H26.1648C26.8094 19.7539 27.3302 19.6497 27.7273 19.4414C28.1245 19.2331 28.4142 18.9466 28.5965 18.582C28.7853 18.2109 28.8797 17.7878 28.8797 17.3125C28.8797 16.8633 28.7853 16.4434 28.5965 16.0527C28.4142 15.6556 28.1245 15.3366 27.7273 15.0957C27.3302 14.8548 26.8094 14.7344 26.1648 14.7344H23.2156V27H20.7645V12.7812H26.1648C27.2651 12.7812 28.1993 12.9766 28.9676 13.3672C29.7423 13.7513 30.3315 14.2852 30.7352 14.9688C31.1388 15.6458 31.3406 16.4206 31.3406 17.293C31.3406 18.2109 31.1388 18.9987 30.7352 19.6562C30.3315 20.3138 29.7423 20.8184 28.9676 21.1699C28.1993 21.5215 27.2651 21.6973 26.1648 21.6973Z" fill="white"/>
<defs>
<linearGradient id="paint0_linear_412_3771" x1="38" y1="-2.26498e-06" x2="2.26498e-06" y2="38" gradientUnits="userSpaceOnUse">
<stop stop-color="#7267AA"/>
<stop offset="1" stop-color="#B05B9F"/>
</linearGradient>
</defs>
</svg>
