<svg width="25" height="25" viewBox="0 0 25 25" fill="none" xmlns="http://www.w3.org/2000/svg">
<mask id="mask0_108_168" style="mask-type:alpha" maskUnits="userSpaceOnUse" x="0" y="0" width="25" height="25">
<rect x="0.44397" y="0.850304" width="24" height="24" fill="#D9D9D9"/>
</mask>
<g mask="url(#mask0_108_168)">
<path d="M7.44397 21.8503C6.89397 21.8503 6.42314 21.6545 6.03147 21.2628C5.6398 20.8711 5.44397 20.4003 5.44397 19.8503V6.8503H4.44397V4.8503H9.44397V3.8503H15.444V4.8503H20.444V6.8503H19.444V19.8503C19.444 20.4003 19.2481 20.8711 18.8565 21.2628C18.4648 21.6545 17.994 21.8503 17.444 21.8503H7.44397ZM9.44397 17.8503H11.444V8.8503H9.44397V17.8503ZM13.444 17.8503H15.444V8.8503H13.444V17.8503Z" fill="white"/>
</g>
</svg>
