<svg width="84" height="84" viewBox="0 0 84 84" fill="none" xmlns="http://www.w3.org/2000/svg">
<circle cx="42" cy="42" r="42" fill="url(#paint0_linear_894440_636)"/>
<path d="M38.0305 41.0227C37.8555 41.0052 37.6455 41.0052 37.453 41.0227C33.288 40.8827 29.9805 37.4702 29.9805 33.2702C29.9805 28.9827 33.4455 25.5002 37.7505 25.5002C42.038 25.5002 45.5205 28.9827 45.5205 33.2702C45.503 37.4702 42.1955 40.8827 38.0305 41.0227Z" stroke="#2D3E4D" stroke-width="2.625" stroke-linecap="round" stroke-linejoin="round"/>
<path d="M50.7168 28.9998C54.1118 28.9998 56.8418 31.7473 56.8418 35.1248C56.8418 38.4323 54.2168 41.1273 50.9443 41.2498C50.8043 41.2323 50.6468 41.2323 50.4893 41.2498" stroke="#2D3E4D" stroke-width="2.625" stroke-linecap="round" stroke-linejoin="round"/>
<path d="M29.2807 47.4798C25.0457 50.3148 25.0457 54.9348 29.2807 57.7523C34.0932 60.9723 41.9857 60.9723 46.7982 57.7523C51.0332 54.9173 51.0332 50.2973 46.7982 47.4798C42.0032 44.2773 34.1107 44.2773 29.2807 47.4798Z" stroke="#2D3E4D" stroke-width="2.625" stroke-linecap="round" stroke-linejoin="round"/>
<path d="M54.0947 57.0002C55.3547 56.7377 56.5447 56.2302 57.5247 55.4777C60.2547 53.4302 60.2547 50.0527 57.5247 48.0052C56.5622 47.2702 55.3897 46.7802 54.1472 46.5002" stroke="#2D3E4D" stroke-width="2.625" stroke-linecap="round" stroke-linejoin="round"/>
<defs>
<linearGradient id="paint0_linear_894440_636" x1="74.55" y1="2.14197e-06" x2="42" y2="84" gradientUnits="userSpaceOnUse">
<stop stop-color="#D3FFE7"/>
<stop offset="1" stop-color="#EFFFF6"/>
</linearGradient>
</defs>
</svg>
