<svg width="25" height="25" viewBox="0 0 25 25" fill="none" xmlns="http://www.w3.org/2000/svg">
<mask id="mask0_869_3358" style="mask-type:alpha" maskUnits="userSpaceOnUse" x="0" y="0" width="25" height="25">
<rect x="0.886475" y="0.747803" width="24" height="24" fill="#D9D9D9"/>
</mask>
<g mask="url(#mask0_869_3358)">
<path d="M3.88647 22.7478C3.33647 22.7478 2.86564 22.552 2.47397 22.1603C2.08231 21.7686 1.88647 21.2978 1.88647 20.7478V8.7478C1.88647 8.1978 2.08231 7.72697 2.47397 7.3353C2.86564 6.94364 3.33647 6.7478 3.88647 6.7478H7.03647L8.88647 4.7478H14.8865V8.7478H17.8865V11.7478H21.8865V20.7478C21.8865 21.2978 21.6906 21.7686 21.299 22.1603C20.9073 22.552 20.4365 22.7478 19.8865 22.7478H3.88647ZM11.8865 19.2478C13.1365 19.2478 14.199 18.8103 15.074 17.9353C15.949 17.0603 16.3865 15.9978 16.3865 14.7478C16.3865 13.4978 15.949 12.4353 15.074 11.5603C14.199 10.6853 13.1365 10.2478 11.8865 10.2478C10.6365 10.2478 9.57397 10.6853 8.69897 11.5603C7.82397 12.4353 7.38647 13.4978 7.38647 14.7478C7.38647 15.9978 7.82397 17.0603 8.69897 17.9353C9.57397 18.8103 10.6365 19.2478 11.8865 19.2478ZM11.8865 17.2478C11.1865 17.2478 10.5948 17.0061 10.1115 16.5228C9.62814 16.0395 9.38647 15.4478 9.38647 14.7478C9.38647 14.0478 9.62814 13.4561 10.1115 12.9728C10.5948 12.4895 11.1865 12.2478 11.8865 12.2478C12.5865 12.2478 13.1781 12.4895 13.6615 12.9728C14.1448 13.4561 14.3865 14.0478 14.3865 14.7478C14.3865 15.4478 14.1448 16.0395 13.6615 16.5228C13.1781 17.0061 12.5865 17.2478 11.8865 17.2478ZM19.8865 8.7478V6.7478H17.8865V4.7478H19.8865V2.7478H21.8865V4.7478H23.8865V6.7478H21.8865V8.7478H19.8865Z" fill="white"/>
</g>
</svg>
