<svg width="26" height="26" viewBox="0 0 26 26" fill="none" xmlns="http://www.w3.org/2000/svg">
<g clip-path="url(#clip0_748_3330)">
<path d="M19.1266 7.67729C18.9826 7.45498 18.808 7.30344 18.6454 7.2009C18.6445 6.92494 18.6263 6.53467 18.5607 6.08457C18.605 5.54752 18.76 2.59034 16.9507 1.25705C15.8347 0.434638 14.5921 0 13.3572 0C12.3535 0 11.3976 0.285238 10.6655 0.80314C10.0061 1.26966 9.64299 1.77709 9.45077 2.13429C8.88219 2.1544 7.70425 2.38623 7.18325 3.88819C6.69033 5.30891 7.08833 6.18663 7.38106 6.59343C7.36191 6.82871 7.35501 7.03557 7.35454 7.20079C7.19194 7.30332 7.01732 7.45486 6.87327 7.67717C6.54735 8.18021 6.49192 8.85476 6.70841 9.68253C7.11319 11.2303 8.05776 11.571 8.56175 11.6393C8.8722 12.26 9.55449 13.5285 10.2373 14.1658C10.51 14.4204 10.8646 14.6352 11.2911 14.8046C11.8356 15.0206 12.4106 15.1301 13 15.1301C13.5893 15.1301 14.1643 15.0206 14.7088 14.8046C15.1353 14.6352 15.4899 14.4204 15.7626 14.1658C16.4454 13.5285 17.1277 12.26 17.4382 11.6393C17.942 11.571 18.8866 11.2302 19.2915 9.68241C19.508 8.85488 19.4526 8.18021 19.1266 7.67729ZM18.1407 9.38159C17.894 10.3251 17.453 10.4659 17.212 10.4659C17.1949 10.4659 17.1821 10.465 17.1745 10.4644C16.8992 10.3948 16.6447 10.5394 16.5243 10.7984C16.2888 11.3046 15.5468 12.7403 14.9511 13.2964C14.7873 13.4493 14.5581 13.5849 14.27 13.6992C13.4616 14.02 12.5382 14.02 11.7299 13.6992C11.4418 13.5849 11.2126 13.4493 11.0488 13.2964C10.4531 12.7403 9.71115 11.3046 9.47563 10.7984C9.37547 10.5831 9.1829 10.4471 8.96248 10.4471C8.91776 10.4471 8.87185 10.4527 8.82534 10.4645C8.81772 10.4652 8.80488 10.466 8.78787 10.466C8.547 10.466 8.10605 10.3251 7.85924 9.38182C7.73779 8.91757 7.73886 8.54728 7.86209 8.33936C7.93382 8.21851 8.03564 8.17783 8.06894 8.16736C8.38808 8.13275 8.5803 7.85334 8.55366 7.53134C8.55306 7.52349 8.53225 7.24706 8.55865 6.82634C8.96796 6.65041 9.62193 6.30344 10.1733 5.70798C10.4539 5.40478 10.6592 5.03331 10.8054 4.69252C11.2039 5.01796 11.7682 5.40038 12.5149 5.73082C13.7937 6.29678 16.3494 6.56596 17.4283 6.6579C17.4729 7.1714 17.4468 7.52183 17.4461 7.53015C17.4181 7.8531 17.6106 8.13275 17.9308 8.16736C17.9641 8.17783 18.066 8.21863 18.1377 8.33936C18.261 8.54716 18.2621 8.91745 18.1407 9.38159ZM21.9546 17.3248L16.7548 15.245C16.6052 15.1853 16.4378 15.1888 16.2905 15.2545C16.1435 15.3206 16.0295 15.4434 15.9747 15.595L14.6676 19.2089L14.4088 18.4647L14.8206 17.4581C14.8955 17.2747 14.8743 17.0659 14.7638 16.9013C14.6533 16.7368 14.4683 16.638 14.2701 16.638H11.7299C11.5318 16.638 11.3466 16.7368 11.2362 16.9013C11.1257 17.0659 11.1045 17.2747 11.1794 17.4581L11.5912 18.4647L11.3324 19.2089L10.0253 15.595C9.97057 15.4434 9.8565 15.3204 9.70948 15.2545C9.56222 15.1887 9.39474 15.1852 9.24522 15.245L4.04527 17.3248C2.44851 17.9635 1.41675 19.4876 1.41675 21.2074V25.4053C1.41675 25.7338 1.68307 26 2.01149 26H23.9884C24.3168 26 24.5832 25.7338 24.5832 25.4053V21.2074C24.5832 19.4876 23.5514 17.9636 21.9546 17.3248ZM21.774 22.9235C21.774 23.2521 21.5076 23.5183 21.1792 23.5183H17.1861C16.8577 23.5183 16.5914 23.2521 16.5914 22.9235V21.0691C16.5914 20.7406 16.8577 20.4744 17.1861 20.4744H21.1792C21.5076 20.4744 21.774 20.7406 21.774 21.0691V22.9235Z" fill="#425B71"/>
</g>
<defs>
<clipPath id="clip0_748_3330">
<rect width="26" height="26" fill="white"/>
</clipPath>
</defs>
</svg>
