<svg width="26" height="26" viewBox="0 0 26 26" fill="none" xmlns="http://www.w3.org/2000/svg">
<g clip-path="url(#clip0_748_3354)">
<path d="M12.9999 15.9792C13.9279 15.9792 14.7648 15.7625 15.5105 15.3292C16.2562 14.8959 16.8548 14.3181 17.3062 13.5959C16.6923 13.1264 16.0223 12.7743 15.2962 12.5396C14.5701 12.3049 13.8027 12.1875 12.9941 12.1875C12.1855 12.1875 11.4201 12.3049 10.6978 12.5396C9.97561 12.7743 9.30756 13.1264 8.69367 13.5959C9.14506 14.3181 9.74361 14.8959 10.4893 15.3292C11.2351 15.7625 12.0719 15.9792 12.9999 15.9792ZM13.0023 10.5625C13.5243 10.5625 13.9704 10.3766 14.3405 10.0049C14.7107 9.63317 14.8958 9.1863 14.8958 8.66428C14.8958 8.14227 14.7099 7.6962 14.3381 7.32606C13.9664 6.95592 13.5195 6.77085 12.9975 6.77085C12.4755 6.77085 12.0294 6.95673 11.6593 7.32847C11.2892 7.7002 11.1041 8.14707 11.1041 8.6691C11.1041 9.1911 11.29 9.63717 11.6617 10.0073C12.0334 10.3774 12.4803 10.5625 13.0023 10.5625ZM12.9999 21.6938C15.4013 19.509 17.1753 17.5274 18.3218 15.749C19.4683 13.9705 20.0416 12.4042 20.0416 11.05C20.0416 8.92326 19.3619 7.18184 18.0024 5.82578C16.643 4.46972 14.9755 3.79169 12.9999 3.79169C11.0243 3.79169 9.35683 4.46972 7.99741 5.82578C6.63797 7.18184 5.95825 8.92326 5.95825 11.05C5.95825 12.4042 6.54506 13.9705 7.71867 15.749C8.89228 17.5274 10.6527 19.509 12.9999 21.6938ZM12.9999 23.8334C10.093 21.3597 7.92179 19.0622 6.48638 16.9406C5.05096 14.8191 4.33325 12.8556 4.33325 11.05C4.33325 8.34169 5.20443 6.18405 6.94679 4.5771C8.68915 2.97016 10.7069 2.16669 12.9999 2.16669C15.293 2.16669 17.3107 2.97016 19.053 4.5771C20.7954 6.18405 21.6666 8.34169 21.6666 11.05C21.6666 12.8556 20.9489 14.8191 19.5135 16.9406C18.078 19.0622 15.9069 21.3597 12.9999 23.8334Z" fill="#425B71"/>
<mask id="mask0_748_3354" style="mask-type:alpha" maskUnits="userSpaceOnUse" x="0" y="0" width="26" height="26">
<rect width="26" height="26" fill="#D9D9D9"/>
</mask>
<g mask="url(#mask0_748_3354)">
<path d="M12.9999 16.25C14.011 16.25 14.9228 16.0018 15.7353 15.5052C16.5478 15.0087 17.1888 14.3542 17.6583 13.5417C17.0263 13.0181 16.3131 12.6163 15.5187 12.3365C14.7242 12.0566 13.8846 11.9167 12.9999 11.9167C12.1152 11.9167 11.2756 12.0566 10.4812 12.3365C9.68672 12.6163 8.97353 13.0181 8.34159 13.5417C8.81103 14.3542 9.452 15.0087 10.2645 15.5052C11.077 16.0018 11.9888 16.25 12.9999 16.25ZM12.9999 10.8334C13.5958 10.8334 14.1058 10.6212 14.5301 10.1969C14.9544 9.77259 15.1666 9.26252 15.1666 8.66669C15.1666 8.07085 14.9544 7.56078 14.5301 7.13648C14.1058 6.71217 13.5958 6.50002 12.9999 6.50002C12.4041 6.50002 11.894 6.71217 11.4697 7.13648C11.0454 7.56078 10.8333 8.07085 10.8333 8.66669C10.8333 9.26252 11.0454 9.77259 11.4697 10.1969C11.894 10.6212 12.4041 10.8334 12.9999 10.8334ZM12.9999 20.9625C15.2027 18.9403 16.8367 17.1031 17.902 15.4511C18.9673 13.799 19.4999 12.332 19.4999 11.05C19.4999 9.08196 18.8725 7.47051 17.6176 6.21564C16.3628 4.96078 14.8235 4.33335 12.9999 4.33335C11.1763 4.33335 9.63707 4.96078 8.38221 6.21564C7.12735 7.47051 6.49992 9.08196 6.49992 11.05C6.49992 12.332 7.03256 13.799 8.09784 15.4511C9.16311 17.1031 10.7971 18.9403 12.9999 20.9625ZM12.9999 23.8334C10.093 21.3597 7.92179 19.0622 6.48638 16.9406C5.05096 14.8191 4.33325 12.8556 4.33325 11.05C4.33325 8.34169 5.20443 6.18405 6.94679 4.5771C8.68916 2.97016 10.7069 2.16669 12.9999 2.16669C15.293 2.16669 17.3107 2.97016 19.053 4.5771C20.7954 6.18405 21.6666 8.34169 21.6666 11.05C21.6666 12.8556 20.9489 14.8191 19.5135 16.9406C18.078 19.0622 15.9069 21.3597 12.9999 23.8334Z" fill="#425B71"/>
</g>
</g>
<defs>
<clipPath id="clip0_748_3354">
<rect width="26" height="26" fill="white"/>
</clipPath>
</defs>
</svg>
