<svg width="36" height="36" viewBox="0 0 36 36" fill="none" xmlns="http://www.w3.org/2000/svg">
<mask id="mask0_336_2338" style="mask-type:alpha" maskUnits="userSpaceOnUse" x="0" y="0" width="36" height="36">
<rect x="36" y="36" width="36" height="36" transform="rotate(-180 36 36)" fill="#D9D9D9"/>
</mask>
<g mask="url(#mask0_336_2338)">
<path d="M12 4.5C12.825 4.5 13.5313 4.79375 14.1187 5.38125C14.7062 5.96875 15 6.675 15 7.5V13.5C15 14.325 14.7062 15.0312 14.1187 15.6187C13.5313 16.2062 12.825 16.5 12 16.5L6 16.5C5.175 16.5 4.46875 16.2062 3.88125 15.6187C3.29375 15.0312 3 14.325 3 13.5V7.5C3 6.675 3.29375 5.96875 3.88125 5.38125C4.46875 4.79375 5.175 4.5 6 4.5H12ZM12 7.5H6V13.5H12V7.5ZM33 9V12H19.5L19.5 9H33ZM12 19.5C12.825 19.5 13.5312 19.7937 14.1187 20.3813C14.7062 20.9688 15 21.675 15 22.5V28.5C15 29.325 14.7062 30.0312 14.1187 30.6187C13.5312 31.2062 12.825 31.5 12 31.5H6C5.175 31.5 4.46875 31.2062 3.88125 30.6187C3.29375 30.0312 3 29.325 3 28.5V22.5C3 21.675 3.29375 20.9687 3.88125 20.3813C4.46875 19.7937 5.175 19.5 6 19.5L12 19.5ZM12 22.5L6 22.5V28.5H12V22.5ZM33 24V27H19.5V24H33Z" fill="#4F4545"/>
</g>
</svg>
