<svg width="83" height="105" viewBox="0 0 83 105" fill="none" xmlns="http://www.w3.org/2000/svg">
<path d="M41.5 31.5V0H10.375C7.62355 0 4.98467 1.10618 3.03884 3.07545C1.09301 5.04473 0 7.7154 0 10.5V94.5C0 97.2846 1.09301 99.9553 3.03884 101.925C4.98467 103.894 7.62355 105 10.375 105H72.625C75.3765 105 78.0153 103.894 79.9612 101.925C81.907 99.9553 83 97.2846 83 94.5V42H51.875C49.1236 42 46.4847 40.8938 44.5388 38.9245C42.593 36.9553 41.5 34.2846 41.5 31.5ZM15.5625 53.8125C15.5625 52.7683 15.9723 51.7666 16.7022 51.0284C17.4316 50.2897 18.4213 49.875 19.4531 49.875C20.4849 49.875 21.4747 50.2897 22.2041 51.0284C22.9339 51.7666 23.3438 52.7683 23.3438 53.8125C23.3438 54.8567 22.9339 55.8584 22.2041 56.5966C21.4747 57.3352 20.4849 57.75 19.4531 57.75C18.4213 57.75 17.4316 57.3352 16.7022 56.5966C15.9723 55.8584 15.5625 54.8567 15.5625 53.8125ZM15.5625 69.5625C15.5625 68.5183 15.9723 67.5166 16.7022 66.7784C17.4316 66.0397 18.4213 65.625 19.4531 65.625C20.4849 65.625 21.4747 66.0397 22.2041 66.7784C22.9339 67.5166 23.3438 68.5183 23.3438 69.5625C23.3438 70.6067 22.9339 71.6084 22.2041 72.3466C21.4747 73.0853 20.4849 73.5 19.4531 73.5C18.4213 73.5 17.4316 73.0853 16.7022 72.3466C15.9723 71.6084 15.5625 70.6067 15.5625 69.5625ZM15.5625 85.3125C15.5625 84.2683 15.9723 83.2666 16.7022 82.5284C17.4316 81.7897 18.4213 81.375 19.4531 81.375C20.4849 81.375 21.4747 81.7897 22.2041 82.5284C22.9339 83.2666 23.3438 84.2683 23.3438 85.3125C23.3438 86.3567 22.9339 87.3584 22.2041 88.0966C21.4747 88.8353 20.4849 89.25 19.4531 89.25C18.4213 89.25 17.4316 88.8353 16.7022 88.0966C15.9723 87.3584 15.5625 86.3567 15.5625 85.3125ZM31.125 53.8125C31.125 52.7683 31.5348 51.7666 32.2647 51.0284C32.9941 50.2897 33.9838 49.875 35.0156 49.875H63.5469C64.5787 49.875 65.5684 50.2897 66.2978 51.0284C67.0277 51.7666 67.4375 52.7683 67.4375 53.8125C67.4375 54.8567 67.0277 55.8584 66.2978 56.5966C65.5684 57.3352 64.5787 57.75 63.5469 57.75H35.0156C33.9838 57.75 32.9941 57.3352 32.2647 56.5966C31.5348 55.8584 31.125 54.8567 31.125 53.8125ZM31.125 69.5625C31.125 68.5183 31.5348 67.5166 32.2647 66.7784C32.9941 66.0397 33.9838 65.625 35.0156 65.625H63.5469C64.5787 65.625 65.5684 66.0397 66.2978 66.7784C67.0277 67.5166 67.4375 68.5183 67.4375 69.5625C67.4375 70.6067 67.0277 71.6084 66.2978 72.3466C65.5684 73.0853 64.5787 73.5 63.5469 73.5H35.0156C33.9838 73.5 32.9941 73.0853 32.2647 72.3466C31.5348 71.6084 31.125 70.6067 31.125 69.5625ZM31.125 85.3125C31.125 84.2683 31.5348 83.2666 32.2647 82.5284C32.9941 81.7897 33.9838 81.375 35.0156 81.375H63.5469C64.5787 81.375 65.5684 81.7897 66.2978 82.5284C67.0277 83.2666 67.4375 84.2683 67.4375 85.3125C67.4375 86.3567 67.0277 87.3584 66.2978 88.0966C65.5684 88.8353 64.5787 89.25 63.5469 89.25H35.0156C33.9838 89.25 32.9941 88.8353 32.2647 88.0966C31.5348 87.3584 31.125 86.3567 31.125 85.3125ZM49.2813 31.5V2.625L80.4062 34.125H51.875C51.1871 34.125 50.5273 33.8483 50.0407 33.3564C49.5546 32.8639 49.2813 32.1961 49.2813 31.5Z" fill="#FF6F43"/>
</svg>
