<svg width="13" height="13" viewBox="0 0 13 13" fill="none" xmlns="http://www.w3.org/2000/svg">
<mask id="mask0_891_3620" style="mask-type:alpha" maskUnits="userSpaceOnUse" x="0" y="0" width="13" height="13">
<rect width="13" height="13" fill="#D9D9D9"/>
</mask>
<g mask="url(#mask0_891_3620)">
<path d="M2.20592 10.9434C1.86483 10.9434 1.57417 10.8233 1.33395 10.5831C1.09374 10.3429 0.973633 10.0522 0.973633 9.71113V3.28885C0.973633 2.94776 1.09375 2.6571 1.33398 2.41688C1.57419 2.17666 1.86484 2.05655 2.20594 2.05655H10.7949C11.136 2.05655 11.4266 2.17666 11.6669 2.41688C11.9071 2.6571 12.0272 2.94776 12.0272 3.28885V9.71113C12.0272 10.0522 11.9071 10.3429 11.6669 10.5831C11.4266 10.8233 11.136 10.9434 10.7949 10.9434H2.20592ZM6.50039 7.18091L2.20592 4.47257V9.71113H10.7949V4.47257L6.50039 7.18091ZM6.50039 5.99719L10.7949 3.28885H2.20592L6.50039 5.99719ZM2.20592 4.47257V3.28885V9.71113V4.47257Z" fill="#4B4B4B"/>
</g>
</svg>
