<svg width="144" height="131" viewBox="0 0 144 131" fill="none" xmlns="http://www.w3.org/2000/svg">
<path d="M6 112.899V47.1438C6 42.8931 8.43276 38.9541 12.4087 36.7671L65.2086 7.72445C69.389 5.42517 74.611 5.42517 78.7914 7.72451L131.591 36.7672C135.567 38.9541 138 42.8931 138 47.1438V112.899C138 119.582 132.09 125 124.8 125H19.2C11.9098 125 6 119.582 6 112.899Z" fill="#425B71" stroke="#425B71" stroke-width="10.8403"/>
<path d="M77.896 24.512C81.608 24.512 84.824 25.2 87.544 26.576C90.264 27.952 92.344 29.888 93.784 32.384C95.256 34.88 95.992 37.76 95.992 41.024C95.992 43.648 95.528 46.128 94.6 48.464C93.704 50.8 92.392 52.688 90.664 54.128C88.936 55.568 86.888 56.288 84.52 56.288C82.856 56.288 81.512 55.952 80.488 55.28C79.464 54.576 78.808 53.584 78.52 52.304C77.592 53.552 76.392 54.544 74.92 55.28C73.448 55.984 71.896 56.336 70.264 56.336C67.832 56.336 65.928 55.616 64.552 54.176C63.176 52.704 62.488 50.704 62.488 48.176C62.488 45.776 62.984 43.536 63.976 41.456C64.968 39.376 66.344 37.712 68.104 36.464C69.864 35.184 71.848 34.544 74.056 34.544C76.808 34.544 78.696 35.504 79.72 37.424L80.152 34.928H85.768L83.512 47.888C83.416 48.496 83.368 49.056 83.368 49.568C83.368 50.336 83.528 50.912 83.848 51.296C84.168 51.68 84.712 51.872 85.48 51.872C86.632 51.872 87.592 51.328 88.36 50.24C89.16 49.152 89.752 47.792 90.136 46.16C90.552 44.528 90.76 42.896 90.76 41.264C90.76 37.392 89.576 34.4 87.208 32.288C84.84 30.144 81.496 29.072 77.176 29.072C73.496 29.072 70.168 29.968 67.192 31.76C64.216 33.52 61.88 35.936 60.184 39.008C58.52 42.048 57.688 45.44 57.688 49.184C57.688 53.152 58.856 56.208 61.192 58.352C63.56 60.496 66.904 61.568 71.224 61.568C74.328 61.568 77.064 61.008 79.432 59.888L80.392 64.304C77.352 65.584 73.976 66.224 70.264 66.224C66.68 66.224 63.544 65.536 60.856 64.16C58.168 62.816 56.088 60.896 54.616 58.4C53.144 55.904 52.408 53.008 52.408 49.712C52.408 45.008 53.496 40.736 55.672 36.896C57.88 33.056 60.92 30.032 64.792 27.824C68.696 25.616 73.064 24.512 77.896 24.512ZM72.376 51.344C73.528 51.344 74.584 51.008 75.544 50.336C76.504 49.664 77.256 48.768 77.8 47.648C78.376 46.528 78.664 45.328 78.664 44.048C78.664 42.704 78.296 41.616 77.56 40.784C76.824 39.952 75.8 39.536 74.488 39.536C73.304 39.536 72.264 39.904 71.368 40.64C70.472 41.344 69.768 42.272 69.256 43.424C68.776 44.576 68.536 45.792 68.536 47.072C68.536 48.384 68.856 49.424 69.496 50.192C70.136 50.96 71.096 51.344 72.376 51.344Z" fill="white"/>
<path d="M39 66L72 87.1769L105 66" stroke="white" stroke-width="10.8403" stroke-linecap="round" stroke-linejoin="round"/>
</svg>
