<svg width="38" height="38" viewBox="0 0 38 38" fill="none" xmlns="http://www.w3.org/2000/svg">
<path d="M0 5C0 2.23858 2.23858 0 5 0H33C35.7614 0 38 2.23858 38 5V33C38 35.7614 35.7614 38 33 38H5C2.23858 38 0 35.7614 0 33V5Z" fill="url(#paint0_linear_412_3773)"/>
<path d="M17.4895 24.0566V26H9.94063V24.0566H17.4895ZM10.634 11.7812V26H8.18281V11.7812H10.634ZM16.5031 17.7188V19.6328H9.94063V17.7188H16.5031ZM17.4406 11.7812V13.7344H9.94063V11.7812H17.4406ZM23.7723 26H20.7352L20.7547 24.0566H23.7723C24.6512 24.0566 25.3868 23.8646 25.9793 23.4805C26.5783 23.0964 27.0275 22.5462 27.327 21.8301C27.6329 21.1139 27.7859 20.2611 27.7859 19.2715V18.5C27.7859 17.7318 27.698 17.0514 27.5223 16.459C27.353 15.8665 27.0991 15.3685 26.7605 14.9648C26.4285 14.5612 26.0184 14.2552 25.5301 14.0469C25.0483 13.8385 24.4917 13.7344 23.8602 13.7344H20.6766V11.7812H23.8602C24.8042 11.7812 25.6668 11.9408 26.448 12.2598C27.2293 12.5723 27.9031 13.0247 28.4695 13.6172C29.0424 14.2096 29.4819 14.9193 29.7879 15.7461C30.0939 16.5729 30.2469 17.4974 30.2469 18.5195V19.2715C30.2469 20.2936 30.0939 21.2181 29.7879 22.0449C29.4819 22.8717 29.0424 23.5814 28.4695 24.1738C27.8966 24.7598 27.213 25.2122 26.4187 25.5312C25.631 25.8438 24.7488 26 23.7723 26ZM22.0926 11.7812V26H19.6414V11.7812H22.0926Z" fill="white"/>
<defs>
<linearGradient id="paint0_linear_412_3773" x1="38" y1="-2.26498e-06" x2="2.26498e-06" y2="38" gradientUnits="userSpaceOnUse">
<stop stop-color="#7BAEE1"/>
<stop offset="1" stop-color="#9ED6E7"/>
</linearGradient>
</defs>
</svg>
