<svg width="40" height="40" viewBox="0 0 40 40" fill="none" xmlns="http://www.w3.org/2000/svg">
<path d="M40 0H0V40H40V0Z" fill="#F8CF40"/>
<path d="M20 16V10H14C13.4696 10 12.9609 10.2107 12.5858 10.5858C12.2107 10.9609 12 11.4696 12 12V28C12 28.5304 12.2107 29.0391 12.5858 29.4142C12.9609 29.7893 13.4696 30 14 30H26C26.5304 30 27.0391 29.7893 27.4142 29.4142C27.7893 29.0391 28 28.5304 28 28V18H22C21.4696 18 20.9609 17.7893 20.5858 17.4142C20.2107 17.0391 20 16.5304 20 16ZM15 20.25C15 20.0511 15.079 19.8603 15.2197 19.7197C15.3603 19.579 15.5511 19.5 15.75 19.5C15.9489 19.5 16.1397 19.579 16.2803 19.7197C16.421 19.8603 16.5 20.0511 16.5 20.25C16.5 20.4489 16.421 20.6397 16.2803 20.7803C16.1397 20.921 15.9489 21 15.75 21C15.5511 21 15.3603 20.921 15.2197 20.7803C15.079 20.6397 15 20.4489 15 20.25ZM15 23.25C15 23.0511 15.079 22.8603 15.2197 22.7197C15.3603 22.579 15.5511 22.5 15.75 22.5C15.9489 22.5 16.1397 22.579 16.2803 22.7197C16.421 22.8603 16.5 23.0511 16.5 23.25C16.5 23.4489 16.421 23.6397 16.2803 23.7803C16.1397 23.921 15.9489 24 15.75 24C15.5511 24 15.3603 23.921 15.2197 23.7803C15.079 23.6397 15 23.4489 15 23.25ZM15 26.25C15 26.0511 15.079 25.8603 15.2197 25.7197C15.3603 25.579 15.5511 25.5 15.75 25.5C15.9489 25.5 16.1397 25.579 16.2803 25.7197C16.421 25.8603 16.5 26.0511 16.5 26.25C16.5 26.4489 16.421 26.6397 16.2803 26.7803C16.1397 26.921 15.9489 27 15.75 27C15.5511 27 15.3603 26.921 15.2197 26.7803C15.079 26.6397 15 26.4489 15 26.25ZM18 20.25C18 20.0511 18.079 19.8603 18.2197 19.7197C18.3603 19.579 18.5511 19.5 18.75 19.5H24.25C24.4489 19.5 24.6397 19.579 24.7803 19.7197C24.921 19.8603 25 20.0511 25 20.25C25 20.4489 24.921 20.6397 24.7803 20.7803C24.6397 20.921 24.4489 21 24.25 21H18.75C18.5511 21 18.3603 20.921 18.2197 20.7803C18.079 20.6397 18 20.4489 18 20.25ZM18 23.25C18 23.0511 18.079 22.8603 18.2197 22.7197C18.3603 22.579 18.5511 22.5 18.75 22.5H24.25C24.4489 22.5 24.6397 22.579 24.7803 22.7197C24.921 22.8603 25 23.0511 25 23.25C25 23.4489 24.921 23.6397 24.7803 23.7803C24.6397 23.921 24.4489 24 24.25 24H18.75C18.5511 24 18.3603 23.921 18.2197 23.7803C18.079 23.6397 18 23.4489 18 23.25ZM18 26.25C18 26.0511 18.079 25.8603 18.2197 25.7197C18.3603 25.579 18.5511 25.5 18.75 25.5H24.25C24.4489 25.5 24.6397 25.579 24.7803 25.7197C24.921 25.8603 25 26.0511 25 26.25C25 26.4489 24.921 26.6397 24.7803 26.7803C24.6397 26.921 24.4489 27 24.25 27H18.75C18.5511 27 18.3603 26.921 18.2197 26.7803C18.079 26.6397 18 26.4489 18 26.25ZM21.5 16V10.5L27.5 16.5H22C21.8674 16.5 21.7402 16.4473 21.6464 16.3536C21.5527 16.2598 21.5 16.1326 21.5 16Z" fill="white"/>
</svg>
