<svg width="26" height="26" viewBox="0 0 26 26" fill="none" xmlns="http://www.w3.org/2000/svg">
<g clip-path="url(#clip0_748_3362)">
<path d="M2.16659 20.5833V8.66667H1.08325V6.5H4.33325V4.33333C4.33325 4.04602 4.44739 3.77047 4.65055 3.5673C4.85372 3.36414 5.12927 3.25 5.41658 3.25H20.5833C20.8706 3.25 21.1461 3.36414 21.3493 3.5673C21.5524 3.77047 21.6666 4.04602 21.6666 4.33333V6.5H24.9166V8.66667H23.8333V20.5833H24.9166V22.75H1.08325V20.5833H2.16659ZM14.0833 20.5833V13H11.9166V20.5833H14.0833ZM8.66658 20.5833V13H6.49992V20.5833H8.66658ZM19.4999 20.5833V13H17.3333V20.5833H19.4999ZM6.49992 5.41667V6.5H19.4999V5.41667H6.49992Z" fill="#425B71"/>
</g>
<defs>
<clipPath id="clip0_748_3362">
<rect width="26" height="26" fill="white"/>
</clipPath>
</defs>
</svg>
