<svg width="335" height="126" viewBox="0 0 335 126" fill="none" xmlns="http://www.w3.org/2000/svg">
<g clip-path="url(#clip0_658_3206)">
<path d="M-0.000658743 41.4727L-0.00231825 35.8447C-0.00618927 23.108 10.3068 12.7798 23.0324 12.7758L28.6557 12.7742L28.6644 41.464L-0.000658743 41.4727Z" fill="#A60453"/>
<path d="M-0.000576517 42.5635L0.00817871 71.2533L28.6732 71.2446L28.6644 42.5548L-0.000576517 42.5635Z" fill="#D0154C"/>
<path d="M23.0589 101.027C10.3332 101.031 0.0139235 90.7091 0.00996029 77.9726L0.00830078 72.3437L28.6733 72.3354L28.6821 101.025L23.0589 101.027Z" fill="#FF2941"/>
<path d="M29.7455 12.7741L58.4109 12.7653L58.4192 41.4551L29.7543 41.4639L29.7455 12.7741Z" fill="#D0154C"/>
<path d="M88.1828 72.3179L88.1846 77.9459C88.1883 90.6824 77.8757 101.01 65.1502 101.015L59.5271 101.016L59.5179 72.3262L88.1828 72.3179Z" fill="#FFB144"/>
<path d="M88.1833 71.2268L88.1745 42.537L59.5095 42.5458L59.5182 71.2356L88.1833 71.2268Z" fill="#FF6F43"/>
<path d="M29.7718 101.026L58.4368 101.017L58.4278 72.327L29.7628 72.336L29.7718 101.026Z" fill="#FF6F43"/>
<path d="M79.3458 2.8044C91.2086 7.4136 97.0926 20.7753 92.487 32.6488L89.6851 39.8729L60.987 28.7228L72.1272 0L79.3458 2.8044Z" fill="#FF2941"/>
<path d="M127.953 59.6763H110.519L110.46 47.263H125.321C127.661 47.263 129.571 46.8726 131.053 46.0919C132.575 45.2721 133.687 44.0815 134.388 42.52C135.129 40.9195 135.5 38.9871 135.5 36.723C135.5 34.1075 135.169 32.0191 134.505 30.4576C133.842 28.8571 132.77 27.686 131.288 26.9443C129.805 26.2026 127.875 25.8318 125.496 25.8318H116.369V96.8592H99.2272V11.6029H125.496C129.747 11.6029 133.55 12.0713 136.904 13.0082C140.258 13.945 143.105 15.3699 145.445 17.2827C147.786 19.1956 149.561 21.6158 150.77 24.5436C152.018 27.4713 152.642 30.926 152.642 34.9078C152.642 38.4211 151.939 41.6612 150.536 44.6279C149.131 47.5948 146.928 50.015 143.925 51.8888C140.96 53.7626 137.079 54.8168 132.282 55.0511L127.953 59.6763ZM127.368 96.8592H105.662L112.508 82.6892H127.368C129.63 82.6892 131.464 82.2012 132.867 81.2252C134.271 80.2492 135.286 78.9412 135.91 77.302C136.534 75.6231 136.845 73.7108 136.845 71.5633C136.845 69.1427 136.553 67.0349 135.968 65.2397C135.422 63.4437 134.505 62.0775 133.218 61.1403C131.931 60.1643 130.195 59.6763 128.011 59.6763H113.268L113.385 47.263H131.288L135.324 52.1816C139.888 52.0255 143.535 52.9038 146.265 54.8168C148.995 56.6903 150.945 59.1496 152.115 62.1947C153.325 65.2001 153.929 68.401 153.929 71.7976C153.929 77.2623 152.895 81.8691 150.828 85.6162C148.8 89.3254 145.816 92.1352 141.877 94.0484C137.937 95.922 133.101 96.8592 127.368 96.8592ZM213.779 82.6892V96.8592H178.384V82.6892H213.779ZM183.65 11.6029V96.8592H166.507V11.6029H183.65ZM245.605 11.6029V96.8592H228.581V11.6029H245.605ZM266.784 11.6029V25.8318H207.811V11.6029H266.784ZM311.833 74.4321C311.833 72.9101 311.696 71.5245 311.423 70.2755C311.15 69.0256 310.565 67.8743 309.668 66.8199C308.81 65.7665 307.542 64.7121 305.865 63.6586C304.227 62.6043 302.082 61.5111 299.43 60.3793C296.27 59.0518 293.209 57.6469 290.245 56.1636C287.28 54.6406 284.609 52.8842 282.23 50.8933C279.85 48.9025 277.959 46.5603 276.554 43.8667C275.189 41.1342 274.507 37.9332 274.507 34.2637C274.507 30.6724 275.15 27.4127 276.437 24.485C277.763 21.5573 279.636 19.0588 282.054 16.9899C284.472 14.882 287.3 13.262 290.537 12.1299C293.813 10.9978 297.46 10.4317 301.477 10.4317C306.938 10.4317 311.657 11.5638 315.636 13.828C319.653 16.0921 322.754 19.1956 324.938 23.1382C327.161 27.0809 328.273 31.6092 328.273 36.723H311.19C311.19 34.3027 310.838 32.1752 310.136 30.3405C309.473 28.4667 308.401 27.0029 306.919 25.9489C305.436 24.8948 303.525 24.3679 301.185 24.3679C299 24.3679 297.188 24.8168 295.744 25.7146C294.34 26.5735 293.287 27.7641 292.585 29.2865C291.922 30.77 291.59 32.4485 291.59 34.3223C291.59 35.7276 291.922 36.9962 292.585 38.1283C293.287 39.2213 294.243 40.2168 295.451 41.1147C296.66 41.9734 298.084 42.8128 299.722 43.6325C301.4 44.4523 303.233 45.2525 305.222 46.0333C309.083 47.5557 312.496 49.2343 315.46 51.0691C318.424 52.8647 320.901 54.8943 322.89 57.1589C324.879 59.3839 326.381 61.9013 327.395 64.7121C328.409 67.5229 328.916 70.7238 328.916 74.315C328.916 77.8674 328.292 81.108 327.044 84.036C325.835 86.9242 324.06 89.4223 321.72 91.531C319.38 93.5992 316.552 95.1997 313.237 96.3325C309.961 97.4643 306.295 98.0298 302.238 98.0298C298.299 98.0298 294.574 97.4837 291.064 96.3906C287.553 95.2587 284.453 93.5605 281.761 91.2967C279.109 88.9933 277.022 86.0848 275.501 82.572C273.98 79.0196 273.219 74.8233 273.219 69.9822H290.362C290.362 72.5586 290.615 74.7642 291.122 76.599C291.629 78.3951 292.41 79.8387 293.462 80.9319C294.516 81.9862 295.802 82.786 297.324 83.3331C298.883 83.8404 300.659 84.0941 302.647 84.0941C304.909 84.0941 306.704 83.6651 308.03 82.8063C309.395 81.9475 310.37 80.7953 310.955 79.3508C311.54 77.9071 311.833 76.2669 311.833 74.4321Z" fill="#2D3E4D"/>
<path d="M6.87161 115.394H3.28198L3.26262 113.621H6.3975C6.92645 113.621 7.37475 113.544 7.7425 113.389C8.1166 113.227 8.40038 112.999 8.59394 112.702C8.78749 112.398 8.88417 112.034 8.88417 111.608C8.88417 111.136 8.79394 110.752 8.61329 110.455C8.43265 110.158 8.15531 109.942 7.78121 109.806C7.41346 109.67 6.94258 109.603 6.36847 109.603H4.01728V121.766H1.58868V107.666H6.36847C7.14258 107.666 7.83282 107.741 8.4391 107.889C9.05192 108.038 9.57119 108.269 9.99691 108.586C10.4291 108.896 10.7549 109.289 10.9742 109.767C11.2 110.245 11.3128 110.813 11.3128 111.472C11.3128 112.053 11.1742 112.585 10.8967 113.07C10.6194 113.548 10.2098 113.938 9.66797 114.241C9.12611 114.545 8.452 114.726 7.64573 114.784L6.87161 115.394ZM6.76525 121.766H2.51754L3.61092 119.839H6.76525C7.31355 119.839 7.77153 119.748 8.13918 119.568C8.50684 119.38 8.78104 119.126 8.96159 118.803C9.14869 118.474 9.24224 118.089 9.24224 117.651C9.24224 117.192 9.1616 116.795 9.0003 116.459C8.83901 116.117 8.58426 115.856 8.23596 115.675C7.88757 115.488 7.43282 115.394 6.87161 115.394H4.1431L4.16245 113.621H7.71346L8.265 114.29C9.03902 114.316 9.67442 114.487 10.1711 114.803C10.6742 115.119 11.0483 115.53 11.2935 116.033C11.5386 116.536 11.6612 117.079 11.6612 117.66C11.6612 118.558 11.4644 119.309 11.0709 119.916C10.6839 120.523 10.1259 120.985 9.39699 121.301C8.66813 121.611 7.79088 121.766 6.76525 121.766ZM19.7791 119.664V114.667C19.7791 114.293 19.7114 113.97 19.5759 113.699C19.4405 113.428 19.234 113.218 18.9567 113.07C18.6858 112.921 18.3438 112.847 17.931 112.847C17.5505 112.847 17.2215 112.912 16.9441 113.041C16.6668 113.169 16.4506 113.344 16.2958 113.563C16.141 113.783 16.0636 114.032 16.0636 114.31H13.7415C13.7415 113.896 13.8414 113.496 14.0414 113.108C14.2414 112.721 14.5316 112.376 14.9122 112.073C15.2927 111.769 15.7476 111.53 16.2764 111.356C16.8054 111.181 17.3989 111.094 18.0568 111.094C18.8438 111.094 19.5405 111.227 20.1468 111.491C20.7595 111.756 21.2401 112.157 21.5885 112.692C21.9432 113.221 22.1207 113.886 22.1207 114.687V119.345C22.1207 119.823 22.1529 120.252 22.2174 120.633C22.2883 121.008 22.3883 121.333 22.5174 121.611V121.766H20.1275C20.0178 121.514 19.9307 121.195 19.8662 120.807C19.8081 120.414 19.7791 120.033 19.7791 119.664ZM20.1178 115.394L20.1371 116.837H18.4632C18.031 116.837 17.6505 116.879 17.3214 116.963C16.9925 117.04 16.7184 117.156 16.499 117.311C16.2797 117.466 16.1152 117.653 16.0056 117.873C15.8959 118.093 15.841 118.341 15.841 118.618C15.841 118.896 15.9056 119.152 16.0346 119.384C16.1636 119.61 16.3506 119.787 16.5958 119.916C16.8473 120.045 17.1506 120.11 17.5053 120.11C17.9826 120.11 18.3987 120.013 18.7534 119.819C19.1147 119.619 19.3985 119.378 19.605 119.093C19.8113 118.803 19.921 118.528 19.9339 118.27L20.6887 119.307C20.6112 119.571 20.479 119.855 20.2919 120.159C20.1049 120.462 19.8597 120.752 19.5566 121.03C19.2598 121.301 18.9018 121.524 18.4826 121.699C18.0697 121.873 17.5924 121.96 17.0506 121.96C16.3668 121.96 15.7573 121.824 15.2219 121.553C14.6865 121.275 14.2672 120.904 13.964 120.439C13.6608 119.968 13.5092 119.436 13.5092 118.842C13.5092 118.286 13.6124 117.796 13.8188 117.369C14.0317 116.937 14.3413 116.575 14.7478 116.285C15.1606 115.994 15.6637 115.774 16.2572 115.626C16.8506 115.472 17.5279 115.394 18.289 115.394H20.1178ZM26.9005 113.283V121.766H24.5686V111.288H26.794L26.9005 113.283ZM30.1032 111.22L30.0838 113.389C29.9419 113.363 29.787 113.344 29.6194 113.331C29.4581 113.318 29.2968 113.311 29.1356 113.311C28.7356 113.311 28.3841 113.37 28.0809 113.486C27.7777 113.596 27.523 113.757 27.3165 113.97C27.1166 114.177 26.9618 114.429 26.8521 114.726C26.7424 115.023 26.6779 115.356 26.6586 115.723L26.1264 115.762C26.1264 115.104 26.1909 114.493 26.3199 113.931C26.4489 113.37 26.6425 112.876 26.9005 112.45C27.1649 112.024 27.4939 111.692 27.8874 111.453C28.2873 111.214 28.7485 111.094 29.271 111.094C29.4129 111.094 29.5646 111.107 29.7258 111.133C29.8935 111.158 30.0193 111.188 30.1032 111.22ZM37.1185 119.664V114.667C37.1185 114.293 37.0503 113.97 36.9148 113.699C36.7793 113.428 36.5728 113.218 36.2954 113.07C36.0245 112.921 35.6825 112.847 35.2696 112.847C34.889 112.847 34.5608 112.912 34.2834 113.041C34.006 113.169 33.7894 113.344 33.6346 113.563C33.4797 113.783 33.4023 114.032 33.4023 114.31H31.0804C31.0804 113.896 31.1803 113.496 31.3803 113.108C31.5803 112.721 31.8706 112.376 32.2511 112.073C32.6318 111.769 33.0862 111.53 33.6152 111.356C34.1442 111.181 34.7378 111.094 35.3959 111.094C36.183 111.094 36.8798 111.227 37.4853 111.491C38.0982 111.756 38.5793 112.157 38.9277 112.692C39.2826 113.221 39.4595 113.886 39.4595 114.687V119.345C39.4595 119.823 39.4918 120.252 39.5563 120.633C39.6273 121.008 39.7277 121.333 39.8558 121.611V121.766H37.466C37.3563 121.514 37.2696 121.195 37.2051 120.807C37.147 120.414 37.1185 120.033 37.1185 119.664ZM37.4567 115.394L37.4761 116.837H35.8023C35.3701 116.837 34.9894 116.879 34.6604 116.963C34.3313 117.04 34.0576 117.156 33.8382 117.311C33.6189 117.466 33.4539 117.653 33.3442 117.873C33.2346 118.093 33.1802 118.341 33.1802 118.618C33.1802 118.896 33.2447 119.152 33.3737 119.384C33.5028 119.61 33.6899 119.787 33.935 119.916C34.1866 120.045 34.4899 120.11 34.8438 120.11C35.3212 120.11 35.7378 120.013 36.0927 119.819C36.454 119.619 36.7378 119.378 36.9443 119.093C37.1507 118.803 37.2604 118.528 37.2733 118.27L38.0272 119.307C37.9498 119.571 37.818 119.855 37.6309 120.159C37.4438 120.462 37.1987 120.752 36.8954 121.03C36.5987 121.301 36.241 121.524 35.8217 121.699C35.4088 121.873 34.9314 121.96 34.3894 121.96C33.7055 121.96 33.0963 121.824 32.5608 121.553C32.0254 121.275 31.6061 120.904 31.3029 120.439C30.9998 119.968 30.8482 119.436 30.8482 118.842C30.8482 118.286 30.9514 117.796 31.1577 117.369C31.3707 116.937 31.6802 116.575 32.0867 116.285C32.4991 115.994 33.0023 115.774 33.5958 115.626C34.1894 115.472 34.8668 115.394 35.6281 115.394H37.4567ZM44.2107 113.525V121.766H41.8789V111.288H44.0753L44.2107 113.525ZM43.7941 116.14L43.0393 116.13C43.0458 115.388 43.149 114.706 43.349 114.086C43.5554 113.466 43.8393 112.934 44.2006 112.489C44.5684 112.043 45.0071 111.701 45.5167 111.462C46.0264 111.217 46.5942 111.094 47.2191 111.094C47.7223 111.094 48.1776 111.165 48.5841 111.307C48.997 111.443 49.3481 111.666 49.6385 111.976C49.9352 112.286 50.1611 112.689 50.3159 113.186C50.4707 113.677 50.5482 114.28 50.5482 114.997V121.766H48.2062V114.988C48.2062 114.484 48.1325 114.086 47.9841 113.796C47.8421 113.499 47.632 113.289 47.3546 113.167C47.0845 113.037 46.7453 112.973 46.3389 112.973C45.9389 112.973 45.5813 113.057 45.2651 113.225C44.949 113.393 44.6817 113.621 44.4624 113.912C44.2495 114.203 44.0845 114.538 43.9683 114.919C43.8522 115.3 43.7941 115.707 43.7941 116.14ZM59.6331 111.288H61.7529V121.475C61.7529 122.418 61.5529 123.219 61.1529 123.877C60.7529 124.536 60.1944 125.036 59.4792 125.378C58.763 125.727 57.9335 125.901 56.9925 125.901C56.5925 125.901 56.1473 125.843 55.657 125.727C55.1731 125.611 54.7021 125.423 54.2441 125.165C53.7924 124.913 53.4155 124.581 53.1122 124.168L54.2053 122.793C54.5795 123.238 54.9925 123.564 55.4441 123.77C55.8957 123.977 56.3694 124.08 56.8662 124.08C57.4017 124.08 57.8561 123.981 58.2303 123.781C58.6109 123.587 58.905 123.299 59.1114 122.919C59.3179 122.538 59.4211 122.073 59.4211 121.524V113.66L59.6331 111.288ZM52.5215 116.643V116.44C52.5215 115.645 52.6182 114.923 52.8118 114.271C53.0053 113.612 53.2828 113.048 53.6441 112.576C54.0053 112.098 54.4441 111.733 54.9602 111.481C55.4763 111.223 56.0598 111.094 56.7114 111.094C57.3888 111.094 57.9658 111.217 58.4432 111.462C58.9271 111.707 59.3308 112.06 59.6524 112.518C59.975 112.97 60.2266 113.512 60.4073 114.144C60.5944 114.771 60.7335 115.468 60.8239 116.237V116.885C60.74 117.634 60.5981 118.319 60.3981 118.938C60.1981 119.558 59.9335 120.094 59.6045 120.545C59.2755 120.997 58.869 121.346 58.3851 121.592C57.9077 121.837 57.3436 121.96 56.692 121.96C56.0533 121.96 55.4763 121.828 54.9602 121.563C54.4505 121.298 54.0118 120.926 53.6441 120.449C53.2828 119.972 53.0053 119.41 52.8118 118.764C52.6182 118.112 52.5215 117.405 52.5215 116.643ZM54.8533 116.44V116.643C54.8533 117.121 54.8984 117.567 54.9888 117.98C55.0855 118.392 55.2312 118.758 55.4247 119.074C55.6247 119.384 55.8763 119.629 56.1796 119.81C56.4893 119.985 56.8533 120.071 57.2727 120.071C57.8211 120.071 58.269 119.955 58.6174 119.723C58.9722 119.49 59.2432 119.177 59.4303 118.784C59.6239 118.383 59.7593 117.938 59.8368 117.447V115.694C59.7981 115.313 59.717 114.958 59.5953 114.629C59.4792 114.299 59.3206 114.013 59.1206 113.767C58.9206 113.515 58.669 113.322 58.3658 113.186C58.0626 113.044 57.7049 112.973 57.292 112.973C56.8727 112.973 56.5086 113.063 56.1989 113.244C55.8892 113.425 55.6339 113.673 55.4339 113.989C55.2404 114.306 55.0957 114.674 54.9989 115.094C54.9021 115.513 54.8533 115.962 54.8533 116.44ZM70.0738 119.664V114.667C70.0738 114.293 70.0056 113.97 69.8701 113.699C69.7346 113.428 69.5281 113.218 69.2516 113.07C68.9807 112.921 68.6387 112.847 68.2258 112.847C67.8452 112.847 67.5161 112.912 67.2387 113.041C66.9613 113.169 66.7456 113.344 66.5908 113.563C66.4359 113.783 66.3585 114.032 66.3585 114.31H64.0359C64.0359 113.896 64.1364 113.496 64.3364 113.108C64.5364 112.721 64.8258 112.376 65.2064 112.073C65.5871 111.769 66.0424 111.53 66.5714 111.356C67.0995 111.181 67.6931 111.094 68.3512 111.094C69.1383 111.094 69.8351 111.227 70.4415 111.491C71.0544 111.756 71.5346 112.157 71.883 112.692C72.2379 113.221 72.4148 113.886 72.4148 114.687V119.345C72.4148 119.823 72.4471 120.252 72.5116 120.633C72.5826 121.008 72.683 121.333 72.8121 121.611V121.766H70.4222C70.3125 121.514 70.2249 121.195 70.1604 120.807C70.1023 120.414 70.0738 120.033 70.0738 119.664ZM70.412 115.394L70.4314 116.837H68.7576C68.3254 116.837 67.9447 116.879 67.6157 116.963C67.2866 117.04 67.0129 117.156 66.7935 117.311C66.5742 117.466 66.4101 117.653 66.3004 117.873C66.1908 118.093 66.1355 118.341 66.1355 118.618C66.1355 118.896 66.2 119.152 66.329 119.384C66.4581 119.61 66.6452 119.787 66.8903 119.916C67.1419 120.045 67.4452 120.11 67.8 120.11C68.2774 120.11 68.6931 120.013 69.048 119.819C69.4092 119.619 69.6931 119.378 69.8996 119.093C70.106 118.803 70.2157 118.528 70.2286 118.27L70.9835 119.307C70.906 119.571 70.7733 119.855 70.5862 120.159C70.3991 120.462 70.154 120.752 69.8507 121.03C69.554 121.301 69.1963 121.524 68.777 121.699C68.3641 121.873 67.8866 121.96 67.3447 121.96C66.6617 121.96 66.0516 121.824 65.5161 121.553C64.9806 121.275 64.5613 120.904 64.2589 120.439C63.9557 119.968 63.8036 119.436 63.8036 118.842C63.8036 118.286 63.9069 117.796 64.1133 117.369C64.3262 116.937 64.6359 116.575 65.0424 116.285C65.4553 115.994 65.9585 115.774 66.5521 115.626C67.1447 115.472 67.8221 115.394 68.5834 115.394H70.412ZM77.7366 120.623L80.5817 111.288H83.0776L78.8785 123.364C78.7817 123.622 78.6564 123.903 78.5015 124.207C78.3467 124.51 78.143 124.797 77.8914 125.068C77.6462 125.346 77.3402 125.568 76.9725 125.736C76.6047 125.911 76.1596 125.998 75.637 125.998C75.4305 125.998 75.2305 125.979 75.037 125.94C74.8499 125.908 74.6729 125.872 74.5052 125.833L74.495 124.052C74.5596 124.058 74.637 124.065 74.7273 124.071C74.8241 124.078 74.9015 124.08 74.9596 124.08C75.3467 124.08 75.6692 124.032 75.9273 123.936C76.1854 123.845 76.3955 123.697 76.5568 123.49C76.7246 123.283 76.8665 123.006 76.9817 122.657L77.7366 120.623ZM76.131 111.288L78.6177 119.132L79.0333 121.592L77.4176 122.008L73.6148 111.288H76.131ZM98.4041 119.839V121.766H91.3312V119.839H98.4041ZM92.0086 107.666V121.766H89.58V107.666H92.0086ZM104.664 121.96C103.891 121.96 103.19 121.834 102.565 121.582C101.945 121.324 101.417 120.965 100.978 120.507C100.546 120.049 100.213 119.51 99.9811 118.89C99.7488 118.27 99.6327 117.602 99.6327 116.885V116.498C99.6327 115.678 99.7525 114.936 99.9912 114.271C100.23 113.606 100.562 113.037 100.988 112.566C101.413 112.088 101.917 111.724 102.497 111.472C103.078 111.22 103.707 111.094 104.384 111.094C105.132 111.094 105.787 111.22 106.348 111.472C106.909 111.724 107.374 112.079 107.742 112.537C108.116 112.989 108.393 113.528 108.574 114.155C108.761 114.781 108.854 115.472 108.854 116.226V117.225H100.765V115.548H106.552V115.365C106.539 114.945 106.455 114.551 106.3 114.183C106.152 113.815 105.922 113.518 105.613 113.292C105.303 113.066 104.89 112.954 104.374 112.954C103.988 112.954 103.642 113.037 103.339 113.205C103.042 113.367 102.794 113.602 102.594 113.912C102.394 114.222 102.239 114.596 102.13 115.036C102.026 115.468 101.975 115.955 101.975 116.498V116.885C101.975 117.344 102.036 117.77 102.158 118.164C102.287 118.551 102.474 118.89 102.719 119.18C102.965 119.471 103.261 119.7 103.61 119.868C103.958 120.03 104.354 120.11 104.8 120.11C105.361 120.11 105.861 119.997 106.3 119.771C106.738 119.545 107.119 119.225 107.441 118.812L108.671 120.004C108.445 120.333 108.151 120.649 107.789 120.952C107.428 121.249 106.987 121.492 106.464 121.679C105.948 121.866 105.348 121.96 104.664 121.96ZM117.379 111.288H119.497V121.475C119.497 122.418 119.297 123.219 118.897 123.877C118.497 124.536 117.94 125.036 117.224 125.378C116.508 125.727 115.679 125.901 114.737 125.901C114.337 125.901 113.892 125.843 113.402 125.727C112.918 125.611 112.447 125.423 111.989 125.165C111.538 124.913 111.16 124.581 110.857 124.168L111.95 122.793C112.324 123.238 112.737 123.564 113.189 123.77C113.64 123.977 114.114 124.08 114.611 124.08C115.146 124.08 115.602 123.981 115.976 123.781C116.356 123.587 116.65 123.299 116.856 122.919C117.062 122.538 117.166 122.073 117.166 121.524V113.66L117.379 111.288ZM110.267 116.643V116.44C110.267 115.645 110.364 114.923 110.557 114.271C110.751 113.612 111.028 113.048 111.39 112.576C111.75 112.098 112.189 111.733 112.705 111.481C113.221 111.223 113.805 111.094 114.456 111.094C115.133 111.094 115.711 111.217 116.189 111.462C116.672 111.707 117.075 112.06 117.398 112.518C117.721 112.97 117.972 113.512 118.153 114.144C118.34 114.771 118.478 115.468 118.568 116.237V116.885C118.485 117.634 118.343 118.319 118.143 118.938C117.943 119.558 117.678 120.094 117.349 120.545C117.02 120.997 116.614 121.346 116.131 121.592C115.653 121.837 115.088 121.96 114.437 121.96C113.799 121.96 113.221 121.828 112.705 121.563C112.195 121.298 111.756 120.926 111.39 120.449C111.028 119.972 110.751 119.41 110.557 118.764C110.364 118.112 110.267 117.405 110.267 116.643ZM112.599 116.44V116.643C112.599 117.121 112.644 117.567 112.734 117.98C112.831 118.392 112.976 118.758 113.169 119.074C113.369 119.384 113.621 119.629 113.924 119.81C114.234 119.985 114.598 120.071 115.017 120.071C115.566 120.071 116.014 119.955 116.363 119.723C116.717 119.49 116.988 119.177 117.175 118.784C117.368 118.383 117.504 117.938 117.581 117.447V115.694C117.543 115.313 117.462 114.958 117.34 114.629C117.224 114.299 117.065 114.013 116.865 113.767C116.665 113.515 116.415 113.322 116.111 113.186C115.808 113.044 115.45 112.973 115.037 112.973C114.617 112.973 114.253 113.063 113.944 113.244C113.634 113.425 113.379 113.673 113.179 113.989C112.986 114.306 112.84 114.674 112.743 115.094C112.647 115.513 112.599 115.962 112.599 116.44ZM124.413 111.288V121.766H122.071V111.288H124.413ZM121.916 108.538C121.916 108.183 122.032 107.889 122.264 107.657C122.503 107.418 122.832 107.298 123.251 107.298C123.664 107.298 123.991 107.418 124.228 107.657C124.467 107.889 124.587 108.183 124.587 108.538C124.587 108.886 124.467 109.177 124.228 109.409C123.991 109.642 123.664 109.758 123.251 109.758C122.832 109.758 122.503 109.642 122.264 109.409C122.032 109.177 121.916 108.886 121.916 108.538ZM132.841 118.928C132.841 118.696 132.782 118.486 132.666 118.299C132.55 118.106 132.327 117.931 131.998 117.776C131.676 117.621 131.199 117.479 130.567 117.35C130.012 117.227 129.502 117.082 129.038 116.915C128.58 116.74 128.186 116.53 127.857 116.285C127.528 116.039 127.274 115.749 127.093 115.414C126.912 115.078 126.822 114.691 126.822 114.251C126.822 113.825 126.915 113.421 127.102 113.041C127.289 112.66 127.558 112.324 127.906 112.034C128.254 111.743 128.676 111.514 129.173 111.346C129.676 111.178 130.238 111.094 130.857 111.094C131.734 111.094 132.486 111.242 133.111 111.539C133.744 111.83 134.227 112.228 134.562 112.731C134.898 113.227 135.065 113.789 135.065 114.416H132.734C132.734 114.138 132.663 113.88 132.521 113.641C132.385 113.395 132.179 113.199 131.901 113.05C131.624 112.895 131.276 112.818 130.857 112.818C130.457 112.818 130.124 112.882 129.86 113.012C129.602 113.134 129.408 113.296 129.279 113.496C129.157 113.696 129.096 113.916 129.096 114.155C129.096 114.329 129.128 114.487 129.193 114.629C129.264 114.764 129.38 114.891 129.541 115.007C129.702 115.117 129.922 115.22 130.199 115.317C130.483 115.414 130.838 115.507 131.264 115.597C132.063 115.765 132.75 115.981 133.324 116.246C133.905 116.504 134.349 116.84 134.659 117.253C134.969 117.66 135.124 118.177 135.124 118.803C135.124 119.268 135.024 119.694 134.824 120.081C134.63 120.462 134.347 120.795 133.972 121.079C133.598 121.356 133.15 121.572 132.628 121.727C132.111 121.882 131.531 121.96 130.886 121.96C129.937 121.96 129.134 121.792 128.476 121.456C127.818 121.114 127.319 120.678 126.977 120.149C126.641 119.613 126.474 119.057 126.474 118.483H128.728C128.754 118.915 128.874 119.261 129.086 119.52C129.305 119.771 129.576 119.955 129.899 120.071C130.228 120.181 130.567 120.236 130.915 120.236C131.335 120.236 131.686 120.181 131.97 120.071C132.253 119.955 132.469 119.8 132.618 119.606C132.766 119.406 132.841 119.18 132.841 118.928ZM139.662 106.891V121.766H137.32V106.891H139.662ZM148.118 119.664V114.667C148.118 114.293 148.051 113.97 147.915 113.699C147.78 113.428 147.573 113.218 147.296 113.07C147.025 112.921 146.683 112.847 146.27 112.847C145.89 112.847 145.561 112.912 145.283 113.041C145.006 113.169 144.79 113.344 144.635 113.563C144.48 113.783 144.403 114.032 144.403 114.31H142.08C142.08 113.896 142.181 113.496 142.381 113.108C142.581 112.721 142.871 112.376 143.252 112.073C143.632 111.769 144.087 111.53 144.616 111.356C145.145 111.181 145.738 111.094 146.396 111.094C147.183 111.094 147.879 111.227 148.486 111.491C149.099 111.756 149.579 112.157 149.927 112.692C150.282 113.221 150.46 113.886 150.46 114.687V119.345C150.46 119.823 150.492 120.252 150.557 120.633C150.628 121.008 150.727 121.333 150.856 121.611V121.766H148.467C148.357 121.514 148.27 121.195 148.206 120.807C148.148 120.414 148.118 120.033 148.118 119.664ZM148.457 115.394L148.477 116.837H146.802C146.37 116.837 145.99 116.879 145.661 116.963C145.332 117.04 145.057 117.156 144.838 117.311C144.619 117.466 144.455 117.653 144.345 117.873C144.235 118.093 144.18 118.341 144.18 118.618C144.18 118.896 144.244 119.152 144.373 119.384C144.502 119.61 144.69 119.787 144.935 119.916C145.186 120.045 145.49 120.11 145.844 120.11C146.322 120.11 146.737 120.013 147.092 119.819C147.454 119.619 147.738 119.378 147.944 119.093C148.15 118.803 148.26 118.528 148.273 118.27L149.028 119.307C148.95 119.571 148.818 119.855 148.632 120.159C148.444 120.462 148.199 120.752 147.896 121.03C147.599 121.301 147.241 121.524 146.821 121.699C146.408 121.873 145.932 121.96 145.39 121.96C144.706 121.96 144.096 121.824 143.561 121.553C143.026 121.275 142.607 120.904 142.303 120.439C142 119.968 141.848 119.436 141.848 118.842C141.848 118.286 141.951 117.796 142.158 117.369C142.371 116.937 142.68 116.575 143.087 116.285C143.5 115.994 144.003 115.774 144.596 115.626C145.19 115.472 145.867 115.394 146.628 115.394H148.457ZM157.697 111.288V112.992H151.795V111.288H157.697ZM153.498 108.721H155.83V118.87C155.83 119.193 155.875 119.442 155.965 119.617C156.062 119.784 156.195 119.897 156.362 119.955C156.529 120.013 156.727 120.043 156.952 120.043C157.114 120.043 157.269 120.033 157.417 120.013C157.565 119.994 157.684 119.974 157.775 119.955L157.785 121.737C157.591 121.795 157.365 121.847 157.107 121.892C156.856 121.937 156.565 121.96 156.236 121.96C155.701 121.96 155.227 121.866 154.814 121.679C154.401 121.485 154.079 121.172 153.846 120.739C153.614 120.307 153.498 119.733 153.498 119.016V108.721ZM161.993 111.288V121.766H159.652V111.288H161.993ZM159.497 108.538C159.497 108.183 159.613 107.889 159.846 107.657C160.084 107.418 160.413 107.298 160.833 107.298C161.245 107.298 161.571 107.418 161.81 107.657C162.048 107.889 162.167 108.183 162.167 108.538C162.167 108.886 162.048 109.177 161.81 109.409C161.571 109.642 161.245 109.758 160.833 109.758C160.413 109.758 160.084 109.642 159.846 109.409C159.613 109.177 159.497 108.886 159.497 108.538ZM167.953 119.916L170.518 111.288H172.937L169.298 121.766H167.789L167.953 119.916ZM165.989 111.288L168.601 119.955L168.728 121.766H167.218L163.561 111.288H165.989ZM178.858 121.96C178.084 121.96 177.384 121.834 176.758 121.582C176.139 121.324 175.611 120.965 175.172 120.507C174.74 120.049 174.407 119.51 174.175 118.89C173.942 118.27 173.826 117.602 173.826 116.885V116.498C173.826 115.678 173.946 114.936 174.185 114.271C174.424 113.606 174.755 113.037 175.181 112.566C175.607 112.088 176.11 111.724 176.691 111.472C177.272 111.22 177.9 111.094 178.578 111.094C179.326 111.094 179.98 111.22 180.542 111.472C181.103 111.724 181.567 112.079 181.935 112.537C182.309 112.989 182.587 113.528 182.767 114.155C182.955 114.781 183.048 115.472 183.048 116.226V117.225H174.959V115.548H180.745V115.365C180.732 114.945 180.649 114.551 180.494 114.183C180.345 113.815 180.116 113.518 179.806 113.292C179.496 113.066 179.084 112.954 178.567 112.954C178.181 112.954 177.836 113.037 177.532 113.205C177.236 113.367 176.988 113.602 176.788 113.912C176.588 114.222 176.433 114.596 176.323 115.036C176.22 115.468 176.168 115.955 176.168 116.498V116.885C176.168 117.344 176.229 117.77 176.352 118.164C176.481 118.551 176.668 118.89 176.913 119.18C177.158 119.471 177.455 119.7 177.803 119.868C178.152 120.03 178.548 120.11 178.993 120.11C179.555 120.11 180.055 119.997 180.494 119.771C180.932 119.545 181.312 119.225 181.635 118.812L182.864 120.004C182.638 120.333 182.344 120.649 181.983 120.952C181.622 121.249 181.18 121.492 180.658 121.679C180.142 121.866 179.542 121.96 178.858 121.96ZM195.365 107.666V121.766H192.956V107.666H195.365ZM199.787 107.666V109.603H188.572V107.666H199.787ZM203.057 113.283V121.766H200.725V111.288H202.951L203.057 113.283ZM206.26 111.22L206.241 113.389C206.099 113.363 205.944 113.344 205.776 113.331C205.615 113.318 205.454 113.311 205.292 113.311C204.892 113.311 204.541 113.37 204.238 113.486C203.935 113.596 203.679 113.757 203.473 113.97C203.273 114.177 203.119 114.429 203.009 114.726C202.9 115.023 202.835 115.356 202.816 115.723L202.283 115.762C202.283 115.104 202.347 114.493 202.477 113.931C202.606 113.37 202.799 112.876 203.057 112.45C203.322 112.024 203.651 111.692 204.044 111.453C204.444 111.214 204.905 111.094 205.428 111.094C205.57 111.094 205.722 111.107 205.882 111.133C206.05 111.158 206.176 111.188 206.26 111.22ZM213.275 119.664V114.667C213.275 114.293 213.207 113.97 213.072 113.699C212.937 113.428 212.73 113.218 212.453 113.07C212.182 112.921 211.84 112.847 211.427 112.847C211.046 112.847 210.717 112.912 210.44 113.041C210.162 113.169 209.947 113.344 209.792 113.563C209.637 113.783 209.56 114.032 209.56 114.31H207.237C207.237 113.896 207.337 113.496 207.537 113.108C207.737 112.721 208.028 112.376 208.407 112.073C208.788 111.769 209.243 111.53 209.772 111.356C210.301 111.181 210.894 111.094 211.552 111.094C212.339 111.094 213.036 111.227 213.643 111.491C214.255 111.756 214.736 112.157 215.084 112.692C215.439 113.221 215.617 113.886 215.617 114.687V119.345C215.617 119.823 215.649 120.252 215.713 120.633C215.784 121.008 215.884 121.333 216.013 121.611V121.766H213.623C213.514 121.514 213.426 121.195 213.361 120.807C213.303 120.414 213.275 120.033 213.275 119.664ZM213.613 115.394L213.632 116.837H211.959C211.526 116.837 211.146 116.879 210.817 116.963C210.489 117.04 210.214 117.156 209.995 117.311C209.775 117.466 209.611 117.653 209.501 117.873C209.392 118.093 209.337 118.341 209.337 118.618C209.337 118.896 209.401 119.152 209.53 119.384C209.659 119.61 209.846 119.787 210.091 119.916C210.343 120.045 210.646 120.11 211.001 120.11C211.478 120.11 211.894 120.013 212.249 119.819C212.61 119.619 212.894 119.378 213.101 119.093C213.307 118.803 213.417 118.528 213.43 118.27L214.185 119.307C214.107 119.571 213.974 119.855 213.787 120.159C213.6 120.462 213.355 120.752 213.053 121.03C212.756 121.301 212.397 121.524 211.978 121.699C211.565 121.873 211.088 121.96 210.547 121.96C209.863 121.96 209.253 121.824 208.717 121.553C208.183 121.275 207.763 120.904 207.46 120.439C207.157 119.968 207.005 119.436 207.005 118.842C207.005 118.286 207.108 117.796 207.314 117.369C207.527 116.937 207.837 116.575 208.243 116.285C208.656 115.994 209.16 115.774 209.753 115.626C210.347 115.472 211.023 115.394 211.784 115.394H213.613ZM222.331 120.101C222.712 120.101 223.054 120.026 223.357 119.878C223.667 119.723 223.915 119.509 224.102 119.238C224.295 118.967 224.402 118.654 224.422 118.299H226.618C226.605 118.977 226.405 119.593 226.018 120.149C225.631 120.704 225.118 121.146 224.48 121.475C223.841 121.798 223.134 121.96 222.361 121.96C221.561 121.96 220.864 121.824 220.27 121.553C219.677 121.275 219.184 120.894 218.79 120.411C218.397 119.926 218.1 119.367 217.9 118.735C217.706 118.102 217.609 117.425 217.609 116.702V116.362C217.609 115.639 217.706 114.962 217.9 114.329C218.1 113.69 218.397 113.128 218.79 112.644C219.184 112.159 219.677 111.782 220.27 111.511C220.864 111.233 221.557 111.094 222.351 111.094C223.189 111.094 223.925 111.262 224.557 111.597C225.189 111.927 225.685 112.389 226.046 112.983C226.414 113.57 226.605 114.254 226.618 115.036H224.422C224.402 114.648 224.305 114.299 224.131 113.989C223.963 113.673 223.725 113.421 223.415 113.234C223.112 113.048 222.748 112.954 222.322 112.954C221.851 112.954 221.46 113.05 221.15 113.244C220.841 113.431 220.599 113.69 220.425 114.019C220.251 114.342 220.126 114.706 220.048 115.113C219.977 115.513 219.941 115.929 219.941 116.362V116.702C219.941 117.134 219.977 117.554 220.048 117.961C220.119 118.367 220.242 118.732 220.416 119.055C220.597 119.371 220.841 119.626 221.15 119.819C221.46 120.007 221.854 120.101 222.331 120.101ZM230.759 106.891V121.766H228.417V106.891H230.759ZM237.261 111.288L232.704 116.343L230.208 118.9L229.598 116.924L231.484 114.59L234.446 111.288H237.261ZM234.949 121.766L231.552 116.846L233.023 115.21L237.648 121.766H234.949ZM241.237 111.288V121.766H238.896V111.288H241.237ZM238.742 108.538C238.742 108.183 238.858 107.889 239.09 107.657C239.329 107.418 239.658 107.298 240.077 107.298C240.489 107.298 240.815 107.418 241.054 107.657C241.293 107.889 241.412 108.183 241.412 108.538C241.412 108.886 241.293 109.177 241.054 109.409C240.815 109.642 240.489 109.758 240.077 109.758C239.658 109.758 239.329 109.642 239.09 109.409C238.858 109.177 238.742 108.886 238.742 108.538ZM246.105 113.525V121.766H243.773V111.288H245.969L246.105 113.525ZM245.688 116.14L244.934 116.13C244.941 115.388 245.044 114.706 245.244 114.086C245.449 113.466 245.733 112.934 246.095 112.489C246.462 112.043 246.901 111.701 247.411 111.462C247.92 111.217 248.488 111.094 249.114 111.094C249.617 111.094 250.072 111.165 250.478 111.307C250.891 111.443 251.242 111.666 251.532 111.976C251.829 112.286 252.055 112.689 252.21 113.186C252.365 113.677 252.442 114.28 252.442 114.997V121.766H250.101V114.988C250.101 114.484 250.026 114.086 249.878 113.796C249.736 113.499 249.527 113.289 249.25 113.167C248.979 113.037 248.639 112.973 248.233 112.973C247.834 112.973 247.475 113.057 247.159 113.225C246.843 113.393 246.576 113.621 246.356 113.912C246.143 114.203 245.978 114.538 245.862 114.919C245.746 115.3 245.688 115.707 245.688 116.14ZM261.528 111.288H263.647V121.475C263.647 122.418 263.447 123.219 263.047 123.877C262.647 124.536 262.089 125.036 261.373 125.378C260.657 125.727 259.828 125.901 258.886 125.901C258.486 125.901 258.041 125.843 257.551 125.727C257.067 125.611 256.596 125.423 256.138 125.165C255.686 124.913 255.309 124.581 255.006 124.168L256.099 122.793C256.474 123.238 256.886 123.564 257.338 123.77C257.79 123.977 258.263 124.08 258.76 124.08C259.296 124.08 259.751 123.981 260.125 123.781C260.505 123.587 260.799 123.299 261.005 122.919C261.212 122.538 261.315 122.073 261.315 121.524V113.66L261.528 111.288ZM254.416 116.643V116.44C254.416 115.645 254.513 114.923 254.707 114.271C254.9 113.612 255.178 113.048 255.538 112.576C255.899 112.098 256.338 111.733 256.854 111.481C257.37 111.223 257.954 111.094 258.605 111.094C259.283 111.094 259.861 111.217 260.337 111.462C260.821 111.707 261.225 112.06 261.547 112.518C261.87 112.97 262.122 113.512 262.302 114.144C262.489 114.771 262.628 115.468 262.718 116.237V116.885C262.634 117.634 262.492 118.319 262.292 118.938C262.092 119.558 261.828 120.094 261.499 120.545C261.169 120.997 260.763 121.346 260.279 121.592C259.803 121.837 259.238 121.96 258.586 121.96C257.947 121.96 257.37 121.828 256.854 121.563C256.345 121.298 255.906 120.926 255.538 120.449C255.178 119.972 254.9 119.41 254.707 118.764C254.513 118.112 254.416 117.405 254.416 116.643ZM256.748 116.44V116.643C256.748 117.121 256.793 117.567 256.884 117.98C256.981 118.392 257.125 118.758 257.319 119.074C257.519 119.384 257.77 119.629 258.074 119.81C258.383 119.985 258.747 120.071 259.167 120.071C259.715 120.071 260.164 119.955 260.511 119.723C260.866 119.49 261.137 119.177 261.324 118.784C261.518 118.383 261.653 117.938 261.731 117.447V115.694C261.692 115.313 261.612 114.958 261.489 114.629C261.373 114.299 261.215 114.013 261.015 113.767C260.815 113.515 260.563 113.322 260.26 113.186C259.957 113.044 259.599 112.973 259.186 112.973C258.767 112.973 258.403 113.063 258.093 113.244C257.783 113.425 257.529 113.673 257.329 113.989C257.135 114.306 256.99 114.674 256.893 115.094C256.796 115.513 256.748 115.962 256.748 116.44ZM278.644 118.134C278.644 117.844 278.599 117.586 278.509 117.36C278.425 117.134 278.273 116.928 278.054 116.74C277.834 116.553 277.525 116.372 277.125 116.198C276.732 116.017 276.229 115.833 275.616 115.645C274.945 115.44 274.325 115.21 273.758 114.958C273.196 114.7 272.706 114.403 272.288 114.067C271.868 113.725 271.542 113.334 271.31 112.895C271.077 112.45 270.961 111.937 270.961 111.356C270.961 110.781 271.081 110.258 271.32 109.787C271.565 109.315 271.91 108.908 272.355 108.566C272.807 108.218 273.338 107.95 273.951 107.763C274.564 107.569 275.242 107.472 275.984 107.472C277.029 107.472 277.928 107.666 278.683 108.053C279.444 108.441 280.028 108.96 280.434 109.612C280.847 110.265 281.054 110.984 281.054 111.772H278.644C278.644 111.307 278.544 110.897 278.344 110.542C278.15 110.181 277.854 109.896 277.455 109.69C277.061 109.483 276.56 109.38 275.954 109.38C275.38 109.38 274.903 109.468 274.523 109.642C274.142 109.816 273.858 110.051 273.671 110.348C273.484 110.646 273.39 110.981 273.39 111.356C273.39 111.621 273.452 111.862 273.574 112.082C273.697 112.295 273.884 112.495 274.136 112.682C274.387 112.863 274.703 113.035 275.084 113.195C275.464 113.357 275.913 113.512 276.429 113.66C277.209 113.893 277.89 114.151 278.47 114.435C279.051 114.713 279.535 115.029 279.922 115.384C280.308 115.739 280.598 116.142 280.792 116.594C280.985 117.04 281.082 117.547 281.082 118.115C281.082 118.709 280.963 119.245 280.725 119.723C280.486 120.194 280.144 120.597 279.699 120.933C279.26 121.262 278.731 121.518 278.112 121.699C277.5 121.873 276.816 121.96 276.061 121.96C275.383 121.96 274.716 121.869 274.058 121.688C273.407 121.508 272.813 121.234 272.277 120.866C271.742 120.491 271.316 120.026 271 119.471C270.684 118.909 270.526 118.254 270.526 117.505H272.955C272.955 117.963 273.032 118.354 273.187 118.677C273.348 118.999 273.571 119.264 273.854 119.471C274.138 119.671 274.467 119.819 274.842 119.916C275.222 120.013 275.629 120.062 276.061 120.062C276.629 120.062 277.102 119.981 277.483 119.819C277.87 119.658 278.161 119.432 278.354 119.141C278.548 118.851 278.644 118.515 278.644 118.134ZM286.036 120.623L288.881 111.288H291.377L287.178 123.364C287.081 123.622 286.956 123.903 286.801 124.207C286.646 124.51 286.443 124.797 286.191 125.068C285.946 125.346 285.64 125.568 285.272 125.736C284.904 125.911 284.459 125.998 283.937 125.998C283.73 125.998 283.53 125.979 283.337 125.94C283.15 125.908 282.973 125.872 282.805 125.833L282.795 124.052C282.859 124.058 282.937 124.065 283.027 124.071C283.124 124.078 283.201 124.08 283.259 124.08C283.646 124.08 283.969 124.032 284.227 123.936C284.485 123.845 284.695 123.697 284.856 123.49C285.023 123.283 285.165 123.006 285.281 122.657L286.036 120.623ZM284.431 111.288L286.917 119.132L287.333 121.592L285.717 122.008L281.914 111.288H284.431ZM298.586 118.928C298.586 118.696 298.528 118.486 298.411 118.299C298.295 118.106 298.073 117.931 297.744 117.776C297.422 117.621 296.944 117.479 296.312 117.35C295.757 117.227 295.247 117.082 294.784 116.915C294.326 116.74 293.932 116.53 293.603 116.285C293.274 116.039 293.019 115.749 292.838 115.414C292.657 115.078 292.567 114.691 292.567 114.251C292.567 113.825 292.661 113.421 292.848 113.041C293.035 112.66 293.303 112.324 293.651 112.034C293.999 111.743 294.422 111.514 294.918 111.346C295.422 111.178 295.983 111.094 296.602 111.094C297.48 111.094 298.231 111.242 298.857 111.539C299.489 111.83 299.973 112.228 300.308 112.731C300.644 113.227 300.812 113.789 300.812 114.416H298.48C298.48 114.138 298.409 113.88 298.267 113.641C298.131 113.395 297.925 113.199 297.647 113.05C297.37 112.895 297.022 112.818 296.602 112.818C296.202 112.818 295.87 112.882 295.606 113.012C295.348 113.134 295.154 113.296 295.025 113.496C294.903 113.696 294.842 113.916 294.842 114.155C294.842 114.329 294.874 114.487 294.938 114.629C295.009 114.764 295.125 114.891 295.286 115.007C295.447 115.117 295.667 115.22 295.944 115.317C296.228 115.414 296.583 115.507 297.009 115.597C297.809 115.765 298.495 115.981 299.07 116.246C299.65 116.504 300.095 116.84 300.405 117.253C300.715 117.66 300.87 118.177 300.87 118.803C300.87 119.268 300.769 119.694 300.569 120.081C300.376 120.462 300.092 120.795 299.718 121.079C299.344 121.356 298.895 121.572 298.373 121.727C297.857 121.882 297.277 121.96 296.632 121.96C295.683 121.96 294.881 121.792 294.222 121.456C293.564 121.114 293.064 120.678 292.722 120.149C292.387 119.613 292.22 119.057 292.22 118.483H294.474C294.5 118.915 294.619 119.261 294.832 119.52C295.051 119.771 295.322 119.955 295.645 120.071C295.974 120.181 296.312 120.236 296.66 120.236C297.08 120.236 297.431 120.181 297.715 120.071C297.999 119.955 298.215 119.8 298.364 119.606C298.512 119.406 298.586 119.18 298.586 118.928ZM307.71 111.288V112.992H301.808V111.288H307.71ZM303.511 108.721H305.843V118.87C305.843 119.193 305.888 119.442 305.978 119.617C306.075 119.784 306.207 119.897 306.375 119.955C306.542 120.013 306.74 120.043 306.966 120.043C307.127 120.043 307.282 120.033 307.429 120.013C307.577 119.994 307.697 119.974 307.788 119.955L307.797 121.737C307.603 121.795 307.377 121.847 307.12 121.892C306.869 121.937 306.578 121.96 306.249 121.96C305.714 121.96 305.239 121.866 304.826 121.679C304.414 121.485 304.092 121.172 303.859 120.739C303.627 120.307 303.511 119.733 303.511 119.016V108.721ZM314.125 121.96C313.351 121.96 312.651 121.834 312.025 121.582C311.406 121.324 310.877 120.965 310.438 120.507C310.006 120.049 309.674 119.51 309.442 118.89C309.21 118.27 309.094 117.602 309.094 116.885V116.498C309.094 115.678 309.213 114.936 309.452 114.271C309.691 113.606 310.023 113.037 310.448 112.566C310.874 112.088 311.378 111.724 311.958 111.472C312.538 111.22 313.167 111.094 313.845 111.094C314.593 111.094 315.248 111.22 315.809 111.472C316.37 111.724 316.835 112.079 317.203 112.537C317.576 112.989 317.853 113.528 318.034 114.155C318.221 114.781 318.315 115.472 318.315 116.226V117.225H310.225V115.548H316.012V115.365C315.999 114.945 315.915 114.551 315.76 114.183C315.612 113.815 315.383 113.518 315.073 113.292C314.764 113.066 314.351 112.954 313.835 112.954C313.448 112.954 313.103 113.037 312.8 113.205C312.503 113.367 312.255 113.602 312.055 113.912C311.855 114.222 311.7 114.596 311.59 115.036C311.487 115.468 311.436 115.955 311.436 116.498V116.885C311.436 117.344 311.496 117.77 311.619 118.164C311.748 118.551 311.935 118.89 312.18 119.18C312.425 119.471 312.722 119.7 313.071 119.868C313.419 120.03 313.815 120.11 314.261 120.11C314.822 120.11 315.321 119.997 315.76 119.771C316.199 119.545 316.579 119.225 316.902 118.812L318.131 120.004C317.905 120.333 317.612 120.649 317.25 120.952C316.889 121.249 316.448 121.492 315.925 121.679C315.409 121.866 314.809 121.96 314.125 121.96ZM322.465 113.418V121.766H320.133V111.288H322.33L322.465 113.418ZM322.088 116.14L321.295 116.13C321.295 115.407 321.385 114.738 321.566 114.125C321.746 113.512 322.011 112.979 322.359 112.527C322.708 112.069 323.14 111.717 323.656 111.472C324.179 111.22 324.781 111.094 325.465 111.094C325.943 111.094 326.378 111.165 326.771 111.307C327.171 111.443 327.516 111.659 327.806 111.956C328.103 112.253 328.329 112.634 328.484 113.098C328.645 113.563 328.726 114.125 328.726 114.784V121.766H326.394V114.988C326.394 114.477 326.317 114.077 326.162 113.787C326.014 113.496 325.797 113.289 325.513 113.167C325.236 113.037 324.904 112.973 324.517 112.973C324.078 112.973 323.704 113.057 323.394 113.225C323.091 113.393 322.843 113.621 322.65 113.912C322.456 114.203 322.314 114.538 322.224 114.919C322.133 115.3 322.088 115.707 322.088 116.14ZM328.581 115.52L327.487 115.762C327.487 115.13 327.574 114.532 327.748 113.97C327.929 113.402 328.191 112.906 328.533 112.479C328.881 112.047 329.31 111.707 329.819 111.462C330.329 111.217 330.912 111.094 331.57 111.094C332.106 111.094 332.583 111.169 333.003 111.317C333.429 111.459 333.79 111.685 334.087 111.995C334.383 112.305 334.608 112.708 334.763 113.205C334.918 113.696 334.995 114.29 334.995 114.988V121.766H332.654V114.977C332.654 114.448 332.577 114.038 332.422 113.748C332.274 113.457 332.061 113.257 331.783 113.147C331.506 113.031 331.174 112.973 330.787 112.973C330.426 112.973 330.106 113.041 329.828 113.176C329.558 113.305 329.329 113.489 329.142 113.728C328.955 113.961 328.813 114.228 328.716 114.532C328.626 114.835 328.581 115.165 328.581 115.52Z" fill="#2D3E4D"/>
</g>
<defs>
<clipPath id="clip0_658_3206">
<rect width="335" height="126" fill="white"/>
</clipPath>
</defs>
</svg>
