<svg width="444" height="215" viewBox="0 0 444 215" fill="none" xmlns="http://www.w3.org/2000/svg">
<path d="M63.8293 85.9584L63.8275 79.8573C63.8233 66.0502 75.0127 54.8539 88.8198 54.8497L94.921 54.8478L94.9305 85.9489L63.8293 85.9584Z" fill="#A60453"/>
<rect x="63.8389" y="117.242" width="31.1011" height="31.1011" transform="rotate(-90.0175 63.8389 117.242)" fill="#D0154C"/>
<path d="M88.8485 148.518C75.0414 148.522 63.8451 137.333 63.8408 123.526L63.839 117.424L94.9401 117.415L94.9496 148.516L88.8485 148.518Z" fill="#FF2941"/>
<path d="M95.1035 54.8477L126.205 54.8382L126.214 85.9393L95.113 85.9488L95.1035 54.8477Z" fill="#D0154C"/>
<path d="M157.507 117.396L157.509 123.497C157.513 137.304 146.324 148.5 132.517 148.505L126.416 148.507L126.406 117.405L157.507 117.396Z" fill="#FFB144"/>
<rect x="157.498" y="86.1122" width="31.1011" height="31.1011" transform="rotate(89.9825 157.498 86.1122)" fill="#FF6F43"/>
<rect x="126.233" y="148.507" width="31.1011" height="31.1011" transform="rotate(179.982 126.233 148.507)" fill="#FF6F43"/>
<path d="M149.919 44.0401C162.79 49.0367 169.174 63.5215 164.177 76.3928L161.137 84.2241L130 72.1369L142.087 41L149.919 44.0401Z" fill="#FF2941"/>
<path d="M202.657 105.692H183.741L183.678 92.2354H199.801C202.34 92.2354 204.413 91.8122 206.021 90.9658C207.672 90.0771 208.878 88.7865 209.64 87.0938C210.444 85.3587 210.846 83.264 210.846 80.8096C210.846 77.9743 210.486 75.7103 209.767 74.0176C209.047 72.2826 207.883 71.013 206.275 70.209C204.667 69.4049 202.573 69.0029 199.991 69.0029H190.089V146H171.49V53.5781H199.991C204.604 53.5781 208.73 54.0859 212.369 55.1016C216.008 56.1172 219.098 57.6618 221.637 59.7354C224.176 61.8089 226.101 64.4326 227.413 67.6064C228.767 70.7803 229.444 74.5254 229.444 78.8418C229.444 82.6504 228.683 86.1628 227.159 89.3789C225.636 92.5951 223.245 95.2188 219.986 97.25C216.77 99.2812 212.56 100.424 207.354 100.678L202.657 105.692ZM202.022 146H178.473L185.899 130.639H202.022C204.477 130.639 206.466 130.11 207.989 129.052C209.513 127.994 210.613 126.576 211.29 124.799C211.967 122.979 212.306 120.906 212.306 118.578C212.306 115.954 211.988 113.669 211.354 111.723C210.761 109.776 209.767 108.295 208.37 107.279C206.974 106.221 205.09 105.692 202.721 105.692H186.725L186.852 92.2354H206.275L210.655 97.5674C215.606 97.3981 219.563 98.3503 222.525 100.424C225.488 102.455 227.604 105.121 228.873 108.422C230.185 111.68 230.841 115.15 230.841 118.832C230.841 124.757 229.719 129.75 227.477 133.812C225.276 137.833 222.039 140.88 217.765 142.953C213.491 144.984 208.243 146 202.022 146ZM295.777 130.639V146H257.374V130.639H295.777ZM263.087 53.5781V146H244.488V53.5781H263.087ZM330.309 53.5781V146H311.837V53.5781H330.309ZM353.287 53.5781V69.0029H289.303V53.5781H353.287ZM402.164 121.688C402.164 120.038 402.016 118.536 401.72 117.182C401.424 115.827 400.789 114.579 399.815 113.437C398.884 112.294 397.509 111.151 395.689 110.009C393.912 108.866 391.585 107.681 388.707 106.454C385.279 105.015 381.957 103.492 378.741 101.884C375.525 100.233 372.626 98.3291 370.045 96.1709C367.464 94.0127 365.411 91.4736 363.888 88.5537C362.407 85.5915 361.666 82.1214 361.666 78.1436C361.666 74.2503 362.364 70.7168 363.761 67.543C365.2 64.3691 367.231 61.6608 369.854 59.418C372.478 57.1328 375.546 55.3766 379.059 54.1494C382.613 52.9222 386.57 52.3086 390.929 52.3086C396.853 52.3086 401.974 53.5358 406.29 55.9902C410.649 58.4447 414.013 61.8089 416.383 66.083C418.795 70.3571 420.001 75.266 420.001 80.8096H401.466C401.466 78.1859 401.085 75.8796 400.323 73.8906C399.604 71.8594 398.44 70.2725 396.832 69.1299C395.224 67.9873 393.15 67.416 390.611 67.416C388.242 67.416 386.274 67.9027 384.708 68.876C383.185 69.807 382.042 71.0977 381.28 72.748C380.561 74.3561 380.201 76.1758 380.201 78.207C380.201 79.7305 380.561 81.1058 381.28 82.333C382.042 83.5179 383.079 84.597 384.391 85.5703C385.702 86.5013 387.247 87.4111 389.024 88.2998C390.844 89.1885 392.833 90.056 394.991 90.9023C399.181 92.5527 402.883 94.3724 406.1 96.3613C409.316 98.3079 412.003 100.508 414.161 102.963C416.319 105.375 417.949 108.104 419.049 111.151C420.149 114.198 420.699 117.668 420.699 121.562C420.699 125.412 420.022 128.925 418.668 132.099C417.356 135.23 415.431 137.938 412.892 140.224C410.353 142.466 407.285 144.201 403.688 145.429C400.133 146.656 396.155 147.27 391.754 147.27C387.48 147.27 383.438 146.677 379.63 145.492C375.821 144.265 372.457 142.424 369.537 139.97C366.66 137.473 364.396 134.32 362.745 130.512C361.095 126.661 360.27 122.112 360.27 116.864H378.868C378.868 119.657 379.143 122.048 379.693 124.037C380.243 125.984 381.09 127.549 382.232 128.734C383.375 129.877 384.771 130.744 386.422 131.337C388.115 131.887 390.04 132.162 392.198 132.162C394.653 132.162 396.599 131.697 398.038 130.766C399.519 129.835 400.577 128.586 401.212 127.021C401.847 125.455 402.164 123.677 402.164 121.688Z" fill="#2D3E4D"/>
<path d="M71.2856 166.092H67.3909L67.3699 164.171H70.7712C71.3451 164.171 71.8315 164.087 72.2305 163.919C72.6364 163.744 72.9443 163.496 73.1543 163.174C73.3643 162.845 73.4692 162.449 73.4692 161.988C73.4692 161.477 73.3713 161.06 73.1753 160.738C72.9793 160.416 72.6784 160.182 72.2725 160.035C71.8735 159.888 71.3626 159.814 70.7397 159.814H68.1887V173H65.5537V157.715H70.7397C71.5796 157.715 72.3285 157.795 72.9863 157.956C73.6512 158.117 74.2146 158.369 74.6765 158.712C75.1454 159.048 75.4989 159.475 75.7368 159.993C75.9818 160.511 76.1042 161.127 76.1042 161.841C76.1042 162.47 75.9538 163.048 75.6528 163.573C75.3519 164.091 74.9075 164.514 74.3196 164.843C73.7317 165.172 73.0003 165.368 72.1255 165.431L71.2856 166.092ZM71.1702 173H66.5615L67.7478 170.911H71.1702C71.7651 170.911 72.262 170.813 72.6609 170.617C73.0598 170.414 73.3573 170.138 73.5532 169.788C73.7562 169.431 73.8577 169.014 73.8577 168.538C73.8577 168.041 73.7702 167.611 73.5952 167.247C73.4202 166.876 73.1438 166.593 72.7659 166.397C72.3879 166.194 71.8945 166.092 71.2856 166.092H68.3252L68.3462 164.171H72.199L72.7974 164.896C73.6372 164.924 74.3266 165.109 74.8655 165.452C75.4114 165.795 75.8173 166.239 76.0833 166.785C76.3492 167.331 76.4822 167.919 76.4822 168.549C76.4822 169.522 76.2687 170.337 75.8418 170.995C75.4219 171.653 74.8165 172.153 74.0256 172.496C73.2348 172.832 72.283 173 71.1702 173ZM85.29 170.722V165.305C85.29 164.899 85.2166 164.549 85.0696 164.255C84.9226 163.961 84.6986 163.734 84.3977 163.573C84.1038 163.412 83.7328 163.331 83.2849 163.331C82.872 163.331 82.5151 163.401 82.2141 163.541C81.9132 163.681 81.6787 163.87 81.5107 164.108C81.3428 164.346 81.2588 164.616 81.2588 164.917H78.7393C78.7393 164.469 78.8477 164.035 79.0647 163.615C79.2817 163.195 79.5966 162.82 80.0095 162.491C80.4224 162.163 80.9159 161.904 81.4897 161.715C82.0636 161.526 82.7075 161.431 83.4214 161.431C84.2752 161.431 85.0311 161.575 85.689 161.862C86.3538 162.149 86.8752 162.582 87.2532 163.163C87.6381 163.737 87.8306 164.458 87.8306 165.326V170.375C87.8306 170.893 87.8656 171.359 87.9355 171.772C88.0125 172.178 88.121 172.531 88.261 172.832V173H85.668C85.549 172.727 85.4545 172.381 85.3845 171.961C85.3215 171.534 85.29 171.121 85.29 170.722ZM85.6575 166.092L85.6785 167.656H83.8623C83.3934 167.656 82.9805 167.702 82.6235 167.793C82.2666 167.877 81.9692 168.003 81.7312 168.171C81.4932 168.339 81.3148 168.542 81.1958 168.78C81.0768 169.018 81.0173 169.287 81.0173 169.588C81.0173 169.889 81.0873 170.166 81.2273 170.417C81.3673 170.662 81.5702 170.855 81.8362 170.995C82.1091 171.135 82.4381 171.205 82.823 171.205C83.3409 171.205 83.7923 171.1 84.1772 170.89C84.5692 170.673 84.8771 170.41 85.1011 170.103C85.325 169.788 85.444 169.49 85.458 169.21L86.2769 170.333C86.1929 170.62 86.0494 170.928 85.8464 171.257C85.6435 171.586 85.3775 171.901 85.0486 172.202C84.7266 172.496 84.3382 172.738 83.8833 172.927C83.4354 173.115 82.9175 173.21 82.3296 173.21C81.5877 173.21 80.9264 173.063 80.3455 172.769C79.7646 172.468 79.3097 172.066 78.9807 171.562C78.6518 171.051 78.4873 170.473 78.4873 169.83C78.4873 169.228 78.5993 168.696 78.8232 168.234C79.0542 167.765 79.3901 167.373 79.8311 167.058C80.279 166.743 80.8249 166.505 81.4688 166.344C82.1126 166.176 82.8475 166.092 83.6733 166.092H85.6575ZM93.0166 163.804V173H90.4866V161.641H92.9011L93.0166 163.804ZM96.4915 161.568L96.4705 163.919C96.3165 163.891 96.1485 163.87 95.9666 163.856C95.7916 163.842 95.6166 163.835 95.4417 163.835C95.0077 163.835 94.6263 163.898 94.2974 164.024C93.9684 164.143 93.692 164.318 93.468 164.549C93.2511 164.773 93.0831 165.046 92.9641 165.368C92.8451 165.69 92.7751 166.05 92.7542 166.449L92.1768 166.491C92.1768 165.777 92.2467 165.116 92.3867 164.507C92.5267 163.898 92.7367 163.363 93.0166 162.901C93.3035 162.439 93.6605 162.079 94.0874 161.82C94.5213 161.561 95.0217 161.431 95.5886 161.431C95.7426 161.431 95.9071 161.445 96.082 161.473C96.264 161.501 96.4005 161.533 96.4915 161.568ZM104.103 170.722V165.305C104.103 164.899 104.029 164.549 103.882 164.255C103.735 163.961 103.511 163.734 103.21 163.573C102.916 163.412 102.545 163.331 102.097 163.331C101.684 163.331 101.328 163.401 101.027 163.541C100.726 163.681 100.491 163.87 100.323 164.108C100.155 164.346 100.071 164.616 100.071 164.917H97.5518C97.5518 164.469 97.6602 164.035 97.8772 163.615C98.0942 163.195 98.4091 162.82 98.822 162.491C99.2349 162.163 99.7284 161.904 100.302 161.715C100.876 161.526 101.52 161.431 102.234 161.431C103.088 161.431 103.844 161.575 104.501 161.862C105.166 162.149 105.688 162.582 106.066 163.163C106.451 163.737 106.643 164.458 106.643 165.326V170.375C106.643 170.893 106.678 171.359 106.748 171.772C106.825 172.178 106.934 172.531 107.073 172.832V173H104.48C104.361 172.727 104.267 172.381 104.197 171.961C104.134 171.534 104.103 171.121 104.103 170.722ZM104.47 166.092L104.491 167.656H102.675C102.206 167.656 101.793 167.702 101.436 167.793C101.079 167.877 100.782 168.003 100.544 168.171C100.306 168.339 100.127 168.542 100.008 168.78C99.8893 169.018 99.8298 169.287 99.8298 169.588C99.8298 169.889 99.8998 170.166 100.04 170.417C100.18 170.662 100.383 170.855 100.649 170.995C100.922 171.135 101.251 171.205 101.635 171.205C102.153 171.205 102.605 171.1 102.99 170.89C103.382 170.673 103.69 170.41 103.914 170.103C104.138 169.788 104.257 169.49 104.271 169.21L105.089 170.333C105.005 170.62 104.862 170.928 104.659 171.257C104.456 171.586 104.19 171.901 103.861 172.202C103.539 172.496 103.151 172.738 102.696 172.927C102.248 173.115 101.73 173.21 101.142 173.21C100.4 173.21 99.7389 173.063 99.158 172.769C98.5771 172.468 98.1222 172.066 97.7932 171.562C97.4643 171.051 97.2998 170.473 97.2998 169.83C97.2998 169.228 97.4118 168.696 97.6357 168.234C97.8667 167.765 98.2026 167.373 98.6436 167.058C99.0915 166.743 99.6374 166.505 100.281 166.344C100.925 166.176 101.66 166.092 102.486 166.092H104.47ZM111.798 164.066V173H109.268V161.641H111.651L111.798 164.066ZM111.346 166.901L110.527 166.89C110.534 166.085 110.646 165.347 110.863 164.675C111.087 164.003 111.395 163.426 111.787 162.943C112.186 162.46 112.662 162.089 113.215 161.83C113.768 161.564 114.384 161.431 115.062 161.431C115.608 161.431 116.102 161.508 116.543 161.662C116.991 161.809 117.372 162.051 117.687 162.386C118.009 162.722 118.254 163.16 118.422 163.699C118.59 164.231 118.674 164.885 118.674 165.662V173H116.133V165.651C116.133 165.105 116.053 164.675 115.892 164.36C115.738 164.038 115.51 163.811 115.209 163.678C114.916 163.538 114.548 163.468 114.107 163.468C113.673 163.468 113.285 163.559 112.942 163.741C112.599 163.923 112.309 164.171 112.071 164.486C111.84 164.801 111.661 165.165 111.535 165.578C111.409 165.991 111.346 166.432 111.346 166.901ZM128.531 161.641H130.831V172.685C130.831 173.707 130.614 174.575 130.18 175.289C129.746 176.002 129.14 176.545 128.364 176.916C127.587 177.294 126.687 177.483 125.666 177.483C125.232 177.483 124.749 177.42 124.217 177.294C123.692 177.168 123.181 176.965 122.684 176.685C122.194 176.412 121.785 176.051 121.456 175.604L122.642 174.113C123.048 174.596 123.496 174.949 123.986 175.173C124.476 175.397 124.99 175.509 125.529 175.509C126.11 175.509 126.603 175.401 127.009 175.184C127.422 174.974 127.741 174.662 127.965 174.249C128.189 173.836 128.301 173.332 128.301 172.738V164.213L128.531 161.641ZM120.815 167.447V167.226C120.815 166.365 120.92 165.581 121.13 164.875C121.34 164.161 121.641 163.548 122.033 163.037C122.425 162.519 122.901 162.124 123.461 161.851C124.021 161.571 124.654 161.431 125.361 161.431C126.096 161.431 126.722 161.564 127.24 161.83C127.765 162.096 128.203 162.477 128.552 162.974C128.902 163.464 129.175 164.052 129.371 164.738C129.574 165.417 129.725 166.173 129.823 167.006V167.709C129.732 168.521 129.578 169.263 129.361 169.935C129.144 170.606 128.857 171.187 128.5 171.677C128.143 172.167 127.702 172.545 127.177 172.811C126.659 173.077 126.047 173.21 125.34 173.21C124.647 173.21 124.021 173.066 123.461 172.78C122.908 172.493 122.432 172.09 122.033 171.572C121.641 171.054 121.34 170.445 121.13 169.746C120.92 169.039 120.815 168.272 120.815 167.447ZM123.345 167.226V167.447C123.345 167.964 123.394 168.447 123.492 168.895C123.597 169.343 123.755 169.739 123.965 170.082C124.182 170.417 124.455 170.683 124.784 170.879C125.12 171.068 125.515 171.163 125.97 171.163C126.565 171.163 127.051 171.037 127.429 170.785C127.814 170.533 128.108 170.194 128.311 169.767C128.521 169.333 128.668 168.85 128.752 168.318V166.418C128.71 166.005 128.622 165.62 128.49 165.263C128.364 164.906 128.192 164.595 127.975 164.329C127.758 164.056 127.485 163.846 127.156 163.699C126.827 163.545 126.439 163.468 125.991 163.468C125.536 163.468 125.141 163.566 124.805 163.762C124.469 163.958 124.192 164.227 123.975 164.57C123.765 164.913 123.608 165.312 123.503 165.767C123.398 166.222 123.345 166.708 123.345 167.226ZM139.859 170.722V165.305C139.859 164.899 139.785 164.549 139.638 164.255C139.491 163.961 139.267 163.734 138.967 163.573C138.673 163.412 138.302 163.331 137.854 163.331C137.441 163.331 137.084 163.401 136.783 163.541C136.482 163.681 136.248 163.87 136.08 164.108C135.912 164.346 135.828 164.616 135.828 164.917H133.308C133.308 164.469 133.417 164.035 133.634 163.615C133.851 163.195 134.165 162.82 134.578 162.491C134.991 162.163 135.485 161.904 136.059 161.715C136.632 161.526 137.276 161.431 137.99 161.431C138.844 161.431 139.6 161.575 140.258 161.862C140.923 162.149 141.444 162.582 141.822 163.163C142.207 163.737 142.399 164.458 142.399 165.326V170.375C142.399 170.893 142.434 171.359 142.504 171.772C142.581 172.178 142.69 172.531 142.83 172.832V173H140.237C140.118 172.727 140.023 172.381 139.953 171.961C139.89 171.534 139.859 171.121 139.859 170.722ZM140.226 166.092L140.247 167.656H138.431C137.962 167.656 137.549 167.702 137.192 167.793C136.835 167.877 136.538 168.003 136.3 168.171C136.062 168.339 135.884 168.542 135.765 168.78C135.646 169.018 135.586 169.287 135.586 169.588C135.586 169.889 135.656 170.166 135.796 170.417C135.936 170.662 136.139 170.855 136.405 170.995C136.678 171.135 137.007 171.205 137.392 171.205C137.91 171.205 138.361 171.1 138.746 170.89C139.138 170.673 139.446 170.41 139.67 170.103C139.894 169.788 140.013 169.49 140.027 169.21L140.846 170.333C140.762 170.62 140.618 170.928 140.415 171.257C140.212 171.586 139.946 171.901 139.617 172.202C139.295 172.496 138.907 172.738 138.452 172.927C138.004 173.115 137.486 173.21 136.898 173.21C136.157 173.21 135.495 173.063 134.914 172.769C134.333 172.468 133.878 172.066 133.55 171.562C133.221 171.051 133.056 170.473 133.056 169.83C133.056 169.228 133.168 168.696 133.392 168.234C133.623 167.765 133.959 167.373 134.4 167.058C134.848 166.743 135.394 166.505 136.038 166.344C136.681 166.176 137.416 166.092 138.242 166.092H140.226ZM148.173 171.761L151.26 161.641H153.968L149.412 174.732C149.307 175.012 149.171 175.317 149.003 175.646C148.835 175.974 148.614 176.286 148.341 176.58C148.075 176.881 147.743 177.122 147.344 177.304C146.945 177.493 146.462 177.588 145.895 177.588C145.671 177.588 145.454 177.567 145.244 177.525C145.041 177.49 144.849 177.451 144.667 177.409L144.656 175.478C144.726 175.485 144.81 175.492 144.908 175.499C145.013 175.506 145.097 175.509 145.16 175.509C145.58 175.509 145.93 175.457 146.21 175.352C146.49 175.254 146.718 175.093 146.893 174.869C147.075 174.645 147.229 174.344 147.354 173.966L148.173 171.761ZM146.431 161.641L149.129 170.145L149.58 172.811L147.827 173.262L143.701 161.641H146.431ZM170.597 170.911V173H162.923V170.911H170.597ZM163.658 157.715V173H161.023V157.715H163.658ZM177.389 173.21C176.55 173.21 175.79 173.073 175.111 172.801C174.439 172.521 173.866 172.132 173.39 171.635C172.921 171.138 172.56 170.554 172.308 169.882C172.056 169.21 171.93 168.486 171.93 167.709V167.289C171.93 166.4 172.06 165.595 172.319 164.875C172.578 164.154 172.938 163.538 173.4 163.027C173.862 162.509 174.408 162.114 175.038 161.841C175.668 161.568 176.35 161.431 177.085 161.431C177.897 161.431 178.607 161.568 179.216 161.841C179.825 162.114 180.329 162.498 180.728 162.995C181.134 163.485 181.435 164.07 181.631 164.749C181.834 165.427 181.935 166.176 181.935 166.995V168.076H173.159V166.26H179.437V166.061C179.423 165.606 179.332 165.179 179.164 164.78C179.003 164.381 178.754 164.059 178.418 163.814C178.082 163.569 177.634 163.447 177.074 163.447C176.655 163.447 176.28 163.538 175.951 163.72C175.629 163.895 175.36 164.15 175.143 164.486C174.926 164.822 174.758 165.228 174.639 165.704C174.527 166.173 174.471 166.701 174.471 167.289V167.709C174.471 168.206 174.537 168.668 174.67 169.095C174.81 169.515 175.013 169.882 175.279 170.197C175.545 170.512 175.867 170.76 176.245 170.942C176.623 171.117 177.053 171.205 177.536 171.205C178.145 171.205 178.688 171.082 179.164 170.837C179.639 170.592 180.052 170.246 180.402 169.798L181.736 171.089C181.491 171.446 181.172 171.789 180.78 172.118C180.388 172.44 179.909 172.703 179.342 172.906C178.782 173.108 178.131 173.21 177.389 173.21ZM191.184 161.641H193.483V172.685C193.483 173.707 193.266 174.575 192.832 175.289C192.398 176.002 191.793 176.545 191.016 176.916C190.239 177.294 189.34 177.483 188.318 177.483C187.884 177.483 187.401 177.42 186.869 177.294C186.344 177.168 185.833 176.965 185.336 176.685C184.847 176.412 184.437 176.051 184.108 175.604L185.294 174.113C185.7 174.596 186.148 174.949 186.638 175.173C187.128 175.397 187.642 175.509 188.181 175.509C188.762 175.509 189.256 175.401 189.662 175.184C190.075 174.974 190.393 174.662 190.617 174.249C190.841 173.836 190.953 173.332 190.953 172.738V164.213L191.184 161.641ZM183.468 167.447V167.226C183.468 166.365 183.573 165.581 183.783 164.875C183.993 164.161 184.294 163.548 184.686 163.037C185.077 162.519 185.553 162.124 186.113 161.851C186.673 161.571 187.307 161.431 188.013 161.431C188.748 161.431 189.375 161.564 189.893 161.83C190.417 162.096 190.855 162.477 191.205 162.974C191.555 163.464 191.828 164.052 192.024 164.738C192.227 165.417 192.377 166.173 192.475 167.006V167.709C192.384 168.521 192.23 169.263 192.013 169.935C191.796 170.606 191.509 171.187 191.152 171.677C190.795 172.167 190.354 172.545 189.83 172.811C189.312 173.077 188.699 173.21 187.992 173.21C187.3 173.21 186.673 173.066 186.113 172.78C185.56 172.493 185.084 172.09 184.686 171.572C184.294 171.054 183.993 170.445 183.783 169.746C183.573 169.039 183.468 168.272 183.468 167.447ZM185.998 167.226V167.447C185.998 167.964 186.047 168.447 186.145 168.895C186.25 169.343 186.407 169.739 186.617 170.082C186.834 170.417 187.107 170.683 187.436 170.879C187.772 171.068 188.167 171.163 188.622 171.163C189.217 171.163 189.704 171.037 190.082 170.785C190.466 170.533 190.76 170.194 190.963 169.767C191.173 169.333 191.32 168.85 191.404 168.318V166.418C191.362 166.005 191.275 165.62 191.142 165.263C191.016 164.906 190.844 164.595 190.627 164.329C190.41 164.056 190.138 163.846 189.809 163.699C189.48 163.545 189.091 163.468 188.643 163.468C188.188 163.468 187.793 163.566 187.457 163.762C187.121 163.958 186.845 164.227 186.628 164.57C186.418 164.913 186.26 165.312 186.155 165.767C186.05 166.222 185.998 166.708 185.998 167.226ZM198.816 161.641V173H196.275V161.641H198.816ZM196.107 158.66C196.107 158.275 196.233 157.956 196.485 157.704C196.744 157.445 197.101 157.316 197.556 157.316C198.004 157.316 198.358 157.445 198.616 157.704C198.875 157.956 199.005 158.275 199.005 158.66C199.005 159.038 198.875 159.353 198.616 159.604C198.358 159.856 198.004 159.982 197.556 159.982C197.101 159.982 196.744 159.856 196.485 159.604C196.233 159.353 196.107 159.038 196.107 158.66ZM207.96 169.924C207.96 169.672 207.897 169.445 207.771 169.242C207.645 169.032 207.403 168.843 207.046 168.675C206.696 168.507 206.179 168.353 205.493 168.213C204.891 168.08 204.338 167.922 203.834 167.74C203.337 167.552 202.91 167.324 202.553 167.058C202.196 166.792 201.92 166.477 201.724 166.113C201.528 165.749 201.43 165.329 201.43 164.854C201.43 164.392 201.531 163.954 201.734 163.541C201.937 163.128 202.228 162.764 202.606 162.449C202.984 162.135 203.442 161.886 203.981 161.704C204.527 161.522 205.136 161.431 205.808 161.431C206.759 161.431 207.575 161.592 208.254 161.914C208.94 162.229 209.464 162.659 209.828 163.205C210.192 163.744 210.374 164.353 210.374 165.032H207.844C207.844 164.731 207.767 164.451 207.613 164.192C207.466 163.926 207.242 163.713 206.941 163.552C206.64 163.384 206.263 163.3 205.808 163.3C205.374 163.3 205.013 163.37 204.726 163.51C204.446 163.643 204.236 163.818 204.096 164.035C203.963 164.252 203.897 164.49 203.897 164.749C203.897 164.938 203.932 165.109 204.002 165.263C204.079 165.41 204.205 165.546 204.38 165.672C204.555 165.791 204.793 165.903 205.094 166.008C205.402 166.113 205.787 166.215 206.249 166.313C207.116 166.495 207.862 166.729 208.485 167.016C209.115 167.296 209.597 167.66 209.933 168.108C210.269 168.549 210.437 169.109 210.437 169.788C210.437 170.292 210.329 170.753 210.112 171.173C209.902 171.586 209.594 171.947 209.188 172.255C208.782 172.556 208.296 172.79 207.729 172.958C207.169 173.126 206.539 173.21 205.839 173.21C204.81 173.21 203.939 173.028 203.225 172.664C202.511 172.293 201.969 171.821 201.598 171.247C201.234 170.666 201.052 170.064 201.052 169.441H203.498C203.526 169.91 203.656 170.285 203.886 170.564C204.124 170.837 204.418 171.037 204.768 171.163C205.125 171.282 205.493 171.341 205.871 171.341C206.326 171.341 206.707 171.282 207.015 171.163C207.323 171.037 207.557 170.869 207.718 170.659C207.879 170.442 207.96 170.197 207.96 169.924ZM215.361 156.875V173H212.82V156.875H215.361ZM224.536 170.722V165.305C224.536 164.899 224.463 164.549 224.316 164.255C224.169 163.961 223.945 163.734 223.644 163.573C223.35 163.412 222.979 163.331 222.531 163.331C222.118 163.331 221.761 163.401 221.46 163.541C221.159 163.681 220.925 163.87 220.757 164.108C220.589 164.346 220.505 164.616 220.505 164.917H217.985C217.985 164.469 218.094 164.035 218.311 163.615C218.528 163.195 218.843 162.82 219.256 162.491C219.669 162.163 220.162 161.904 220.736 161.715C221.31 161.526 221.954 161.431 222.667 161.431C223.521 161.431 224.277 161.575 224.935 161.862C225.6 162.149 226.121 162.582 226.499 163.163C226.884 163.737 227.077 164.458 227.077 165.326V170.375C227.077 170.893 227.112 171.359 227.182 171.772C227.259 172.178 227.367 172.531 227.507 172.832V173H224.914C224.795 172.727 224.701 172.381 224.631 171.961C224.568 171.534 224.536 171.121 224.536 170.722ZM224.904 166.092L224.925 167.656H223.108C222.639 167.656 222.227 167.702 221.87 167.793C221.513 167.877 221.215 168.003 220.977 168.171C220.739 168.339 220.561 168.542 220.442 168.78C220.323 169.018 220.263 169.287 220.263 169.588C220.263 169.889 220.333 170.166 220.473 170.417C220.613 170.662 220.816 170.855 221.082 170.995C221.355 171.135 221.684 171.205 222.069 171.205C222.587 171.205 223.038 171.1 223.423 170.89C223.815 170.673 224.123 170.41 224.347 170.103C224.571 169.788 224.69 169.49 224.704 169.21L225.523 170.333C225.439 170.62 225.295 170.928 225.093 171.257C224.89 171.586 224.624 171.901 224.295 172.202C223.973 172.496 223.584 172.738 223.129 172.927C222.681 173.115 222.164 173.21 221.576 173.21C220.834 173.21 220.172 173.063 219.592 172.769C219.011 172.468 218.556 172.066 218.227 171.562C217.898 171.051 217.733 170.473 217.733 169.83C217.733 169.228 217.845 168.696 218.069 168.234C218.3 167.765 218.636 167.373 219.077 167.058C219.525 166.743 220.071 166.505 220.715 166.344C221.359 166.176 222.094 166.092 222.919 166.092H224.904ZM234.929 161.641V163.489H228.525V161.641H234.929ZM230.373 158.859H232.903V169.861C232.903 170.211 232.952 170.48 233.05 170.669C233.155 170.851 233.299 170.974 233.48 171.037C233.662 171.1 233.876 171.131 234.121 171.131C234.296 171.131 234.464 171.121 234.625 171.1C234.786 171.079 234.915 171.058 235.013 171.037L235.024 172.969C234.814 173.031 234.569 173.087 234.289 173.136C234.016 173.185 233.701 173.21 233.344 173.21C232.763 173.21 232.249 173.108 231.801 172.906C231.353 172.696 231.003 172.356 230.751 171.887C230.499 171.418 230.373 170.795 230.373 170.019V158.859ZM239.59 161.641V173H237.05V161.641H239.59ZM236.882 158.66C236.882 158.275 237.008 157.956 237.26 157.704C237.519 157.445 237.876 157.316 238.331 157.316C238.778 157.316 239.132 157.445 239.391 157.704C239.65 157.956 239.779 158.275 239.779 158.66C239.779 159.038 239.65 159.353 239.391 159.604C239.132 159.856 238.778 159.982 238.331 159.982C237.876 159.982 237.519 159.856 237.26 159.604C237.008 159.353 236.882 159.038 236.882 158.66ZM246.057 170.995L248.839 161.641H251.464L247.516 173H245.879L246.057 170.995ZM243.926 161.641L246.76 171.037L246.897 173H245.259L241.291 161.641H243.926ZM257.888 173.21C257.049 173.21 256.289 173.073 255.61 172.801C254.938 172.521 254.365 172.132 253.889 171.635C253.42 171.138 253.059 170.554 252.807 169.882C252.555 169.21 252.429 168.486 252.429 167.709V167.289C252.429 166.4 252.559 165.595 252.818 164.875C253.077 164.154 253.437 163.538 253.899 163.027C254.361 162.509 254.907 162.114 255.537 161.841C256.167 161.568 256.849 161.431 257.584 161.431C258.396 161.431 259.106 161.568 259.715 161.841C260.324 162.114 260.828 162.498 261.227 162.995C261.633 163.485 261.934 164.07 262.13 164.749C262.333 165.427 262.434 166.176 262.434 166.995V168.076H253.658V166.26H259.936V166.061C259.922 165.606 259.831 165.179 259.663 164.78C259.502 164.381 259.253 164.059 258.917 163.814C258.581 163.569 258.133 163.447 257.573 163.447C257.154 163.447 256.779 163.538 256.45 163.72C256.128 163.895 255.859 164.15 255.642 164.486C255.425 164.822 255.257 165.228 255.138 165.704C255.026 166.173 254.97 166.701 254.97 167.289V167.709C254.97 168.206 255.036 168.668 255.169 169.095C255.309 169.515 255.512 169.882 255.778 170.197C256.044 170.512 256.366 170.76 256.744 170.942C257.122 171.117 257.552 171.205 258.035 171.205C258.644 171.205 259.187 171.082 259.663 170.837C260.139 170.592 260.551 170.246 260.901 169.798L262.235 171.089C261.99 171.446 261.671 171.789 261.279 172.118C260.887 172.44 260.408 172.703 259.841 172.906C259.281 173.108 258.63 173.21 257.888 173.21ZM275.798 157.715V173H273.184V157.715H275.798ZM280.596 157.715V159.814H268.428V157.715H280.596ZM284.144 163.804V173H281.614V161.641H284.029L284.144 163.804ZM287.619 161.568L287.598 163.919C287.444 163.891 287.276 163.87 287.094 163.856C286.919 163.842 286.744 163.835 286.569 163.835C286.135 163.835 285.754 163.898 285.425 164.024C285.096 164.143 284.819 164.318 284.595 164.549C284.378 164.773 284.211 165.046 284.092 165.368C283.973 165.69 283.903 166.05 283.882 166.449L283.304 166.491C283.304 165.777 283.374 165.116 283.514 164.507C283.654 163.898 283.864 163.363 284.144 162.901C284.431 162.439 284.788 162.079 285.215 161.82C285.649 161.561 286.149 161.431 286.716 161.431C286.87 161.431 287.035 161.445 287.209 161.473C287.391 161.501 287.528 161.533 287.619 161.568ZM295.23 170.722V165.305C295.23 164.899 295.156 164.549 295.01 164.255C294.863 163.961 294.639 163.734 294.338 163.573C294.044 163.412 293.673 163.331 293.225 163.331C292.812 163.331 292.455 163.401 292.154 163.541C291.853 163.681 291.619 163.87 291.451 164.108C291.283 164.346 291.199 164.616 291.199 164.917H288.679C288.679 164.469 288.788 164.035 289.005 163.615C289.222 163.195 289.537 162.82 289.949 162.491C290.362 162.163 290.856 161.904 291.43 161.715C292.004 161.526 292.647 161.431 293.361 161.431C294.215 161.431 294.971 161.575 295.629 161.862C296.294 162.149 296.815 162.582 297.193 163.163C297.578 163.737 297.771 164.458 297.771 165.326V170.375C297.771 170.893 297.806 171.359 297.875 171.772C297.952 172.178 298.061 172.531 298.201 172.832V173H295.608C295.489 172.727 295.394 172.381 295.324 171.961C295.261 171.534 295.23 171.121 295.23 170.722ZM295.597 166.092L295.618 167.656H293.802C293.333 167.656 292.92 167.702 292.563 167.793C292.207 167.877 291.909 168.003 291.671 168.171C291.433 168.339 291.255 168.542 291.136 168.78C291.017 169.018 290.957 169.287 290.957 169.588C290.957 169.889 291.027 170.166 291.167 170.417C291.307 170.662 291.51 170.855 291.776 170.995C292.049 171.135 292.378 171.205 292.763 171.205C293.281 171.205 293.732 171.1 294.117 170.89C294.509 170.673 294.817 170.41 295.041 170.103C295.265 169.788 295.384 169.49 295.398 169.21L296.217 170.333C296.133 170.62 295.989 170.928 295.786 171.257C295.583 171.586 295.317 171.901 294.989 172.202C294.667 172.496 294.278 172.738 293.823 172.927C293.375 173.115 292.857 173.21 292.27 173.21C291.528 173.21 290.866 173.063 290.285 172.769C289.705 172.468 289.25 172.066 288.921 171.562C288.592 171.051 288.427 170.473 288.427 169.83C288.427 169.228 288.539 168.696 288.763 168.234C288.994 167.765 289.33 167.373 289.771 167.058C290.219 166.743 290.765 166.505 291.409 166.344C292.053 166.176 292.787 166.092 293.613 166.092H295.597ZM305.056 171.194C305.469 171.194 305.84 171.114 306.169 170.953C306.505 170.785 306.774 170.554 306.977 170.26C307.187 169.966 307.303 169.627 307.324 169.242H309.707C309.693 169.977 309.476 170.645 309.056 171.247C308.636 171.849 308.08 172.328 307.387 172.685C306.694 173.035 305.927 173.21 305.088 173.21C304.22 173.21 303.464 173.063 302.82 172.769C302.176 172.468 301.641 172.055 301.214 171.53C300.787 171.005 300.465 170.4 300.248 169.714C300.038 169.028 299.933 168.293 299.933 167.51V167.142C299.933 166.358 300.038 165.623 300.248 164.938C300.465 164.245 300.787 163.636 301.214 163.111C301.641 162.586 302.176 162.177 302.82 161.883C303.464 161.582 304.216 161.431 305.077 161.431C305.987 161.431 306.785 161.613 307.471 161.977C308.157 162.334 308.695 162.834 309.087 163.478C309.486 164.115 309.693 164.857 309.707 165.704H307.324C307.303 165.284 307.198 164.906 307.009 164.57C306.827 164.227 306.568 163.954 306.232 163.751C305.903 163.548 305.508 163.447 305.046 163.447C304.535 163.447 304.111 163.552 303.775 163.762C303.439 163.965 303.177 164.245 302.988 164.602C302.799 164.951 302.663 165.347 302.579 165.788C302.502 166.222 302.463 166.673 302.463 167.142V167.51C302.463 167.978 302.502 168.433 302.579 168.874C302.656 169.315 302.789 169.711 302.978 170.061C303.174 170.403 303.439 170.68 303.775 170.89C304.111 171.093 304.538 171.194 305.056 171.194ZM314.2 156.875V173H311.659V156.875H314.2ZM321.255 161.641L316.31 167.121L313.602 169.893L312.94 167.751L314.987 165.221L318.2 161.641H321.255ZM318.746 173L315.061 167.667L316.656 165.893L321.675 173H318.746ZM325.569 161.641V173H323.029V161.641H325.569ZM322.861 158.66C322.861 158.275 322.987 157.956 323.239 157.704C323.498 157.445 323.855 157.316 324.31 157.316C324.757 157.316 325.111 157.445 325.37 157.704C325.629 157.956 325.758 158.275 325.758 158.66C325.758 159.038 325.629 159.353 325.37 159.604C325.111 159.856 324.757 159.982 324.31 159.982C323.855 159.982 323.498 159.856 323.239 159.604C322.987 159.353 322.861 159.038 322.861 158.66ZM330.85 164.066V173H328.32V161.641H330.703L330.85 164.066ZM330.398 166.901L329.58 166.89C329.587 166.085 329.699 165.347 329.916 164.675C330.139 164.003 330.447 163.426 330.839 162.943C331.238 162.46 331.714 162.089 332.267 161.83C332.82 161.564 333.436 161.431 334.115 161.431C334.661 161.431 335.154 161.508 335.595 161.662C336.043 161.809 336.424 162.051 336.739 162.386C337.061 162.722 337.306 163.16 337.474 163.699C337.642 164.231 337.726 164.885 337.726 165.662V173H335.186V165.651C335.186 165.105 335.105 164.675 334.944 164.36C334.79 164.038 334.563 163.811 334.262 163.678C333.968 163.538 333.6 163.468 333.159 163.468C332.726 163.468 332.337 163.559 331.994 163.741C331.651 163.923 331.361 164.171 331.123 164.486C330.892 164.801 330.713 165.165 330.587 165.578C330.461 165.991 330.398 166.432 330.398 166.901ZM347.584 161.641H349.883V172.685C349.883 173.707 349.666 174.575 349.232 175.289C348.798 176.002 348.193 176.545 347.416 176.916C346.639 177.294 345.74 177.483 344.718 177.483C344.284 177.483 343.801 177.42 343.269 177.294C342.744 177.168 342.233 176.965 341.736 176.685C341.246 176.412 340.837 176.051 340.508 175.604L341.694 174.113C342.1 174.596 342.548 174.949 343.038 175.173C343.528 175.397 344.042 175.509 344.581 175.509C345.162 175.509 345.656 175.401 346.062 175.184C346.474 174.974 346.793 174.662 347.017 174.249C347.241 173.836 347.353 173.332 347.353 172.738V164.213L347.584 161.641ZM339.868 167.447V167.226C339.868 166.365 339.973 165.581 340.183 164.875C340.393 164.161 340.694 163.548 341.085 163.037C341.477 162.519 341.953 162.124 342.513 161.851C343.073 161.571 343.706 161.431 344.413 161.431C345.148 161.431 345.775 161.564 346.292 161.83C346.817 162.096 347.255 162.477 347.605 162.974C347.955 163.464 348.228 164.052 348.424 164.738C348.627 165.417 348.777 166.173 348.875 167.006V167.709C348.784 168.521 348.63 169.263 348.413 169.935C348.196 170.606 347.909 171.187 347.552 171.677C347.195 172.167 346.754 172.545 346.229 172.811C345.712 173.077 345.099 173.21 344.392 173.21C343.699 173.21 343.073 173.066 342.513 172.78C341.96 172.493 341.484 172.09 341.085 171.572C340.694 171.054 340.393 170.445 340.183 169.746C339.973 169.039 339.868 168.272 339.868 167.447ZM342.398 167.226V167.447C342.398 167.964 342.447 168.447 342.545 168.895C342.65 169.343 342.807 169.739 343.017 170.082C343.234 170.417 343.507 170.683 343.836 170.879C344.172 171.068 344.567 171.163 345.022 171.163C345.617 171.163 346.104 171.037 346.481 170.785C346.866 170.533 347.16 170.194 347.363 169.767C347.573 169.333 347.72 168.85 347.804 168.318V166.418C347.762 166.005 347.675 165.62 347.542 165.263C347.416 164.906 347.244 164.595 347.027 164.329C346.81 164.056 346.537 163.846 346.208 163.699C345.88 163.545 345.491 163.468 345.043 163.468C344.588 163.468 344.193 163.566 343.857 163.762C343.521 163.958 343.245 164.227 343.028 164.57C342.818 164.913 342.66 165.312 342.555 165.767C342.45 166.222 342.398 166.708 342.398 167.226ZM366.155 169.063C366.155 168.748 366.106 168.468 366.008 168.223C365.917 167.978 365.752 167.754 365.514 167.552C365.276 167.349 364.941 167.153 364.507 166.964C364.08 166.768 363.534 166.568 362.869 166.365C362.141 166.141 361.469 165.893 360.853 165.62C360.244 165.34 359.712 165.018 359.258 164.654C358.803 164.283 358.449 163.86 358.197 163.384C357.945 162.901 357.819 162.344 357.819 161.715C357.819 161.092 357.949 160.525 358.208 160.014C358.474 159.503 358.848 159.062 359.331 158.691C359.821 158.313 360.398 158.023 361.063 157.82C361.728 157.61 362.463 157.505 363.268 157.505C364.402 157.505 365.378 157.715 366.197 158.135C367.023 158.555 367.656 159.118 368.097 159.825C368.545 160.532 368.769 161.312 368.769 162.166H366.155C366.155 161.662 366.046 161.218 365.829 160.833C365.619 160.441 365.297 160.133 364.864 159.909C364.437 159.685 363.894 159.573 363.236 159.573C362.613 159.573 362.096 159.667 361.683 159.856C361.27 160.045 360.962 160.301 360.759 160.623C360.556 160.945 360.454 161.309 360.454 161.715C360.454 162.002 360.521 162.264 360.654 162.502C360.787 162.733 360.99 162.95 361.263 163.153C361.536 163.349 361.879 163.534 362.292 163.709C362.704 163.884 363.191 164.052 363.751 164.213C364.598 164.465 365.336 164.745 365.966 165.053C366.596 165.354 367.121 165.697 367.541 166.082C367.96 166.467 368.275 166.904 368.485 167.394C368.695 167.877 368.8 168.426 368.8 169.042C368.8 169.686 368.671 170.267 368.412 170.785C368.153 171.296 367.782 171.733 367.299 172.097C366.823 172.454 366.249 172.731 365.577 172.927C364.913 173.115 364.171 173.21 363.352 173.21C362.617 173.21 361.893 173.112 361.179 172.916C360.472 172.72 359.828 172.423 359.247 172.024C358.666 171.618 358.204 171.114 357.861 170.512C357.518 169.903 357.347 169.193 357.347 168.381H359.982C359.982 168.878 360.066 169.301 360.234 169.651C360.409 170.001 360.65 170.288 360.958 170.512C361.266 170.729 361.623 170.89 362.029 170.995C362.442 171.1 362.883 171.152 363.352 171.152C363.968 171.152 364.482 171.065 364.895 170.89C365.315 170.715 365.63 170.47 365.84 170.155C366.05 169.84 366.155 169.476 366.155 169.063ZM374.175 171.761L377.262 161.641H379.97L375.414 174.732C375.309 175.012 375.173 175.317 375.005 175.646C374.837 175.974 374.616 176.286 374.343 176.58C374.077 176.881 373.745 177.122 373.346 177.304C372.947 177.493 372.464 177.588 371.897 177.588C371.673 177.588 371.456 177.567 371.246 177.525C371.043 177.49 370.851 177.451 370.669 177.409L370.658 175.478C370.728 175.485 370.812 175.492 370.91 175.499C371.015 175.506 371.099 175.509 371.162 175.509C371.582 175.509 371.932 175.457 372.212 175.352C372.492 175.254 372.72 175.093 372.895 174.869C373.076 174.645 373.23 174.344 373.356 173.966L374.175 171.761ZM372.433 161.641L375.131 170.145L375.582 172.811L373.829 173.262L369.703 161.641H372.433ZM387.791 169.924C387.791 169.672 387.728 169.445 387.602 169.242C387.476 169.032 387.235 168.843 386.878 168.675C386.528 168.507 386.01 168.353 385.324 168.213C384.722 168.08 384.169 167.922 383.666 167.74C383.169 167.552 382.742 167.324 382.385 167.058C382.028 166.792 381.751 166.477 381.555 166.113C381.359 165.749 381.261 165.329 381.261 164.854C381.261 164.392 381.363 163.954 381.566 163.541C381.769 163.128 382.059 162.764 382.437 162.449C382.815 162.135 383.274 161.886 383.812 161.704C384.358 161.522 384.967 161.431 385.639 161.431C386.591 161.431 387.406 161.592 388.085 161.914C388.771 162.229 389.296 162.659 389.66 163.205C390.024 163.744 390.206 164.353 390.206 165.032H387.676C387.676 164.731 387.599 164.451 387.445 164.192C387.298 163.926 387.074 163.713 386.773 163.552C386.472 163.384 386.094 163.3 385.639 163.3C385.205 163.3 384.845 163.37 384.558 163.51C384.278 163.643 384.068 163.818 383.928 164.035C383.795 164.252 383.729 164.49 383.729 164.749C383.729 164.938 383.764 165.109 383.833 165.263C383.91 165.41 384.036 165.546 384.211 165.672C384.386 165.791 384.624 165.903 384.925 166.008C385.233 166.113 385.618 166.215 386.08 166.313C386.948 166.495 387.693 166.729 388.316 167.016C388.946 167.296 389.429 167.66 389.765 168.108C390.101 168.549 390.269 169.109 390.269 169.788C390.269 170.292 390.16 170.753 389.943 171.173C389.733 171.586 389.425 171.947 389.02 172.255C388.614 172.556 388.127 172.79 387.56 172.958C387 173.126 386.371 173.21 385.671 173.21C384.642 173.21 383.771 173.028 383.057 172.664C382.343 172.293 381.8 171.821 381.429 171.247C381.066 170.666 380.884 170.064 380.884 169.441H383.33C383.358 169.91 383.487 170.285 383.718 170.564C383.956 170.837 384.25 171.037 384.6 171.163C384.957 171.282 385.324 171.341 385.702 171.341C386.157 171.341 386.538 171.282 386.846 171.163C387.154 171.037 387.389 170.869 387.55 170.659C387.711 170.442 387.791 170.197 387.791 169.924ZM397.691 161.641V163.489H391.287V161.641H397.691ZM393.135 158.859H395.665V169.861C395.665 170.211 395.714 170.48 395.812 170.669C395.917 170.851 396.06 170.974 396.242 171.037C396.424 171.1 396.638 171.131 396.883 171.131C397.058 171.131 397.226 171.121 397.386 171.1C397.547 171.079 397.677 171.058 397.775 171.037L397.785 172.969C397.575 173.031 397.33 173.087 397.051 173.136C396.778 173.185 396.463 173.21 396.106 173.21C395.525 173.21 395.01 173.108 394.562 172.906C394.115 172.696 393.765 172.356 393.513 171.887C393.261 171.418 393.135 170.795 393.135 170.019V158.859ZM404.651 173.21C403.811 173.21 403.052 173.073 402.373 172.801C401.701 172.521 401.127 172.132 400.651 171.635C400.182 171.138 399.822 170.554 399.57 169.882C399.318 169.21 399.192 168.486 399.192 167.709V167.289C399.192 166.4 399.322 165.595 399.581 164.875C399.84 164.154 400.2 163.538 400.662 163.027C401.124 162.509 401.67 162.114 402.3 161.841C402.929 161.568 403.612 161.431 404.347 161.431C405.159 161.431 405.869 161.568 406.478 161.841C407.087 162.114 407.591 162.498 407.99 162.995C408.395 163.485 408.696 164.07 408.892 164.749C409.095 165.427 409.197 166.176 409.197 166.995V168.076H400.42V166.26H406.698V166.061C406.684 165.606 406.593 165.179 406.425 164.78C406.264 164.381 406.016 164.059 405.68 163.814C405.344 163.569 404.896 163.447 404.336 163.447C403.916 163.447 403.542 163.538 403.213 163.72C402.891 163.895 402.622 164.15 402.405 164.486C402.188 164.822 402.02 165.228 401.901 165.704C401.789 166.173 401.733 166.701 401.733 167.289V167.709C401.733 168.206 401.799 168.668 401.932 169.095C402.072 169.515 402.275 169.882 402.541 170.197C402.807 170.512 403.129 170.76 403.507 170.942C403.885 171.117 404.315 171.205 404.798 171.205C405.407 171.205 405.949 171.082 406.425 170.837C406.901 170.592 407.314 170.246 407.664 169.798L408.997 171.089C408.752 171.446 408.434 171.789 408.042 172.118C407.65 172.44 407.171 172.703 406.604 172.906C406.044 173.108 405.393 173.21 404.651 173.21ZM413.7 163.951V173H411.17V161.641H413.553L413.7 163.951ZM413.291 166.901L412.43 166.89C412.43 166.106 412.528 165.382 412.724 164.717C412.92 164.052 413.207 163.475 413.585 162.985C413.963 162.488 414.432 162.107 414.992 161.841C415.559 161.568 416.213 161.431 416.955 161.431C417.473 161.431 417.945 161.508 418.372 161.662C418.806 161.809 419.18 162.044 419.495 162.365C419.817 162.687 420.062 163.1 420.23 163.604C420.405 164.108 420.493 164.717 420.493 165.431V173H417.963V165.651C417.963 165.098 417.879 164.665 417.711 164.35C417.55 164.035 417.315 163.811 417.007 163.678C416.706 163.538 416.346 163.468 415.926 163.468C415.45 163.468 415.044 163.559 414.708 163.741C414.379 163.923 414.11 164.171 413.9 164.486C413.69 164.801 413.536 165.165 413.438 165.578C413.34 165.991 413.291 166.432 413.291 166.901ZM420.335 166.229L419.149 166.491C419.149 165.805 419.243 165.158 419.432 164.549C419.628 163.933 419.912 163.394 420.283 162.932C420.661 162.463 421.126 162.096 421.679 161.83C422.232 161.564 422.865 161.431 423.579 161.431C424.16 161.431 424.678 161.512 425.133 161.673C425.595 161.827 425.987 162.072 426.309 162.407C426.631 162.743 426.875 163.181 427.043 163.72C427.211 164.252 427.295 164.896 427.295 165.651V173H424.755V165.641C424.755 165.067 424.671 164.623 424.503 164.308C424.342 163.993 424.111 163.776 423.81 163.657C423.509 163.531 423.149 163.468 422.729 163.468C422.337 163.468 421.99 163.541 421.689 163.688C421.396 163.828 421.147 164.028 420.944 164.287C420.741 164.539 420.587 164.829 420.482 165.158C420.384 165.487 420.335 165.844 420.335 166.229Z" fill="#2D3E4D"/>
</svg>
