<svg width="610" height="250" viewBox="0 0 610 250" fill="none" xmlns="http://www.w3.org/2000/svg">
<path d="M73.6922 98.9097L73.7529 87.429C73.8258 73.6221 85.0777 62.4885 98.8846 62.5614L110.365 62.6221L110.173 99.1024L73.6922 98.9097Z" fill="#A60453"/>
<rect x="73.4984" y="135.604" width="36.4809" height="36.4809" transform="rotate(-89.6973 73.4984 135.604)" fill="#D0154C"/>
<path d="M98.3042 172.431C84.4973 172.358 73.3637 161.106 73.4366 147.299L73.4973 135.818L109.978 136.011L109.785 172.491L98.3042 172.431Z" fill="#FF2941"/>
<path d="M110.579 62.6232L147.06 62.8159L146.867 99.2963L110.387 99.1036L110.579 62.6232Z" fill="#D0154C"/>
<path d="M183.366 136.399L183.306 147.879C183.233 161.686 171.981 172.82 158.174 172.747L146.693 172.686L146.886 136.206L183.366 136.399Z" fill="#FFB144"/>
<rect x="183.56" y="99.7041" width="36.4809" height="36.4809" transform="rotate(90.3027 183.56 99.7041)" fill="#FF6F43"/>
<rect x="146.479" y="172.685" width="36.4809" height="36.4809" transform="rotate(-179.697 146.479 172.685)" fill="#FF6F43"/>
<path d="M178.071 51.3879C190.914 56.4563 197.217 70.9766 192.149 83.8198L187.934 94.4991L154 81.1074L167.392 47.1734L178.071 51.3879Z" fill="#FF2941"/>
<path d="M246.482 111.866H227.566L227.503 98.4088H243.626C246.165 98.4088 248.239 97.9856 249.847 97.1392C251.497 96.2505 252.703 94.9599 253.465 93.2672C254.269 91.5321 254.671 89.4374 254.671 86.983C254.671 84.1477 254.311 81.8837 253.592 80.191C252.872 78.456 251.709 77.1864 250.101 76.3824C248.492 75.5783 246.398 75.1763 243.816 75.1763H233.914V152.173H215.315V59.7515H243.816C248.429 59.7515 252.555 60.2593 256.194 61.275C259.834 62.2906 262.923 63.8352 265.462 65.9088C268.001 67.9823 269.926 70.606 271.238 73.7798C272.592 76.9537 273.269 80.6988 273.269 85.0152C273.269 88.8238 272.508 92.3362 270.984 95.5523C269.461 98.7685 267.07 101.392 263.811 103.423C260.595 105.455 256.385 106.597 251.18 106.851L246.482 111.866ZM245.848 152.173H222.298L229.725 136.812H245.848C248.302 136.812 250.291 136.283 251.814 135.225C253.338 134.167 254.438 132.75 255.115 130.972C255.792 129.153 256.131 127.079 256.131 124.752C256.131 122.128 255.813 119.843 255.179 117.896C254.586 115.949 253.592 114.468 252.195 113.453C250.799 112.395 248.916 111.866 246.546 111.866H230.55L230.677 98.4088H250.101L254.48 103.741C259.432 103.572 263.388 104.524 266.351 106.597C269.313 108.628 271.429 111.294 272.698 114.595C274.01 117.854 274.666 121.324 274.666 125.005C274.666 130.93 273.545 135.923 271.302 139.986C269.101 144.006 265.864 147.053 261.59 149.127C257.316 151.158 252.068 152.173 245.848 152.173ZM339.602 136.812V152.173H301.199V136.812H339.602ZM306.912 59.7515V152.173H288.313V59.7515H306.912ZM374.134 59.7515V152.173H355.662V59.7515H374.134ZM397.112 59.7515V75.1763H333.128V59.7515H397.112ZM445.989 127.862C445.989 126.211 445.841 124.709 445.545 123.355C445.249 122.001 444.614 120.753 443.641 119.61C442.71 118.467 441.334 117.325 439.515 116.182C437.737 115.04 435.41 113.855 432.532 112.628C429.104 111.189 425.782 109.665 422.566 108.057C419.35 106.407 416.451 104.503 413.87 102.344C411.289 100.186 409.236 97.647 407.713 94.7271C406.232 91.7649 405.491 88.2948 405.491 84.317C405.491 80.4237 406.189 76.8902 407.586 73.7164C409.025 70.5425 411.056 67.8342 413.68 65.5914C416.303 63.3062 419.371 61.55 422.884 60.3228C426.438 59.0956 430.395 58.482 434.754 58.482C440.678 58.482 445.799 59.7092 450.115 62.1636C454.474 64.6181 457.838 67.9823 460.208 72.2564C462.62 76.5305 463.826 81.4394 463.826 86.983H445.291C445.291 84.3593 444.91 82.053 444.148 80.064C443.429 78.0328 442.265 76.4459 440.657 75.3033C439.049 74.1607 436.976 73.5894 434.436 73.5894C432.067 73.5894 430.099 74.0761 428.533 75.0494C427.01 75.9804 425.867 77.2711 425.105 78.9214C424.386 80.5295 424.026 82.3492 424.026 84.3804C424.026 85.9039 424.386 87.2792 425.105 88.5064C425.867 89.6913 426.904 90.7704 428.216 91.7437C429.528 92.6747 431.072 93.5845 432.85 94.4732C434.669 95.3619 436.658 96.2294 438.816 97.0757C443.006 98.7261 446.709 100.546 449.925 102.535C453.141 104.481 455.828 106.682 457.986 109.136C460.144 111.548 461.774 114.278 462.874 117.325C463.974 120.372 464.524 123.842 464.524 127.735C464.524 131.586 463.847 135.098 462.493 138.272C461.181 141.404 459.256 144.112 456.717 146.397C454.178 148.64 451.11 150.375 447.513 151.602C443.958 152.829 439.98 153.443 435.579 153.443C431.305 153.443 427.264 152.85 423.455 151.666C419.646 150.438 416.282 148.598 413.362 146.143C410.485 143.646 408.221 140.494 406.57 136.685C404.92 132.834 404.095 128.285 404.095 123.038H422.693C422.693 125.831 422.968 128.222 423.518 130.211C424.069 132.157 424.915 133.723 426.058 134.908C427.2 136.05 428.597 136.918 430.247 137.51C431.94 138.06 433.865 138.336 436.023 138.336C438.478 138.336 440.424 137.87 441.863 136.939C443.344 136.008 444.402 134.76 445.037 133.194C445.672 131.628 445.989 129.851 445.989 127.862Z" fill="#2D3E4D"/>
<path d="M220.602 168.461H216.979L216.96 166.674H220.124C220.658 166.674 221.11 166.596 221.481 166.439C221.859 166.277 222.145 166.045 222.341 165.746C222.536 165.44 222.634 165.072 222.634 164.642C222.634 164.167 222.543 163.78 222.36 163.48C222.178 163.181 221.898 162.963 221.52 162.826C221.149 162.689 220.674 162.621 220.095 162.621H217.722V174.887H215.27V160.668H220.095C220.876 160.668 221.573 160.743 222.185 160.892C222.803 161.042 223.327 161.277 223.757 161.596C224.193 161.908 224.522 162.305 224.743 162.787C224.971 163.269 225.085 163.842 225.085 164.506C225.085 165.092 224.945 165.629 224.665 166.117C224.385 166.599 223.972 166.993 223.425 167.299C222.878 167.605 222.198 167.787 221.384 167.846L220.602 168.461ZM220.495 174.887H216.208L217.311 172.943H220.495C221.048 172.943 221.511 172.852 221.882 172.67C222.253 172.481 222.53 172.224 222.712 171.898C222.901 171.566 222.995 171.179 222.995 170.736C222.995 170.274 222.914 169.874 222.751 169.535C222.588 169.19 222.331 168.926 221.979 168.744C221.628 168.555 221.169 168.461 220.602 168.461H217.849L217.868 166.674H221.452L222.009 167.348C222.79 167.374 223.431 167.546 223.933 167.865C224.44 168.184 224.818 168.598 225.065 169.105C225.313 169.613 225.436 170.16 225.436 170.746C225.436 171.651 225.238 172.409 224.841 173.021C224.45 173.633 223.887 174.099 223.151 174.418C222.416 174.73 221.53 174.887 220.495 174.887ZM233.78 172.767V167.728C233.78 167.351 233.711 167.025 233.575 166.752C233.438 166.478 233.23 166.267 232.95 166.117C232.676 165.967 232.331 165.892 231.915 165.892C231.53 165.892 231.198 165.958 230.918 166.088C230.639 166.218 230.42 166.394 230.264 166.615C230.108 166.836 230.03 167.087 230.03 167.367H227.686C227.686 166.95 227.787 166.547 227.989 166.156C228.191 165.766 228.484 165.417 228.868 165.111C229.252 164.805 229.711 164.564 230.245 164.389C230.779 164.213 231.377 164.125 232.042 164.125C232.836 164.125 233.539 164.258 234.151 164.525C234.769 164.792 235.254 165.196 235.606 165.736C235.964 166.27 236.143 166.941 236.143 167.748V172.445C236.143 172.927 236.176 173.36 236.241 173.744C236.312 174.122 236.413 174.45 236.543 174.73V174.887H234.131C234.021 174.633 233.933 174.31 233.868 173.92C233.809 173.523 233.78 173.139 233.78 172.767ZM234.122 168.461L234.141 169.916H232.452C232.015 169.916 231.631 169.958 231.299 170.043C230.967 170.121 230.691 170.238 230.469 170.394C230.248 170.551 230.082 170.739 229.971 170.961C229.861 171.182 229.805 171.433 229.805 171.713C229.805 171.993 229.87 172.25 230.001 172.484C230.131 172.712 230.32 172.891 230.567 173.021C230.821 173.152 231.127 173.217 231.485 173.217C231.967 173.217 232.387 173.119 232.745 172.924C233.109 172.722 233.396 172.478 233.604 172.191C233.812 171.898 233.923 171.622 233.936 171.361L234.698 172.406C234.62 172.673 234.486 172.96 234.297 173.266C234.109 173.571 233.861 173.864 233.555 174.144C233.256 174.418 232.894 174.642 232.471 174.818C232.055 174.994 231.573 175.082 231.026 175.082C230.336 175.082 229.721 174.945 229.18 174.672C228.64 174.392 228.217 174.017 227.911 173.549C227.605 173.073 227.452 172.536 227.452 171.937C227.452 171.377 227.556 170.883 227.764 170.453C227.979 170.017 228.292 169.652 228.702 169.359C229.118 169.066 229.626 168.845 230.225 168.695C230.824 168.539 231.508 168.461 232.276 168.461H234.122ZM241.117 166.332V174.887H238.764V164.32H241.01L241.117 166.332ZM244.35 164.252L244.33 166.439C244.187 166.413 244.031 166.394 243.861 166.381C243.699 166.368 243.536 166.361 243.373 166.361C242.97 166.361 242.615 166.42 242.309 166.537C242.003 166.648 241.746 166.81 241.537 167.025C241.335 167.234 241.179 167.488 241.068 167.787C240.958 168.086 240.893 168.422 240.873 168.793L240.336 168.832C240.336 168.168 240.401 167.553 240.531 166.986C240.662 166.42 240.857 165.922 241.117 165.492C241.384 165.062 241.716 164.727 242.113 164.486C242.517 164.245 242.983 164.125 243.51 164.125C243.653 164.125 243.806 164.138 243.969 164.164C244.138 164.19 244.265 164.219 244.35 164.252ZM251.58 172.767V167.728C251.58 167.351 251.511 167.025 251.375 166.752C251.238 166.478 251.03 166.267 250.75 166.117C250.476 165.967 250.131 165.892 249.715 165.892C249.33 165.892 248.998 165.958 248.718 166.088C248.439 166.218 248.22 166.394 248.064 166.615C247.908 166.836 247.83 167.087 247.83 167.367H245.486C245.486 166.95 245.587 166.547 245.789 166.156C245.991 165.766 246.284 165.417 246.668 165.111C247.052 164.805 247.511 164.564 248.045 164.389C248.579 164.213 249.177 164.125 249.842 164.125C250.636 164.125 251.339 164.258 251.951 164.525C252.569 164.792 253.054 165.196 253.406 165.736C253.764 166.27 253.943 166.941 253.943 167.748V172.445C253.943 172.927 253.976 173.36 254.041 173.744C254.112 174.122 254.213 174.45 254.343 174.73V174.887H251.931C251.821 174.633 251.733 174.31 251.668 173.92C251.609 173.523 251.58 173.139 251.58 172.767ZM251.922 168.461L251.941 169.916H250.252C249.815 169.916 249.431 169.958 249.099 170.043C248.767 170.121 248.491 170.238 248.269 170.394C248.048 170.551 247.882 170.739 247.771 170.961C247.661 171.182 247.605 171.433 247.605 171.713C247.605 171.993 247.67 172.25 247.801 172.484C247.931 172.712 248.12 172.891 248.367 173.021C248.621 173.152 248.927 173.217 249.285 173.217C249.767 173.217 250.187 173.119 250.545 172.924C250.909 172.722 251.196 172.478 251.404 172.191C251.612 171.898 251.723 171.622 251.736 171.361L252.498 172.406C252.42 172.673 252.286 172.96 252.097 173.266C251.909 173.571 251.661 173.864 251.355 174.144C251.056 174.418 250.694 174.642 250.271 174.818C249.855 174.994 249.373 175.082 248.826 175.082C248.136 175.082 247.521 174.945 246.98 174.672C246.44 174.392 246.017 174.017 245.711 173.549C245.405 173.073 245.252 172.536 245.252 171.937C245.252 171.377 245.356 170.883 245.564 170.453C245.779 170.017 246.092 169.652 246.502 169.359C246.918 169.066 247.426 168.845 248.025 168.695C248.624 168.539 249.308 168.461 250.076 168.461H251.922ZM258.888 166.576V174.887H256.535V164.32H258.751L258.888 166.576ZM258.468 169.213L257.706 169.203C257.713 168.454 257.817 167.767 258.019 167.142C258.227 166.517 258.514 165.98 258.878 165.531C259.249 165.082 259.692 164.737 260.206 164.496C260.721 164.249 261.294 164.125 261.925 164.125C262.433 164.125 262.892 164.196 263.302 164.34C263.719 164.476 264.074 164.701 264.367 165.014C264.666 165.326 264.894 165.733 265.05 166.234C265.206 166.729 265.285 167.338 265.285 168.06V174.887H262.921V168.051C262.921 167.543 262.846 167.142 262.697 166.849C262.553 166.55 262.342 166.338 262.062 166.215C261.788 166.085 261.447 166.019 261.036 166.019C260.633 166.019 260.271 166.104 259.952 166.273C259.633 166.443 259.363 166.674 259.142 166.967C258.927 167.26 258.761 167.598 258.644 167.982C258.527 168.366 258.468 168.777 258.468 169.213ZM274.604 164.32H276.743V174.594C276.743 175.544 276.541 176.351 276.138 177.016C275.734 177.68 275.171 178.184 274.448 178.529C273.726 178.881 272.889 179.057 271.938 179.057C271.535 179.057 271.086 178.998 270.591 178.881C270.102 178.764 269.627 178.575 269.165 178.314C268.709 178.06 268.328 177.725 268.022 177.308L269.126 175.922C269.504 176.371 269.92 176.7 270.376 176.908C270.832 177.116 271.31 177.221 271.811 177.221C272.352 177.221 272.811 177.12 273.188 176.918C273.573 176.723 273.869 176.433 274.077 176.049C274.285 175.665 274.39 175.196 274.39 174.642V166.713L274.604 164.32ZM267.427 169.721V169.516C267.427 168.715 267.524 167.986 267.72 167.328C267.915 166.664 268.195 166.094 268.56 165.619C268.924 165.137 269.367 164.769 269.888 164.516C270.408 164.255 270.998 164.125 271.655 164.125C272.339 164.125 272.921 164.249 273.403 164.496C273.892 164.743 274.298 165.098 274.624 165.56C274.949 166.016 275.203 166.563 275.386 167.201C275.574 167.833 275.714 168.536 275.806 169.31V169.965C275.721 170.72 275.578 171.41 275.376 172.035C275.174 172.66 274.907 173.2 274.575 173.656C274.243 174.112 273.833 174.463 273.345 174.711C272.863 174.958 272.293 175.082 271.636 175.082C270.991 175.082 270.408 174.948 269.888 174.682C269.373 174.415 268.931 174.04 268.56 173.558C268.195 173.077 267.915 172.51 267.72 171.859C267.524 171.202 267.427 170.489 267.427 169.721ZM269.78 169.516V169.721C269.78 170.202 269.826 170.652 269.917 171.068C270.015 171.485 270.161 171.853 270.356 172.172C270.558 172.484 270.812 172.732 271.118 172.914C271.431 173.09 271.798 173.178 272.222 173.178C272.775 173.178 273.227 173.06 273.579 172.826C273.937 172.592 274.211 172.276 274.399 171.879C274.595 171.475 274.731 171.026 274.81 170.531V168.764C274.77 168.379 274.689 168.021 274.565 167.689C274.448 167.357 274.289 167.068 274.087 166.82C273.885 166.566 273.631 166.371 273.325 166.234C273.019 166.091 272.658 166.019 272.241 166.019C271.818 166.019 271.45 166.111 271.138 166.293C270.825 166.475 270.568 166.726 270.366 167.045C270.171 167.364 270.024 167.735 269.927 168.158C269.829 168.581 269.78 169.034 269.78 169.516ZM285.292 172.767V167.728C285.292 167.351 285.223 167.025 285.086 166.752C284.95 166.478 284.741 166.267 284.461 166.117C284.188 165.967 283.843 165.892 283.426 165.892C283.042 165.892 282.71 165.958 282.43 166.088C282.15 166.218 281.932 166.394 281.776 166.615C281.62 166.836 281.542 167.087 281.542 167.367H279.198C279.198 166.95 279.299 166.547 279.501 166.156C279.702 165.766 279.995 165.417 280.379 165.111C280.764 164.805 281.223 164.564 281.756 164.389C282.29 164.213 282.889 164.125 283.553 164.125C284.348 164.125 285.051 164.258 285.663 164.525C286.281 164.792 286.766 165.196 287.118 165.736C287.476 166.27 287.655 166.941 287.655 167.748V172.445C287.655 172.927 287.687 173.36 287.752 173.744C287.824 174.122 287.925 174.45 288.055 174.73V174.887H285.643C285.532 174.633 285.445 174.31 285.379 173.92C285.321 173.523 285.292 173.139 285.292 172.767ZM285.633 168.461L285.653 169.916H283.963C283.527 169.916 283.143 169.958 282.811 170.043C282.479 170.121 282.202 170.238 281.981 170.394C281.76 170.551 281.594 170.739 281.483 170.961C281.372 171.182 281.317 171.433 281.317 171.713C281.317 171.993 281.382 172.25 281.512 172.484C281.642 172.712 281.831 172.891 282.079 173.021C282.333 173.152 282.639 173.217 282.997 173.217C283.478 173.217 283.898 173.119 284.256 172.924C284.621 172.722 284.907 172.478 285.116 172.191C285.324 171.898 285.435 171.622 285.448 171.361L286.21 172.406C286.131 172.673 285.998 172.96 285.809 173.266C285.62 173.571 285.373 173.864 285.067 174.144C284.767 174.418 284.406 174.642 283.983 174.818C283.566 174.994 283.085 175.082 282.538 175.082C281.848 175.082 281.232 174.945 280.692 174.672C280.152 174.392 279.728 174.017 279.422 173.549C279.116 173.073 278.963 172.536 278.963 171.937C278.963 171.377 279.068 170.883 279.276 170.453C279.491 170.017 279.803 169.652 280.213 169.359C280.63 169.066 281.138 168.845 281.737 168.695C282.336 168.539 283.019 168.461 283.788 168.461H285.633ZM293.176 173.734L296.047 164.32H298.567L294.328 176.498C294.231 176.758 294.104 177.042 293.947 177.348C293.791 177.654 293.586 177.943 293.332 178.217C293.085 178.497 292.776 178.721 292.404 178.891C292.033 179.066 291.584 179.154 291.057 179.154C290.848 179.154 290.647 179.135 290.451 179.096C290.263 179.063 290.083 179.027 289.914 178.988L289.904 177.191C289.97 177.198 290.048 177.204 290.139 177.211C290.236 177.217 290.315 177.221 290.373 177.221C290.764 177.221 291.089 177.172 291.35 177.074C291.61 176.983 291.822 176.833 291.985 176.625C292.154 176.417 292.297 176.137 292.414 175.785L293.176 173.734ZM291.555 164.32L294.065 172.23L294.485 174.711L292.854 175.131L289.016 164.32H291.555ZM314.335 172.943V174.887H307.197V172.943H314.335ZM307.88 160.668V174.887H305.429V160.668H307.88ZM320.804 175.082C320.022 175.082 319.316 174.955 318.685 174.701C318.06 174.441 317.526 174.079 317.083 173.617C316.647 173.155 316.311 172.611 316.077 171.986C315.843 171.361 315.726 170.687 315.726 169.965V169.574C315.726 168.747 315.846 167.999 316.087 167.328C316.328 166.657 316.663 166.085 317.093 165.609C317.522 165.127 318.03 164.76 318.616 164.506C319.202 164.252 319.837 164.125 320.52 164.125C321.276 164.125 321.936 164.252 322.503 164.506C323.069 164.76 323.538 165.118 323.909 165.58C324.287 166.036 324.567 166.579 324.749 167.211C324.938 167.842 325.032 168.539 325.032 169.301V170.307H316.868V168.617H322.708V168.432C322.695 168.008 322.61 167.611 322.454 167.24C322.304 166.869 322.073 166.57 321.761 166.342C321.448 166.114 321.032 166 320.511 166C320.12 166 319.772 166.085 319.466 166.254C319.166 166.417 318.916 166.654 318.714 166.967C318.512 167.279 318.356 167.657 318.245 168.099C318.141 168.536 318.089 169.027 318.089 169.574V169.965C318.089 170.427 318.151 170.857 318.274 171.254C318.405 171.644 318.593 171.986 318.841 172.279C319.088 172.572 319.388 172.803 319.739 172.973C320.091 173.135 320.491 173.217 320.94 173.217C321.507 173.217 322.011 173.103 322.454 172.875C322.897 172.647 323.281 172.325 323.606 171.908L324.847 173.109C324.619 173.441 324.323 173.76 323.958 174.066C323.593 174.366 323.147 174.61 322.62 174.799C322.099 174.988 321.494 175.082 320.804 175.082ZM333.786 164.32H335.924V174.594C335.924 175.544 335.723 176.351 335.319 177.016C334.915 177.68 334.352 178.184 333.629 178.529C332.907 178.881 332.07 179.057 331.12 179.057C330.716 179.057 330.267 178.998 329.772 178.881C329.284 178.764 328.808 178.575 328.346 178.314C327.891 178.06 327.51 177.725 327.204 177.308L328.307 175.922C328.685 176.371 329.101 176.7 329.557 176.908C330.013 177.116 330.491 177.221 330.993 177.221C331.533 177.221 331.992 177.12 332.37 176.918C332.754 176.723 333.05 176.433 333.258 176.049C333.467 175.665 333.571 175.196 333.571 174.642V166.713L333.786 164.32ZM326.608 169.721V169.516C326.608 168.715 326.706 167.986 326.901 167.328C327.096 166.664 327.376 166.094 327.741 165.619C328.105 165.137 328.548 164.769 329.069 164.516C329.59 164.255 330.179 164.125 330.836 164.125C331.52 164.125 332.103 164.249 332.585 164.496C333.073 164.743 333.48 165.098 333.805 165.56C334.131 166.016 334.385 166.563 334.567 167.201C334.756 167.833 334.896 168.536 334.987 169.31V169.965C334.902 170.72 334.759 171.41 334.557 172.035C334.355 172.66 334.088 173.2 333.756 173.656C333.424 174.112 333.014 174.463 332.526 174.711C332.044 174.958 331.474 175.082 330.817 175.082C330.172 175.082 329.59 174.948 329.069 174.682C328.555 174.415 328.112 174.04 327.741 173.558C327.376 173.077 327.096 172.51 326.901 171.859C326.706 171.202 326.608 170.489 326.608 169.721ZM328.961 169.516V169.721C328.961 170.202 329.007 170.652 329.098 171.068C329.196 171.485 329.342 171.853 329.538 172.172C329.739 172.484 329.993 172.732 330.299 172.914C330.612 173.09 330.98 173.178 331.403 173.178C331.956 173.178 332.409 173.06 332.76 172.826C333.118 172.592 333.392 172.276 333.581 171.879C333.776 171.475 333.913 171.026 333.991 170.531V168.764C333.952 168.379 333.87 168.021 333.747 167.689C333.629 167.357 333.47 167.068 333.268 166.82C333.066 166.566 332.812 166.371 332.506 166.234C332.2 166.091 331.839 166.019 331.422 166.019C330.999 166.019 330.631 166.111 330.319 166.293C330.006 166.475 329.749 166.726 329.547 167.045C329.352 167.364 329.206 167.735 329.108 168.158C329.01 168.581 328.961 169.034 328.961 169.516ZM341.035 164.32V174.887H338.672V164.32H341.035ZM338.516 161.547C338.516 161.189 338.633 160.892 338.867 160.658C339.108 160.417 339.44 160.297 339.863 160.297C340.28 160.297 340.609 160.417 340.85 160.658C341.091 160.892 341.211 161.189 341.211 161.547C341.211 161.898 341.091 162.191 340.85 162.426C340.609 162.66 340.28 162.777 339.863 162.777C339.44 162.777 339.108 162.66 338.867 162.426C338.633 162.191 338.516 161.898 338.516 161.547ZM349.691 172.025C349.691 171.791 349.633 171.579 349.515 171.391C349.398 171.195 349.174 171.019 348.842 170.863C348.516 170.707 348.034 170.564 347.396 170.433C346.836 170.31 346.322 170.163 345.853 169.994C345.391 169.818 344.994 169.607 344.662 169.359C344.33 169.112 344.073 168.819 343.89 168.48C343.708 168.142 343.617 167.751 343.617 167.308C343.617 166.879 343.711 166.472 343.9 166.088C344.089 165.704 344.359 165.365 344.711 165.072C345.062 164.779 345.489 164.548 345.99 164.379C346.498 164.21 347.064 164.125 347.689 164.125C348.575 164.125 349.333 164.275 349.965 164.574C350.603 164.867 351.091 165.267 351.429 165.775C351.768 166.277 351.937 166.843 351.937 167.474H349.584C349.584 167.195 349.512 166.934 349.369 166.693C349.232 166.446 349.024 166.247 348.744 166.098C348.464 165.941 348.112 165.863 347.689 165.863C347.286 165.863 346.95 165.928 346.683 166.058C346.423 166.182 346.228 166.345 346.097 166.547C345.974 166.749 345.912 166.97 345.912 167.211C345.912 167.387 345.944 167.546 346.01 167.689C346.081 167.826 346.198 167.953 346.361 168.07C346.524 168.181 346.745 168.285 347.025 168.383C347.312 168.48 347.67 168.575 348.099 168.666C348.907 168.835 349.6 169.053 350.179 169.32C350.765 169.581 351.215 169.919 351.527 170.336C351.84 170.746 351.996 171.267 351.996 171.898C351.996 172.367 351.895 172.797 351.693 173.187C351.498 173.571 351.211 173.907 350.834 174.193C350.456 174.473 350.004 174.691 349.476 174.848C348.955 175.004 348.37 175.082 347.718 175.082C346.761 175.082 345.951 174.913 345.287 174.574C344.623 174.229 344.118 173.79 343.773 173.256C343.435 172.715 343.265 172.155 343.265 171.576H345.541C345.567 172.012 345.687 172.361 345.902 172.621C346.123 172.875 346.397 173.06 346.722 173.178C347.054 173.288 347.396 173.344 347.748 173.344C348.171 173.344 348.526 173.288 348.812 173.178C349.099 173.06 349.317 172.904 349.467 172.709C349.616 172.507 349.691 172.279 349.691 172.025ZM356.726 159.887V174.887H354.363V159.887H356.726ZM365.411 172.767V167.728C365.411 167.351 365.343 167.025 365.206 166.752C365.069 166.478 364.861 166.267 364.581 166.117C364.308 165.967 363.963 165.892 363.546 165.892C363.162 165.892 362.83 165.958 362.55 166.088C362.27 166.218 362.052 166.394 361.895 166.615C361.739 166.836 361.661 167.087 361.661 167.367H359.317C359.317 166.95 359.418 166.547 359.62 166.156C359.822 165.766 360.115 165.417 360.499 165.111C360.883 164.805 361.342 164.564 361.876 164.389C362.41 164.213 363.009 164.125 363.673 164.125C364.467 164.125 365.17 164.258 365.782 164.525C366.401 164.792 366.886 165.196 367.237 165.736C367.595 166.27 367.774 166.941 367.774 167.748V172.445C367.774 172.927 367.807 173.36 367.872 173.744C367.944 174.122 368.045 174.45 368.175 174.73V174.887H365.763C365.652 174.633 365.564 174.31 365.499 173.92C365.44 173.523 365.411 173.139 365.411 172.767ZM365.753 168.461L365.772 169.916H364.083C363.647 169.916 363.263 169.958 362.931 170.043C362.599 170.121 362.322 170.238 362.101 170.394C361.879 170.551 361.713 170.739 361.602 170.961C361.492 171.182 361.436 171.433 361.436 171.713C361.436 171.993 361.502 172.25 361.632 172.484C361.762 172.712 361.951 172.891 362.198 173.021C362.452 173.152 362.758 173.217 363.116 173.217C363.598 173.217 364.018 173.119 364.376 172.924C364.74 172.722 365.027 172.478 365.235 172.191C365.444 171.898 365.554 171.622 365.567 171.361L366.329 172.406C366.251 172.673 366.117 172.96 365.929 173.266C365.74 173.571 365.492 173.864 365.186 174.144C364.887 174.418 364.526 174.642 364.102 174.818C363.686 174.994 363.204 175.082 362.657 175.082C361.967 175.082 361.352 174.945 360.811 174.672C360.271 174.392 359.848 174.017 359.542 173.549C359.236 173.073 359.083 172.536 359.083 171.937C359.083 171.377 359.187 170.883 359.395 170.453C359.61 170.017 359.923 169.652 360.333 169.359C360.75 169.066 361.257 168.845 361.856 168.695C362.455 168.539 363.139 168.461 363.907 168.461H365.753ZM375.229 164.32V166.039H369.272V164.32H375.229ZM370.991 161.732H373.344V171.967C373.344 172.292 373.39 172.543 373.481 172.719C373.579 172.888 373.712 173.002 373.881 173.06C374.051 173.119 374.249 173.148 374.477 173.148C374.64 173.148 374.796 173.139 374.946 173.119C375.096 173.099 375.216 173.08 375.307 173.06L375.317 174.857C375.122 174.916 374.894 174.968 374.633 175.014C374.379 175.059 374.086 175.082 373.754 175.082C373.214 175.082 372.736 174.988 372.319 174.799C371.902 174.603 371.577 174.288 371.342 173.851C371.108 173.415 370.991 172.836 370.991 172.113V161.732ZM379.715 164.32V174.887H377.352V164.32H379.715ZM377.195 161.547C377.195 161.189 377.313 160.892 377.547 160.658C377.788 160.417 378.12 160.297 378.543 160.297C378.96 160.297 379.289 160.417 379.529 160.658C379.77 160.892 379.891 161.189 379.891 161.547C379.891 161.898 379.77 162.191 379.529 162.426C379.289 162.66 378.96 162.777 378.543 162.777C378.12 162.777 377.788 162.66 377.547 162.426C377.313 162.191 377.195 161.898 377.195 161.547ZM385.881 173.021L388.468 164.32H390.91L387.238 174.887H385.715L385.881 173.021ZM383.898 164.32L386.535 173.06L386.662 174.887H385.138L381.447 164.32H383.898ZM397.036 175.082C396.255 175.082 395.549 174.955 394.917 174.701C394.292 174.441 393.758 174.079 393.316 173.617C392.88 173.155 392.544 172.611 392.31 171.986C392.076 171.361 391.958 170.687 391.958 169.965V169.574C391.958 168.747 392.079 167.999 392.32 167.328C392.561 166.657 392.896 166.085 393.326 165.609C393.755 165.127 394.263 164.76 394.849 164.506C395.435 164.252 396.07 164.125 396.753 164.125C397.508 164.125 398.169 164.252 398.736 164.506C399.302 164.76 399.771 165.118 400.142 165.58C400.52 166.036 400.799 166.579 400.982 167.211C401.171 167.842 401.265 168.539 401.265 169.301V170.307H393.101V168.617H398.941V168.432C398.928 168.008 398.843 167.611 398.687 167.24C398.537 166.869 398.306 166.57 397.993 166.342C397.681 166.114 397.264 166 396.743 166C396.353 166 396.005 166.085 395.699 166.254C395.399 166.417 395.148 166.654 394.947 166.967C394.745 167.279 394.589 167.657 394.478 168.099C394.374 168.536 394.322 169.027 394.322 169.574V169.965C394.322 170.427 394.383 170.857 394.507 171.254C394.637 171.644 394.826 171.986 395.074 172.279C395.321 172.572 395.62 172.803 395.972 172.973C396.324 173.135 396.724 173.217 397.173 173.217C397.74 173.217 398.244 173.103 398.687 172.875C399.13 172.647 399.514 172.325 399.839 171.908L401.079 173.109C400.852 173.441 400.555 173.76 400.191 174.066C399.826 174.366 399.38 174.61 398.853 174.799C398.332 174.988 397.727 175.082 397.036 175.082ZM413.997 160.668V174.887H411.565V160.668H413.997ZM418.46 160.668V162.621H407.141V160.668H418.46ZM421.91 166.332V174.887H419.557V164.32H421.803L421.91 166.332ZM425.143 164.252L425.123 166.439C424.98 166.413 424.824 166.394 424.654 166.381C424.492 166.368 424.329 166.361 424.166 166.361C423.763 166.361 423.408 166.42 423.102 166.537C422.796 166.648 422.539 166.81 422.33 167.025C422.128 167.234 421.972 167.488 421.861 167.787C421.751 168.086 421.686 168.422 421.666 168.793L421.129 168.832C421.129 168.168 421.194 167.553 421.324 166.986C421.455 166.42 421.65 165.922 421.91 165.492C422.177 165.062 422.509 164.727 422.906 164.486C423.31 164.245 423.776 164.125 424.303 164.125C424.446 164.125 424.599 164.138 424.762 164.164C424.931 164.19 425.058 164.219 425.143 164.252ZM432.373 172.767V167.728C432.373 167.351 432.304 167.025 432.168 166.752C432.031 166.478 431.823 166.267 431.543 166.117C431.269 165.967 430.924 165.892 430.508 165.892C430.123 165.892 429.791 165.958 429.511 166.088C429.232 166.218 429.013 166.394 428.857 166.615C428.701 166.836 428.623 167.087 428.623 167.367H426.279C426.279 166.95 426.38 166.547 426.582 166.156C426.784 165.766 427.077 165.417 427.461 165.111C427.845 164.805 428.304 164.564 428.838 164.389C429.371 164.213 429.97 164.125 430.635 164.125C431.429 164.125 432.132 164.258 432.744 164.525C433.362 164.792 433.847 165.196 434.199 165.736C434.557 166.27 434.736 166.941 434.736 167.748V172.445C434.736 172.927 434.769 173.36 434.834 173.744C434.905 174.122 435.006 174.45 435.136 174.73V174.887H432.724C432.614 174.633 432.526 174.31 432.461 173.92C432.402 173.523 432.373 173.139 432.373 172.767ZM432.715 168.461L432.734 169.916H431.045C430.608 169.916 430.224 169.958 429.892 170.043C429.56 170.121 429.284 170.238 429.062 170.394C428.841 170.551 428.675 170.739 428.564 170.961C428.454 171.182 428.398 171.433 428.398 171.713C428.398 171.993 428.463 172.25 428.593 172.484C428.724 172.712 428.913 172.891 429.16 173.021C429.414 173.152 429.72 173.217 430.078 173.217C430.56 173.217 430.98 173.119 431.338 172.924C431.702 172.722 431.989 172.478 432.197 172.191C432.405 171.898 432.516 171.622 432.529 171.361L433.291 172.406C433.213 172.673 433.079 172.96 432.89 173.266C432.702 173.571 432.454 173.864 432.148 174.144C431.849 174.418 431.487 174.642 431.064 174.818C430.648 174.994 430.166 175.082 429.619 175.082C428.929 175.082 428.314 174.945 427.773 174.672C427.233 174.392 426.81 174.017 426.504 173.549C426.198 173.073 426.045 172.536 426.045 171.937C426.045 171.377 426.149 170.883 426.357 170.453C426.572 170.017 426.885 169.652 427.295 169.359C427.711 169.066 428.219 168.845 428.818 168.695C429.417 168.539 430.101 168.461 430.869 168.461H432.715ZM441.663 173.207C442.048 173.207 442.393 173.132 442.699 172.982C443.011 172.826 443.262 172.611 443.451 172.338C443.646 172.064 443.753 171.749 443.773 171.391H445.99C445.977 172.074 445.775 172.696 445.384 173.256C444.993 173.816 444.476 174.262 443.831 174.594C443.187 174.919 442.474 175.082 441.693 175.082C440.885 175.082 440.182 174.945 439.583 174.672C438.984 174.392 438.486 174.008 438.089 173.519C437.692 173.031 437.393 172.468 437.191 171.83C436.995 171.192 436.898 170.508 436.898 169.779V169.437C436.898 168.708 436.995 168.025 437.191 167.387C437.393 166.742 437.692 166.176 438.089 165.687C438.486 165.199 438.984 164.818 439.583 164.545C440.182 164.265 440.882 164.125 441.683 164.125C442.529 164.125 443.271 164.294 443.91 164.633C444.548 164.965 445.049 165.43 445.413 166.029C445.785 166.622 445.977 167.312 445.99 168.099H443.773C443.753 167.709 443.656 167.357 443.48 167.045C443.311 166.726 443.07 166.472 442.757 166.283C442.451 166.094 442.083 166 441.654 166C441.178 166 440.785 166.098 440.472 166.293C440.16 166.482 439.915 166.742 439.74 167.074C439.564 167.4 439.437 167.767 439.359 168.178C439.287 168.581 439.251 169.001 439.251 169.437V169.779C439.251 170.215 439.287 170.639 439.359 171.049C439.43 171.459 439.554 171.827 439.73 172.152C439.912 172.471 440.16 172.728 440.472 172.924C440.785 173.113 441.182 173.207 441.663 173.207ZM450.319 159.887V174.887H447.956V159.887H450.319ZM456.882 164.32L452.282 169.418L449.763 171.996L449.147 170.004L451.052 167.65L454.04 164.32H456.882ZM454.548 174.887L451.12 169.926L452.604 168.275L457.272 174.887H454.548ZM461.045 164.32V174.887H458.682V164.32H461.045ZM458.526 161.547C458.526 161.189 458.643 160.892 458.877 160.658C459.118 160.417 459.45 160.297 459.874 160.297C460.29 160.297 460.619 160.417 460.86 160.658C461.101 160.892 461.221 161.189 461.221 161.547C461.221 161.898 461.101 162.191 460.86 162.426C460.619 162.66 460.29 162.777 459.874 162.777C459.45 162.777 459.118 162.66 458.877 162.426C458.643 162.191 458.526 161.898 458.526 161.547ZM466.108 166.576V174.887H463.754V164.32H465.971L466.108 166.576ZM465.688 169.213L464.926 169.203C464.932 168.454 465.037 167.767 465.238 167.142C465.447 166.517 465.733 165.98 466.098 165.531C466.469 165.082 466.912 164.737 467.426 164.496C467.94 164.249 468.513 164.125 469.145 164.125C469.652 164.125 470.111 164.196 470.522 164.34C470.938 164.476 471.293 164.701 471.586 165.014C471.886 165.326 472.113 165.733 472.27 166.234C472.426 166.729 472.504 167.338 472.504 168.06V174.887H470.141V168.051C470.141 167.543 470.066 167.142 469.916 166.849C469.773 166.55 469.561 166.338 469.281 166.215C469.008 166.085 468.666 166.019 468.256 166.019C467.852 166.019 467.491 166.104 467.172 166.273C466.853 166.443 466.583 166.674 466.361 166.967C466.147 167.26 465.981 167.598 465.863 167.982C465.746 168.366 465.688 168.777 465.688 169.213ZM481.824 164.32H483.963V174.594C483.963 175.544 483.761 176.351 483.357 177.016C482.954 177.68 482.39 178.184 481.668 178.529C480.945 178.881 480.108 179.057 479.158 179.057C478.754 179.057 478.305 178.998 477.81 178.881C477.322 178.764 476.847 178.575 476.385 178.314C475.929 178.06 475.548 177.725 475.242 177.308L476.345 175.922C476.723 176.371 477.14 176.7 477.595 176.908C478.051 177.116 478.53 177.221 479.031 177.221C479.571 177.221 480.03 177.12 480.408 176.918C480.792 176.723 481.088 176.433 481.297 176.049C481.505 175.665 481.609 175.196 481.609 174.642V166.713L481.824 164.32ZM474.646 169.721V169.516C474.646 168.715 474.744 167.986 474.939 167.328C475.135 166.664 475.414 166.094 475.779 165.619C476.144 165.137 476.586 164.769 477.107 164.516C477.628 164.255 478.217 164.125 478.875 164.125C479.558 164.125 480.141 164.249 480.623 164.496C481.111 164.743 481.518 165.098 481.844 165.56C482.169 166.016 482.423 166.563 482.605 167.201C482.794 167.833 482.934 168.536 483.025 169.31V169.965C482.941 170.72 482.797 171.41 482.595 172.035C482.394 172.66 482.127 173.2 481.795 173.656C481.463 174.112 481.052 174.463 480.564 174.711C480.082 174.958 479.513 175.082 478.855 175.082C478.211 175.082 477.628 174.948 477.107 174.682C476.593 174.415 476.15 174.04 475.779 173.558C475.414 173.077 475.135 172.51 474.939 171.859C474.744 171.202 474.646 170.489 474.646 169.721ZM477 169.516V169.721C477 170.202 477.045 170.652 477.136 171.068C477.234 171.485 477.381 171.853 477.576 172.172C477.778 172.484 478.032 172.732 478.338 172.914C478.65 173.09 479.018 173.178 479.441 173.178C479.995 173.178 480.447 173.06 480.799 172.826C481.157 172.592 481.43 172.276 481.619 171.879C481.814 171.475 481.951 171.026 482.029 170.531V168.764C481.99 168.379 481.909 168.021 481.785 167.689C481.668 167.357 481.508 167.068 481.306 166.82C481.105 166.566 480.851 166.371 480.545 166.234C480.239 166.091 479.877 166.019 479.461 166.019C479.038 166.019 478.67 166.111 478.357 166.293C478.045 166.475 477.788 166.726 477.586 167.045C477.39 167.364 477.244 167.735 477.146 168.158C477.049 168.581 477 169.034 477 169.516ZM499.399 171.224C499.399 170.932 499.354 170.671 499.263 170.443C499.178 170.215 499.025 170.007 498.804 169.818C498.582 169.629 498.27 169.447 497.866 169.271C497.469 169.089 496.961 168.904 496.343 168.715C495.666 168.506 495.041 168.275 494.468 168.021C493.901 167.761 493.407 167.461 492.983 167.123C492.56 166.778 492.231 166.384 491.997 165.941C491.763 165.492 491.645 164.974 491.645 164.389C491.645 163.809 491.766 163.282 492.007 162.807C492.254 162.331 492.602 161.921 493.052 161.576C493.507 161.224 494.045 160.954 494.663 160.766C495.282 160.57 495.965 160.473 496.714 160.473C497.768 160.473 498.677 160.668 499.438 161.058C500.207 161.449 500.796 161.973 501.206 162.631C501.623 163.288 501.831 164.014 501.831 164.808H499.399C499.399 164.34 499.298 163.926 499.097 163.568C498.901 163.204 498.602 162.917 498.198 162.709C497.801 162.501 497.296 162.396 496.685 162.396C496.105 162.396 495.623 162.484 495.239 162.66C494.855 162.836 494.569 163.073 494.38 163.373C494.191 163.672 494.097 164.011 494.097 164.389C494.097 164.655 494.158 164.9 494.282 165.121C494.406 165.336 494.595 165.538 494.849 165.726C495.102 165.909 495.421 166.081 495.806 166.244C496.19 166.407 496.642 166.563 497.163 166.713C497.951 166.947 498.638 167.208 499.224 167.494C499.81 167.774 500.298 168.093 500.688 168.451C501.079 168.809 501.372 169.216 501.567 169.672C501.763 170.121 501.86 170.632 501.86 171.205C501.86 171.804 501.74 172.344 501.499 172.826C501.258 173.301 500.913 173.708 500.464 174.047C500.021 174.379 499.487 174.636 498.862 174.818C498.244 174.994 497.554 175.082 496.792 175.082C496.108 175.082 495.435 174.991 494.77 174.808C494.113 174.626 493.514 174.349 492.974 173.978C492.433 173.601 492.004 173.132 491.685 172.572C491.365 172.006 491.206 171.345 491.206 170.59H493.657C493.657 171.052 493.735 171.446 493.892 171.771C494.054 172.097 494.279 172.364 494.565 172.572C494.852 172.774 495.184 172.924 495.561 173.021C495.946 173.119 496.356 173.168 496.792 173.168C497.365 173.168 497.843 173.086 498.227 172.924C498.618 172.761 498.911 172.533 499.106 172.24C499.302 171.947 499.399 171.609 499.399 171.224ZM507.01 173.734L509.881 164.32H512.401L508.163 176.498C508.065 176.758 507.938 177.042 507.782 177.348C507.626 177.654 507.42 177.943 507.167 178.217C506.919 178.497 506.61 178.721 506.239 178.891C505.868 179.066 505.418 179.154 504.891 179.154C504.683 179.154 504.481 179.135 504.286 179.096C504.097 179.063 503.918 179.027 503.749 178.988L503.739 177.191C503.804 177.198 503.882 177.204 503.973 177.211C504.071 177.217 504.149 177.221 504.208 177.221C504.598 177.221 504.924 177.172 505.184 177.074C505.445 176.983 505.656 176.833 505.819 176.625C505.988 176.417 506.131 176.137 506.249 175.785L507.01 173.734ZM505.389 164.32L507.899 172.23L508.319 174.711L506.688 175.131L502.85 164.32H505.389ZM519.826 172.025C519.826 171.791 519.768 171.579 519.651 171.391C519.533 171.195 519.309 171.019 518.977 170.863C518.651 170.707 518.169 170.564 517.531 170.433C516.971 170.31 516.457 170.163 515.988 169.994C515.526 169.818 515.129 169.607 514.797 169.359C514.465 169.112 514.208 168.819 514.026 168.48C513.843 168.142 513.752 167.751 513.752 167.308C513.752 166.879 513.846 166.472 514.035 166.088C514.224 165.704 514.494 165.365 514.846 165.072C515.197 164.779 515.624 164.548 516.125 164.379C516.633 164.21 517.199 164.125 517.824 164.125C518.71 164.125 519.468 164.275 520.1 164.574C520.738 164.867 521.226 165.267 521.565 165.775C521.903 166.277 522.072 166.843 522.072 167.474H519.719C519.719 167.195 519.647 166.934 519.504 166.693C519.367 166.446 519.159 166.247 518.879 166.098C518.599 165.941 518.248 165.863 517.824 165.863C517.421 165.863 517.085 165.928 516.818 166.058C516.558 166.182 516.363 166.345 516.233 166.547C516.109 166.749 516.047 166.97 516.047 167.211C516.047 167.387 516.08 167.546 516.145 167.689C516.216 167.826 516.333 167.953 516.496 168.07C516.659 168.181 516.88 168.285 517.16 168.383C517.447 168.48 517.805 168.575 518.234 168.666C519.042 168.835 519.735 169.053 520.315 169.32C520.901 169.581 521.35 169.919 521.662 170.336C521.975 170.746 522.131 171.267 522.131 171.898C522.131 172.367 522.03 172.797 521.828 173.187C521.633 173.571 521.346 173.907 520.969 174.193C520.591 174.473 520.139 174.691 519.611 174.848C519.091 175.004 518.505 175.082 517.854 175.082C516.897 175.082 516.086 174.913 515.422 174.574C514.758 174.229 514.253 173.79 513.908 173.256C513.57 172.715 513.401 172.155 513.401 171.576H515.676C515.702 172.012 515.822 172.361 516.037 172.621C516.259 172.875 516.532 173.06 516.858 173.178C517.19 173.288 517.531 173.344 517.883 173.344C518.306 173.344 518.661 173.288 518.947 173.178C519.234 173.06 519.452 172.904 519.602 172.709C519.751 172.507 519.826 172.279 519.826 172.025ZM529.185 164.32V166.039H523.228V164.32H529.185ZM524.947 161.732H527.301V171.967C527.301 172.292 527.346 172.543 527.437 172.719C527.535 172.888 527.668 173.002 527.838 173.06C528.007 173.119 528.205 173.148 528.433 173.148C528.596 173.148 528.752 173.139 528.902 173.119C529.052 173.099 529.172 173.08 529.263 173.06L529.273 174.857C529.078 174.916 528.85 174.968 528.59 175.014C528.336 175.059 528.043 175.082 527.711 175.082C527.17 175.082 526.692 174.988 526.275 174.799C525.858 174.603 525.533 174.288 525.299 173.851C525.064 173.415 524.947 172.836 524.947 172.113V161.732ZM535.81 175.082C535.029 175.082 534.322 174.955 533.691 174.701C533.066 174.441 532.532 174.079 532.089 173.617C531.653 173.155 531.318 172.611 531.083 171.986C530.849 171.361 530.732 170.687 530.732 169.965V169.574C530.732 168.747 530.852 167.999 531.093 167.328C531.334 166.657 531.669 166.085 532.099 165.609C532.529 165.127 533.036 164.76 533.622 164.506C534.208 164.252 534.843 164.125 535.527 164.125C536.282 164.125 536.943 164.252 537.509 164.506C538.076 164.76 538.544 165.118 538.915 165.58C539.293 166.036 539.573 166.579 539.755 167.211C539.944 167.842 540.038 168.539 540.038 169.301V170.307H531.874V168.617H537.714V168.432C537.701 168.008 537.617 167.611 537.46 167.24C537.311 166.869 537.079 166.57 536.767 166.342C536.454 166.114 536.038 166 535.517 166C535.126 166 534.778 166.085 534.472 166.254C534.173 166.417 533.922 166.654 533.72 166.967C533.518 167.279 533.362 167.657 533.251 168.099C533.147 168.536 533.095 169.027 533.095 169.574V169.965C533.095 170.427 533.157 170.857 533.281 171.254C533.411 171.644 533.6 171.986 533.847 172.279C534.094 172.572 534.394 172.803 534.745 172.973C535.097 173.135 535.497 173.217 535.947 173.217C536.513 173.217 537.018 173.103 537.46 172.875C537.903 172.647 538.287 172.325 538.613 171.908L539.853 173.109C539.625 173.441 539.329 173.76 538.964 174.066C538.6 174.366 538.154 174.61 537.626 174.799C537.105 174.988 536.5 175.082 535.81 175.082ZM544.378 166.469V174.887H542.024V164.32H544.241L544.378 166.469ZM543.997 169.213L543.196 169.203C543.196 168.474 543.287 167.8 543.47 167.182C543.652 166.563 543.919 166.026 544.27 165.57C544.622 165.108 545.058 164.753 545.579 164.506C546.106 164.252 546.715 164.125 547.405 164.125C547.887 164.125 548.326 164.196 548.724 164.34C549.127 164.476 549.476 164.695 549.768 164.994C550.068 165.293 550.296 165.678 550.452 166.146C550.615 166.615 550.696 167.182 550.696 167.846V174.887H548.343V168.051C548.343 167.536 548.265 167.133 548.108 166.84C547.959 166.547 547.74 166.338 547.454 166.215C547.174 166.085 546.839 166.019 546.448 166.019C546.005 166.019 545.628 166.104 545.315 166.273C545.009 166.443 544.759 166.674 544.563 166.967C544.368 167.26 544.225 167.598 544.134 167.982C544.043 168.366 543.997 168.777 543.997 169.213ZM550.55 168.588L549.446 168.832C549.446 168.194 549.534 167.592 549.71 167.025C549.892 166.452 550.156 165.951 550.501 165.521C550.852 165.085 551.285 164.743 551.8 164.496C552.314 164.249 552.903 164.125 553.567 164.125C554.108 164.125 554.589 164.2 555.013 164.349C555.442 164.493 555.807 164.721 556.106 165.033C556.406 165.346 556.634 165.752 556.79 166.254C556.946 166.749 557.024 167.348 557.024 168.051V174.887H554.661V168.041C554.661 167.507 554.583 167.094 554.427 166.801C554.277 166.508 554.062 166.306 553.782 166.195C553.502 166.078 553.167 166.019 552.776 166.019C552.412 166.019 552.089 166.088 551.81 166.224C551.536 166.355 551.305 166.54 551.116 166.781C550.927 167.016 550.784 167.286 550.686 167.592C550.595 167.898 550.55 168.23 550.55 168.588Z" fill="black" fill-opacity="0.87"/>
</svg>
