<svg width="61" height="62" viewBox="0 0 61 62" fill="none" xmlns="http://www.w3.org/2000/svg">
<path d="M61 21.3126C61 33.0832 51.612 42.625 40.0312 42.625C38.6945 42.625 37.3875 42.4964 36.1202 42.2534L33.2594 45.5246C32.9912 45.8313 32.662 46.0769 32.2936 46.245C31.9253 46.4131 31.5261 46.5 31.1223 46.5H26.6875V51.3438C26.6875 52.9488 25.4073 54.25 23.8281 54.25H19.0625V59.0938C19.0625 60.6988 17.7823 62 16.2031 62H2.85938C1.28017 62 0 60.6988 0 59.0938V49.6413C0 48.8705 0.301307 48.1313 0.837439 47.5862L20.1146 27.993C19.4328 25.8915 19.0625 23.6461 19.0625 21.3125C19.0625 9.54194 28.4504 0.000121095 40.0311 1.15676e-09C51.646 -0.000121093 61 9.50719 61 21.3126ZM40.0312 15.5C40.0312 18.7102 42.5916 21.3125 45.75 21.3125C48.9084 21.3125 51.4688 18.7102 51.4688 15.5C51.4688 12.2898 48.9084 9.6875 45.75 9.6875C42.5916 9.6875 40.0312 12.2898 40.0312 15.5Z" fill="#425B71"/>
</svg>
