<svg width="13" height="13" viewBox="0 0 13 13" fill="none" xmlns="http://www.w3.org/2000/svg">
<mask id="mask0_891_3614" style="mask-type:alpha" maskUnits="userSpaceOnUse" x="0" y="0" width="13" height="13">
<rect width="13" height="13" fill="#D9D9D9"/>
</mask>
<g mask="url(#mask0_891_3614)">
<path d="M6.49892 6.5259C6.80377 6.5259 7.06497 6.41736 7.28252 6.20027C7.50007 5.98317 7.60885 5.7222 7.60885 5.41735C7.60885 5.1125 7.5003 4.8513 7.28321 4.63375C7.06612 4.4162 6.80515 4.30742 6.5003 4.30742C6.19545 4.30742 5.93425 4.41597 5.7167 4.63306C5.49915 4.85015 5.39037 5.11112 5.39037 5.41597C5.39037 5.72082 5.49892 5.98202 5.71601 6.19957C5.9331 6.41713 6.19407 6.5259 6.49892 6.5259ZM6.49961 10.3809C7.57576 9.38942 8.37405 8.48872 8.89448 7.67874C9.41491 6.86877 9.67513 6.15051 9.67513 5.52395C9.67513 4.56205 9.36867 3.77444 8.75576 3.16112C8.14285 2.5478 7.39105 2.24114 6.50034 2.24114C5.60963 2.24114 4.85758 2.5478 4.24419 3.16112C3.63079 3.77444 3.32409 4.56205 3.32409 5.52395C3.32409 6.15051 3.58431 6.86877 4.10474 7.67874C4.62517 8.48872 5.42346 9.38942 6.49961 10.3809ZM6.49961 12.0138C5.02239 10.7554 3.91845 9.58827 3.18779 8.51236C2.45713 7.43645 2.0918 6.44067 2.0918 5.525C2.0918 4.14812 2.53484 3.05121 3.42094 2.23426C4.30703 1.41732 5.33316 1.00885 6.49931 1.00885C7.66547 1.00885 8.69169 1.41732 9.57798 2.23426C10.4643 3.05121 10.9074 4.14812 10.9074 5.525C10.9074 6.44067 10.5421 7.43645 9.81143 8.51236C9.08076 9.58827 7.97682 10.7554 6.49961 12.0138Z" fill="#4B4B4B"/>
</g>
</svg>
