<svg width="338" height="102" viewBox="0 0 338 102" fill="none" xmlns="http://www.w3.org/2000/svg">
<g clip-path="url(#clip0_574_3214)">
<path d="M-0.00259414 42.6547L-0.00439341 36.8669C-0.00837133 23.7686 10.5895 13.1471 23.6665 13.1431L29.445 13.1413L29.454 42.6457L-0.00259414 42.6547Z" fill="#A60453"/>
<path d="M-0.00264935 42.8282L0.00634766 72.3326L29.4629 72.3235L29.4539 42.8192L-0.00264935 42.8282Z" fill="#D0154C"/>
<path d="M23.6934 102.003C10.6164 102.007 0.0121248 91.3911 0.00814693 78.293L0.00634766 72.5052L29.463 72.4967L29.472 102.001L23.6934 102.003Z" fill="#FF2941"/>
<path d="M29.6177 13.1412L59.074 13.1322L59.0834 42.6366L29.6267 42.6456L29.6177 13.1412Z" fill="#D0154C"/>
<path d="M88.7216 72.4786L88.7235 78.2664C88.7273 91.3646 78.1299 101.986 65.053 101.99L59.2737 101.991L59.2651 72.4872L88.7216 72.4786Z" fill="#FFB144"/>
<path d="M88.7214 72.305L88.7124 42.8006L59.2558 42.8096L59.2648 72.314L88.7214 72.305Z" fill="#FF6F43"/>
<path d="M29.645 102.001L59.1016 101.991L59.0923 72.4871L29.6357 72.4963L29.645 102.001Z" fill="#FF6F43"/>
<path d="M81.5342 2.88848C93.7256 7.62856 99.7711 21.3697 95.0393 33.5802L92.16 41.0095L62.6694 29.5428L74.1173 0.00445557L81.5342 2.88848Z" fill="#FF2941"/>
<path d="M131.484 61.3755H113.569L113.508 48.6094H128.778C131.184 48.6094 133.147 48.208 134.67 47.4051C136.234 46.562 137.376 45.3376 138.097 43.7317C138.859 42.0858 139.239 40.0987 139.239 37.7703C139.239 35.0805 138.899 32.9328 138.217 31.327C137.536 29.6809 136.434 28.4766 134.911 27.7139C133.388 26.9511 131.404 26.5697 128.959 26.5697H119.581V99.6141H101.965V11.9368H128.959C133.328 11.9368 137.236 12.4185 140.683 13.3821C144.129 14.3456 147.055 15.8109 149.46 17.7779C151.865 19.745 153.689 22.234 154.931 25.2449C156.214 28.2559 156.855 31.8087 156.855 35.9035C156.855 39.5166 156.133 42.8486 154.691 45.8996C153.247 48.9506 150.983 51.4396 147.897 53.3666C144.851 55.2935 140.863 56.3775 135.933 56.6184L131.484 61.3755ZM130.883 99.6141H108.578L115.612 85.0408H130.883C133.208 85.0408 135.092 84.539 136.534 83.5353C137.977 82.5325 139.02 81.1873 139.661 79.5016C140.302 77.775 140.622 75.8075 140.622 73.5999C140.622 71.1107 140.322 68.943 139.721 67.0959C139.16 65.2498 138.217 63.8449 136.895 62.881C135.572 61.8774 133.789 61.3755 131.544 61.3755H116.394L116.514 48.6094H134.911L139.059 53.6677C143.749 53.5071 147.496 54.4104 150.302 56.3775C153.107 58.3047 155.111 60.8338 156.314 63.9654C157.557 67.0561 158.178 70.3479 158.178 73.8409C158.178 79.4608 157.115 84.1984 154.991 88.0518C152.907 91.8655 149.841 94.756 145.793 96.7236C141.745 98.6503 136.775 99.6141 130.883 99.6141ZM219.68 85.0408V99.6141H183.308V85.0408H219.68ZM188.719 11.9368V99.6141H171.103V11.9368H188.719ZM252.386 11.9368V99.6141H234.891V11.9368H252.386ZM274.15 11.9368V26.5697H213.548V11.9368H274.15ZM320.442 76.5503C320.442 74.985 320.302 73.5601 320.021 72.2747C319.74 70.9902 319.139 69.8063 318.217 68.7219C317.336 67.6386 316.033 66.5542 314.309 65.4699C312.626 64.3866 310.422 63.2624 307.697 62.0984C304.45 60.7333 301.304 59.2885 298.258 57.7621C295.212 56.1969 292.466 54.3903 290.021 52.3429C287.576 50.2955 285.632 47.8868 284.189 45.1168C282.786 42.3067 282.085 39.0147 282.085 35.2411C282.085 31.5477 282.747 28.1956 284.069 25.1848C285.432 22.1738 287.355 19.6045 289.841 17.4769C292.326 15.309 295.232 13.643 298.558 12.4788C301.925 11.3146 305.673 10.7325 309.8 10.7325C315.412 10.7325 320.261 11.8967 324.35 14.2251C328.478 16.5536 331.665 19.745 333.909 23.7997C336.194 27.8544 337.336 32.5112 337.336 37.7703H319.781C319.781 35.2813 319.42 33.0934 318.698 31.2065C318.017 29.2796 316.915 27.7741 315.392 26.6902C313.869 25.6063 311.905 25.0643 309.5 25.0643C307.255 25.0643 305.391 25.526 303.909 26.4493C302.466 27.3325 301.384 28.557 300.662 30.1225C299.981 31.6481 299.64 33.3744 299.64 35.3013C299.64 36.7466 299.981 38.0513 300.662 39.2155C301.384 40.3395 302.365 41.3632 303.608 42.2866C304.851 43.1698 306.314 44.0329 307.997 44.8759C309.721 45.719 311.605 46.542 313.648 47.3448C317.616 48.9105 321.123 50.6368 324.169 52.5236C327.215 54.3702 329.761 56.4578 331.805 58.7866C333.849 61.0748 335.392 63.6637 336.434 66.5542C337.476 69.4448 337.997 72.7367 337.997 76.4298C337.997 80.0831 337.356 83.4157 336.073 86.4258C334.831 89.397 333.007 91.966 330.602 94.1337C328.197 96.2616 325.291 97.9075 321.885 99.0715C318.519 100.236 314.751 100.818 310.583 100.818C306.535 100.818 302.706 100.256 299.1 99.1322C295.492 97.9682 292.306 96.2217 289.54 93.8927C286.814 91.5249 284.67 88.5338 283.107 84.9203C281.544 81.268 280.762 76.9516 280.762 71.9739H298.378C298.378 74.6236 298.638 76.8918 299.159 78.7787C299.68 80.6248 300.482 82.1104 301.564 83.2346C302.647 84.3189 303.969 85.1414 305.533 85.7039C307.135 86.2257 308.959 86.4866 311.003 86.4866C313.327 86.4866 315.171 86.0445 316.534 85.1613C317.937 84.2781 318.939 83.0941 319.54 81.6085C320.141 80.1229 320.442 78.4372 320.442 76.5503Z" fill="#2D3E4D"/>
</g>
<defs>
<clipPath id="clip0_574_3214">
<rect width="338" height="102" fill="white"/>
</clipPath>
</defs>
</svg>
