<svg width="335" height="126" viewBox="0 0 335 126" fill="none" xmlns="http://www.w3.org/2000/svg">
<g clip-path="url(#clip0_891_3688)">
<path d="M-0.000292532 41.4727L-0.00195204 35.8447C-0.00582306 23.108 10.3071 12.7798 23.0327 12.7758L28.656 12.7742L28.6648 41.464L-0.000292532 41.4727Z" fill="white"/>
<path d="M-0.000942728 42.5635L0.0078125 71.2533L28.6728 71.2446L28.6641 42.5548L-0.000942728 42.5635Z" fill="white"/>
<path d="M23.0584 101.027C10.3328 101.031 0.0134352 90.7091 0.009472 77.9726L0.0078125 72.3437L28.6728 72.3354L28.6816 101.025L23.0584 101.027Z" fill="white"/>
<path d="M29.7451 12.7741L58.4105 12.7653L58.4188 41.4551L29.7539 41.4639L29.7451 12.7741Z" fill="white"/>
<path d="M88.1825 72.3179L88.1843 77.9459C88.188 90.6824 77.8754 101.01 65.1499 101.015L59.5268 101.016L59.5176 72.3262L88.1825 72.3179Z" fill="white"/>
<path d="M88.1836 71.2268L88.1748 42.537L59.5098 42.5458L59.5186 71.2356L88.1836 71.2268Z" fill="white"/>
<path d="M29.7715 101.026L58.4365 101.017L58.4275 72.327L29.7625 72.336L29.7715 101.026Z" fill="white"/>
<path d="M79.3461 2.8044C91.2089 7.4136 97.0929 20.7753 92.4873 32.6488L89.6854 39.8729L60.9873 28.7228L72.1276 0L79.3461 2.8044Z" fill="white"/>
<path d="M127.953 59.6763H110.519L110.46 47.263H125.321C127.661 47.263 129.572 46.8726 131.054 46.0919C132.575 45.2721 133.687 44.0815 134.388 42.52C135.129 40.9195 135.5 38.9871 135.5 36.723C135.5 34.1075 135.169 32.0191 134.505 30.4576C133.843 28.8571 132.77 27.686 131.288 26.9443C129.806 26.2026 127.875 25.8318 125.496 25.8318H116.37V96.8592H99.2275V11.6029H125.496C129.748 11.6029 133.551 12.0713 136.905 13.0082C140.259 13.945 143.106 15.3699 145.446 17.2827C147.787 19.1956 149.561 21.6158 150.77 24.5436C152.018 27.4713 152.642 30.926 152.642 34.9078C152.642 38.4211 151.94 41.6612 150.536 44.6279C149.131 47.5948 146.929 50.015 143.925 51.8888C140.961 53.7626 137.08 54.8168 132.282 55.0511L127.953 59.6763ZM127.368 96.8592H105.663L112.508 82.6892H127.368C129.631 82.6892 131.464 82.2012 132.868 81.2252C134.271 80.2492 135.286 78.9412 135.91 77.302C136.534 75.6231 136.846 73.7108 136.846 71.5633C136.846 69.1427 136.553 67.0349 135.968 65.2397C135.423 63.4437 134.505 62.0775 133.219 61.1403C131.931 60.1643 130.196 59.6763 128.011 59.6763H113.268L113.385 47.263H131.288L135.325 52.1816C139.888 52.0255 143.535 52.9038 146.265 54.8168C148.995 56.6903 150.945 59.1496 152.116 62.1947C153.325 65.2001 153.93 68.401 153.93 71.7976C153.93 77.2623 152.896 81.8691 150.828 85.6161C148.801 89.3254 145.816 92.1352 141.877 94.0484C137.938 95.922 133.102 96.8592 127.368 96.8592ZM213.779 82.6892V96.8592H178.384V82.6892H213.779ZM183.65 11.6029V96.8592H166.508V11.6029H183.65ZM245.606 11.6029V96.8592H228.581V11.6029H245.606ZM266.785 11.6029V25.8318H207.812V11.6029H266.785ZM311.833 74.4321C311.833 72.9101 311.697 71.5245 311.423 70.2755C311.15 69.0256 310.565 67.8743 309.668 66.8199C308.81 65.7665 307.543 64.7121 305.865 63.6586C304.228 62.6043 302.082 61.5111 299.43 60.3793C296.271 59.0518 293.209 57.6469 290.245 56.1636C287.281 54.6406 284.609 52.8842 282.23 50.8933C279.85 48.9025 277.959 46.5603 276.554 43.8667C275.189 41.1342 274.507 37.9332 274.507 34.2637C274.507 30.6724 275.151 27.4127 276.437 24.485C277.764 21.5573 279.636 19.0588 282.054 16.9899C284.472 14.882 287.3 13.262 290.537 12.1299C293.814 10.9978 297.461 10.4317 301.477 10.4317C306.938 10.4317 311.657 11.5638 315.636 13.828C319.654 16.0921 322.754 19.1956 324.938 23.1382C327.162 27.0809 328.273 31.6092 328.273 36.723H311.19C311.19 34.3027 310.839 32.1752 310.136 30.3405C309.474 28.4667 308.401 27.0029 306.919 25.9489C305.437 24.8948 303.525 24.3679 301.185 24.3679C299.001 24.3679 297.188 24.8168 295.745 25.7146C294.34 26.5735 293.287 27.7641 292.585 29.2865C291.922 30.77 291.591 32.4485 291.591 34.3223C291.591 35.7276 291.922 36.9962 292.585 38.1283C293.287 39.2213 294.243 40.2168 295.451 41.1147C296.661 41.9734 298.085 42.8128 299.722 43.6325C301.4 44.4523 303.233 45.2525 305.222 46.0333C309.083 47.5557 312.496 49.2343 315.46 51.0691C318.424 52.8647 320.902 54.8943 322.891 57.1589C324.88 59.3839 326.381 61.9013 327.396 64.7121C328.41 67.5229 328.916 70.7238 328.916 74.315C328.916 77.8674 328.292 81.108 327.044 84.036C325.835 86.9242 324.06 89.4223 321.72 91.531C319.38 93.5992 316.552 95.1997 313.237 96.3325C309.961 97.4643 306.295 98.0298 302.239 98.0298C298.299 98.0298 294.574 97.4837 291.064 96.3906C287.554 95.2587 284.453 93.5605 281.762 91.2967C279.109 88.9933 277.023 86.0848 275.502 82.572C273.98 79.0196 273.22 74.8233 273.22 69.9822H290.362C290.362 72.5586 290.615 74.7642 291.122 76.599C291.629 78.3951 292.41 79.8387 293.462 80.9319C294.516 81.9862 295.803 82.786 297.324 83.3331C298.884 83.8404 300.659 84.0941 302.648 84.0941C304.91 84.0941 306.704 83.6651 308.03 82.8063C309.395 81.9475 310.371 80.7953 310.956 79.3508C311.54 77.9071 311.833 76.2669 311.833 74.4321Z" fill="white"/>
</g>
<defs>
<clipPath id="clip0_891_3688">
<rect width="335" height="126" fill="white"/>
</clipPath>
</defs>
</svg>
