<svg width="26" height="26" viewBox="0 0 26 26" fill="none" xmlns="http://www.w3.org/2000/svg">
<g clip-path="url(#clip0_748_3367)">
<path d="M7.49384 16.279C7.48988 16.2386 7.47719 16.2013 7.47719 16.1608V15.8141C7.47719 15.649 7.50415 15.4864 7.55813 15.3317C7.55813 15.3317 8.42222 14.1748 8.83086 12.8156C8.38333 11.8714 7.97708 10.6963 7.97708 9.53147C7.97708 9.26091 7.99693 8.99908 8.02471 8.74116C7.44154 8.13021 6.65362 7.78424 5.78317 7.78424C3.98598 7.78424 2.52764 9.25055 2.52764 11.5294C2.52764 13.3527 4.01142 15.3316 4.01142 15.3316C4.06377 15.4863 4.09079 15.649 4.09079 15.814V16.1608C4.09079 16.5932 3.83846 16.9868 3.4449 17.1669L1.08911 18.1293C0.541585 18.3817 0.151991 18.8847 0.0433191 19.4766L0.00284642 19.9947C-0.0177708 20.2645 0.0742448 20.5303 0.258327 20.7279C0.441596 20.9271 0.699514 21.039 0.970077 21.039H4.82072L4.9786 19.0101L4.9889 18.9554C5.18172 17.8913 5.88474 16.9868 6.867 16.5345L7.49384 16.279Z" fill="#425B71"/>
<path d="M25.9567 19.4766C25.8488 18.8847 25.4592 18.3816 24.9117 18.1293L22.5544 17.1669C22.1608 16.9868 21.91 16.5932 21.91 16.1608V15.814C21.91 15.649 21.9362 15.4863 21.9902 15.3316C21.9902 15.3316 23.4731 13.3527 23.4731 11.5294C23.4731 9.25055 22.0156 7.78424 20.2152 7.78424C19.3464 7.78424 18.5585 8.13021 17.9737 8.74274C18.0023 8.99984 18.0221 9.26086 18.0221 9.53142C18.0221 10.6954 17.6166 11.8706 17.1699 12.8147C17.5777 14.1739 18.4434 15.3316 18.4434 15.3316C18.4958 15.4863 18.5235 15.649 18.5235 15.814V16.1608C18.5235 16.2012 18.51 16.2385 18.5061 16.279L19.0901 16.517C20.1136 16.9852 20.8166 17.8897 21.0118 18.9537L21.0214 19.0093L21.1785 21.039H25.0307C25.3013 21.039 25.5591 20.9271 25.7416 20.7279C25.9257 20.5303 26.0178 20.2645 25.9971 19.9947L25.9567 19.4766Z" fill="#425B71"/>
<path d="M18.6808 17.5192L15.8291 16.3536C15.3531 16.1346 15.0492 15.6585 15.0492 15.1364V14.7159C15.0492 14.5175 15.0809 14.3199 15.1468 14.1319C15.1468 14.1319 16.94 11.7388 16.94 9.53141C16.94 6.77333 15.1762 5 12.9997 5C10.824 5 9.05938 6.77338 9.05938 9.53141C9.05938 11.7388 10.8542 14.1319 10.8542 14.1319C10.9185 14.3199 10.9518 14.5175 10.9518 14.7159V15.1364C10.9518 15.6585 10.6455 16.1346 10.1702 16.3536L7.31855 17.5192C6.65601 17.823 6.18389 18.4324 6.05379 19.1497L5.90698 21.0389H12.9997H20.0924L19.9472 19.1497C19.8155 18.4325 19.3433 17.8231 18.6808 17.5192Z" fill="#425B71"/>
</g>
<defs>
<clipPath id="clip0_748_3367">
<rect width="26" height="26" fill="white"/>
</clipPath>
</defs>
</svg>
