<svg width="13" height="13" viewBox="0 0 13 13" fill="none" xmlns="http://www.w3.org/2000/svg">
<mask id="mask0_891_3617" style="mask-type:alpha" maskUnits="userSpaceOnUse" x="0" y="0" width="13" height="13">
<rect width="13" height="13" fill="#D9D9D9"/>
</mask>
<g mask="url(#mask0_891_3617)">
<path d="M10.8099 11.4754C9.6302 11.4754 8.48147 11.2126 7.36369 10.687C6.24592 10.1615 5.25507 9.4667 4.39115 8.60279C3.52723 7.73887 2.83248 6.74802 2.30691 5.63025C1.78134 4.51247 1.51855 3.36374 1.51855 2.18404C1.51855 1.99193 1.58259 1.83184 1.71066 1.70377C1.83872 1.5757 1.99881 1.51166 2.19093 1.51166H4.38144C4.55748 1.51166 4.7081 1.562 4.83331 1.66267C4.95853 1.76336 5.03664 1.89848 5.06765 2.06804L5.4165 3.89588C5.44318 4.05681 5.44093 4.20106 5.40973 4.32862C5.37852 4.45619 5.31042 4.56924 5.20542 4.66776L3.87245 5.96894C4.23434 6.58007 4.68519 7.15329 5.22499 7.68858C5.7648 8.22386 6.35509 8.68727 6.99586 9.07881L8.29145 7.79293C8.39644 7.6901 8.52518 7.61567 8.67768 7.56964C8.83017 7.52362 8.9858 7.51503 9.14457 7.54389L10.9259 7.91333C11.0976 7.95337 11.2333 8.03212 11.3329 8.14958C11.4325 8.26704 11.4823 8.41163 11.4823 8.58336V10.7998C11.4823 10.9928 11.4182 11.1537 11.2902 11.2824C11.1621 11.411 11.002 11.4754 10.8099 11.4754ZM3.28339 4.81995L4.1739 3.95535L3.95016 2.74395H2.76762C2.80845 3.09898 2.86782 3.44944 2.94574 3.79531C3.02366 4.14118 3.13621 4.48273 3.28339 4.81995ZM8.14101 9.67758C8.48014 9.82458 8.82658 9.94214 9.18033 10.0303C9.53409 10.1184 9.89064 10.1781 10.25 10.2095V9.03405L9.04183 8.78325L8.14101 9.67758Z" fill="#4B4B4B"/>
</g>
</svg>
