<svg width="24" height="27" viewBox="0 0 24 27" fill="none" xmlns="http://www.w3.org/2000/svg">
<path d="M9 2C6.38 2 4.25 4.13 4.25 6.75C4.25 9.32 6.26 11.4 8.88 11.49C8.96 11.48 9.04 11.48 9.1 11.49C9.12 11.49 9.13 11.49 9.15 11.49C9.16 11.49 9.16 11.49 9.17 11.49C11.73 11.4 13.74 9.32 13.75 6.75C13.75 4.13 11.62 2 9 2Z" fill="#183F6B"/>
<path d="M14.08 14.1499C11.29 12.2899 6.73996 12.2899 3.92996 14.1499C2.65996 14.9999 1.95996 16.1499 1.95996 17.3799C1.95996 18.6099 2.65996 19.7499 3.91996 20.5899C5.31996 21.5299 7.15996 21.9999 8.99996 21.9999C10.84 21.9999 12.68 21.5299 14.08 20.5899C15.34 19.7399 16.04 18.5999 16.04 17.3599C16.03 16.1299 15.34 14.9899 14.08 14.1499Z" fill="#183F6B"/>
<path d="M19.9899 7.3401C20.1499 9.2801 18.7699 10.9801 16.8599 11.2101C16.8499 11.2101 16.8499 11.2101 16.8399 11.2101H16.8099C16.7499 11.2101 16.6899 11.2101 16.6399 11.2301C15.6699 11.2801 14.7799 10.9701 14.1099 10.4001C15.1399 9.4801 15.7299 8.1001 15.6099 6.6001C15.5399 5.7901 15.2599 5.0501 14.8399 4.4201C15.2199 4.2301 15.6599 4.1101 16.1099 4.0701C18.0699 3.9001 19.8199 5.3601 19.9899 7.3401Z" fill="#183F6B"/>
<path d="M21.9902 16.5899C21.9102 17.5599 21.2902 18.3999 20.2502 18.9699C19.2502 19.5199 17.9902 19.7799 16.7402 19.7499C17.4602 19.0999 17.8802 18.2899 17.9602 17.4299C18.0602 16.1899 17.4702 14.9999 16.2902 14.0499C15.6202 13.5199 14.8402 13.0999 13.9902 12.7899C16.2002 12.1499 18.9802 12.5799 20.6902 13.9599C21.6102 14.6999 22.0802 15.6299 21.9902 16.5899Z" fill="#183F6B"/>
<path d="M11.8598 17.7586C9.38006 19.8179 9.38006 23.2025 11.8598 25.2414C14.6845 27.5862 19.3155 27.5862 22.1402 25.2414C24.6199 23.1821 24.6199 19.7975 22.1402 17.7586C19.332 15.4138 14.7009 15.4138 11.8598 17.7586Z" fill="#0875A6"/>
<path d="M15.996 24C15.741 24 15.4861 23.9069 15.2948 23.7606L13.2869 22.0851C12.9044 21.766 12.9044 21.234 13.2869 20.9149C13.6693 20.5957 14.3068 20.5957 14.6892 20.9149L15.996 22.0053L19.3108 19.2394C19.6932 18.9202 20.3307 18.9202 20.7131 19.2394C21.0956 19.5585 21.0956 20.0904 20.7131 20.4096L16.6972 23.7606C16.506 23.9202 16.251 24 15.996 24Z" fill="#ECECEC"/>
</svg>
