<svg width="82" height="105" viewBox="0 0 82 105" fill="none" xmlns="http://www.w3.org/2000/svg">
<path d="M41 31.35V0H10.25C7.5317 0 4.92461 1.10091 3.00223 3.06081C1.07984 5.0207 0 7.67866 0 10.45V94.05C0 96.8213 1.07984 99.4793 3.00223 101.439C4.92461 103.399 7.5317 104.5 10.25 104.5H71.75C74.4683 104.5 77.0754 103.399 78.9978 101.439C80.9202 99.4793 82 96.8213 82 94.05V41.8H51.25C48.5317 41.8 45.9246 40.6991 44.0022 38.7392C42.0798 36.7793 41 34.1213 41 31.35ZM15.375 53.5562C15.375 52.517 15.7799 51.5201 16.501 50.7854C17.2215 50.0503 18.1994 49.6375 19.2188 49.6375C20.2381 49.6375 21.216 50.0503 21.9365 50.7854C22.6576 51.5201 23.0625 52.517 23.0625 53.5562C23.0625 54.5955 22.6576 55.5924 21.9365 56.3271C21.216 57.0622 20.2381 57.475 19.2188 57.475C18.1994 57.475 17.2215 57.0622 16.501 56.3271C15.7799 55.5924 15.375 54.5955 15.375 53.5562ZM15.375 69.2312C15.375 68.192 15.7799 67.1951 16.501 66.4604C17.2215 65.7253 18.1994 65.3125 19.2188 65.3125C20.2381 65.3125 21.216 65.7253 21.9365 66.4604C22.6576 67.1951 23.0625 68.192 23.0625 69.2312C23.0625 70.2705 22.6576 71.2674 21.9365 72.0021C21.216 72.7372 20.2381 73.15 19.2188 73.15C18.1994 73.15 17.2215 72.7372 16.501 72.0021C15.7799 71.2674 15.375 70.2705 15.375 69.2312ZM15.375 84.9062C15.375 83.867 15.7799 82.8701 16.501 82.1354C17.2215 81.4003 18.1994 80.9875 19.2188 80.9875C20.2381 80.9875 21.216 81.4003 21.9365 82.1354C22.6576 82.8701 23.0625 83.867 23.0625 84.9062C23.0625 85.9455 22.6576 86.9424 21.9365 87.6771C21.216 88.4122 20.2381 88.825 19.2188 88.825C18.1994 88.825 17.2215 88.4122 16.501 87.6771C15.7799 86.9424 15.375 85.9455 15.375 84.9062ZM30.75 53.5562C30.75 52.517 31.1549 51.5201 31.876 50.7854C32.5965 50.0503 33.5744 49.6375 34.5938 49.6375H62.7812C63.8006 49.6375 64.7785 50.0503 65.499 50.7854C66.2201 51.5201 66.625 52.517 66.625 53.5562C66.625 54.5955 66.2201 55.5924 65.499 56.3271C64.7785 57.0622 63.8006 57.475 62.7812 57.475H34.5938C33.5744 57.475 32.5965 57.0622 31.876 56.3271C31.1549 55.5924 30.75 54.5955 30.75 53.5562ZM30.75 69.2312C30.75 68.192 31.1549 67.1951 31.876 66.4604C32.5965 65.7253 33.5744 65.3125 34.5938 65.3125H62.7812C63.8006 65.3125 64.7785 65.7253 65.499 66.4604C66.2201 67.1951 66.625 68.192 66.625 69.2312C66.625 70.2705 66.2201 71.2674 65.499 72.0021C64.7785 72.7372 63.8006 73.15 62.7812 73.15H34.5938C33.5744 73.15 32.5965 72.7372 31.876 72.0021C31.1549 71.2674 30.75 70.2705 30.75 69.2312ZM30.75 84.9062C30.75 83.867 31.1549 82.8701 31.876 82.1354C32.5965 81.4003 33.5744 80.9875 34.5938 80.9875H62.7812C63.8006 80.9875 64.7785 81.4003 65.499 82.1354C66.2201 82.8701 66.625 83.867 66.625 84.9062C66.625 85.9455 66.2201 86.9424 65.499 87.6771C64.7785 88.4122 63.8006 88.825 62.7812 88.825H34.5938C33.5744 88.825 32.5965 88.4122 31.876 87.6771C31.1549 86.9424 30.75 85.9455 30.75 84.9062ZM48.6875 31.35V2.6125L79.4375 33.9625H51.25C50.5704 33.9625 49.9185 33.6871 49.4378 33.1976C48.9576 32.7075 48.6875 32.0428 48.6875 31.35Z" fill="#D0154C"/>
</svg>
