<svg width="26" height="26" viewBox="0 0 26 26" fill="none" xmlns="http://www.w3.org/2000/svg">
<g clip-path="url(#clip0_779_3276)">
<path d="M8.90999 5.19031C5.29966 5.19031 2.37305 8.11692 2.37305 11.7274V13.8053C2.37305 15.5814 2.96232 17.2003 4.11191 18.3784C4.27193 18.4925 4.36859 18.4151 4.4394 18.3696C4.96445 18.0338 5.57233 17.6854 6.25733 17.5118C6.67382 17.4067 6.83142 17.3485 7.13331 17.2756C7.286 17.2387 7.30045 17.1459 7.09341 17.0874C5.22986 16.5606 4.29692 14.763 4.29692 12.6316C4.29692 12.6316 4.29692 11.5627 4.29692 11.2064C4.29692 11.0619 4.36705 11.0155 4.47937 11.0155C4.83849 11.0155 5.62997 11.0155 5.94368 11.0155C6.07098 11.0155 6.09906 10.9332 6.12875 10.8182C6.19875 10.5474 6.34278 9.2913 6.52147 9.29399C6.70016 9.29647 6.83028 10.5628 6.8906 10.8304C6.91505 10.939 6.94945 11.0155 7.06439 11.0155C7.2948 11.0155 7.59085 11.0155 7.92928 11.0155C9.70557 11.0155 12.647 11.0155 13.3624 11.0155C13.466 11.0155 13.5229 11.082 13.5229 11.2144C13.5229 11.5687 13.5229 12.6316 13.5229 12.6316C13.5229 14.7968 12.5681 16.6173 10.6387 17.1111C10.4737 17.1534 10.5009 17.2281 10.6288 17.2459C10.9176 17.2862 11.0605 17.353 11.4843 17.4454C12.1809 17.6112 12.9288 17.9858 13.4889 18.3164C13.5505 18.3527 13.6524 18.4043 13.8028 18.2737C14.9065 17.1033 15.4469 15.541 15.4469 13.8053V11.7274C15.4469 8.11692 12.5202 5.19031 8.90999 5.19031Z" fill="#425B71"/>
<path d="M12.1119 18.5238C11.8836 18.4305 11.6438 18.3497 11.3939 18.2813C11.3599 18.272 11.3056 18.2476 11.2392 18.2476C11.2027 18.2476 11.1516 18.2623 11.0913 18.3111C10.9706 18.3843 10.8491 18.4498 10.7263 18.5089C10.1901 18.743 9.63163 18.8471 8.97706 18.8471C8.11357 18.8471 7.40231 18.6641 6.71415 18.2468C6.61782 18.1688 6.55112 18.2044 6.51786 18.2122C4.42377 18.7013 2.9563 19.9759 2.9563 22.397V23.5259L2.95637 23.5266C2.95704 23.8023 2.96087 25.1993 2.96261 25.7392C2.96308 25.8929 2.9563 25.9872 3.17805 25.989C4.33758 25.9987 12.8261 26.0067 14.6275 25.9915C14.8492 25.9897 14.8424 25.8953 14.8429 25.7417C14.8447 25.2019 14.8485 23.8665 14.8492 23.5907C14.8492 23.5905 14.8492 23.5903 14.8492 23.5903V22.4612C14.8492 20.3726 13.7564 19.1378 12.1119 18.5238ZM9.15407 23.3433C9.12485 23.4024 9.07406 23.4981 8.94099 23.4981C8.81725 23.4981 8.75229 23.3927 8.71978 23.3316C8.10961 22.1848 5.20026 19.7336 5.20026 19.7336C5.16654 19.6841 5.20752 19.6452 5.23708 19.635C5.44976 19.5623 6.263 18.9075 6.4918 18.854C6.52505 18.8463 6.60318 18.8292 6.68809 18.8887C7.37625 19.306 8.08751 19.4889 8.951 19.4889C9.60557 19.4889 10.1641 19.3849 10.7002 19.1508C10.8231 19.0917 10.9445 19.0261 11.0652 18.953C11.1256 18.9041 11.1786 18.8915 11.2152 18.8915C11.2816 18.8915 11.3339 18.9138 11.3679 18.9232C11.5651 18.9773 12.3482 19.6311 12.5322 19.7007C12.5789 19.7183 12.6511 19.7731 12.6044 19.8409C12.6044 19.8409 9.7197 22.2002 9.15407 23.3433ZM13.343 23.0061H11.1176V22.5246H13.343V23.0061Z" fill="#425B71"/>
<path d="M17.8866 5.98435C17.807 5.98435 17.7419 5.91919 17.7419 5.83965V3.38402C17.7419 3.30441 17.6768 3.23932 17.5972 3.23932H17.0523C16.9727 3.23932 16.9076 3.30448 16.9076 3.38402L16.9075 6.67412C16.9075 6.75373 16.9726 6.81882 17.0522 6.81882H20.2762C20.3558 6.81882 20.4209 6.75366 20.4209 6.67412V6.12912C20.4209 6.04951 20.3558 5.98442 20.2762 5.98442L17.8866 5.98435Z" fill="#425B71"/>
<path d="M17.4261 0C15.59 0 13.9403 0.798259 12.8053 2.06675C12.3452 2.58052 12.0217 3.05405 11.7523 3.70049C11.7063 3.81677 11.8112 3.84854 11.8656 3.86433C12.1276 3.94064 12.3836 4.03126 12.6324 4.13572C12.6917 4.16058 12.8035 4.19181 12.8636 4.09071C13.08 3.58877 13.3206 3.25067 13.6801 2.84923C14.6005 1.82122 15.9378 1.17418 17.4262 1.17418C20.2026 1.17418 22.4528 3.42466 22.4528 6.20073C22.4528 6.36612 22.4448 6.5301 22.4289 6.69152C22.1824 9.23738 20.0369 11.2273 17.4263 11.2273C17.0694 11.2273 17.0572 11.4522 17.0572 11.4522C17.0572 11.4522 17.0384 12.0275 17.0598 12.2476C17.075 12.4047 17.2037 12.4015 17.2037 12.4015C17.325 12.4086 17.3032 12.4015 17.4263 12.4015C20.6841 12.4015 23.3551 9.88932 23.6074 6.69582C23.6204 6.53258 23.627 6.36753 23.627 6.20073C23.6269 2.7762 20.8507 0 17.4261 0Z" fill="#425B71"/>
</g>
<defs>
<clipPath id="clip0_779_3276">
<rect width="26" height="26" fill="white"/>
</clipPath>
</defs>
</svg>
