<svg width="38" height="38" viewBox="0 0 38 38" fill="none" xmlns="http://www.w3.org/2000/svg">
<path d="M0 5C0 2.23858 2.23858 0 5 0H33C35.7614 0 38 2.23858 38 5V33C38 35.7614 35.7614 38 33 38H5C2.23858 38 0 35.7614 0 33V5Z" fill="url(#paint0_linear_412_3774)"/>
<path d="M15.4777 22.3379C15.4777 22.0449 15.4322 21.7845 15.341 21.5566C15.2564 21.3288 15.1034 21.1204 14.882 20.9316C14.6607 20.7428 14.3482 20.5605 13.9445 20.3848C13.5474 20.2025 13.0396 20.0169 12.4211 19.8281C11.744 19.6198 11.119 19.3887 10.5461 19.1348C9.97969 18.8743 9.4849 18.5749 9.06172 18.2363C8.63854 17.8913 8.30977 17.4974 8.07539 17.0547C7.84102 16.6055 7.72383 16.0879 7.72383 15.502C7.72383 14.9225 7.84427 14.3952 8.08516 13.9199C8.33255 13.4447 8.68086 13.0345 9.13008 12.6895C9.58581 12.3379 10.1229 12.0677 10.7414 11.8789C11.3599 11.6836 12.0435 11.5859 12.7922 11.5859C13.8469 11.5859 14.7551 11.7812 15.5168 12.1719C16.285 12.5625 16.8742 13.0866 17.2844 13.7441C17.701 14.4017 17.9094 15.1276 17.9094 15.9219H15.4777C15.4777 15.4531 15.3768 15.0397 15.175 14.6816C14.9797 14.3171 14.6802 14.0306 14.2766 13.8223C13.8794 13.6139 13.3749 13.5098 12.7629 13.5098C12.1835 13.5098 11.7017 13.5977 11.3176 13.7734C10.9335 13.9492 10.647 14.1868 10.4582 14.4863C10.2694 14.7858 10.175 15.1243 10.175 15.502C10.175 15.7689 10.2368 16.013 10.3605 16.2344C10.4842 16.4492 10.673 16.651 10.927 16.8398C11.1809 17.0221 11.4999 17.1947 11.884 17.3574C12.2681 17.5202 12.7206 17.6764 13.2414 17.8262C14.0292 18.0605 14.716 18.321 15.302 18.6074C15.8879 18.8874 16.3762 19.2064 16.7668 19.5645C17.1574 19.9225 17.4504 20.3294 17.6457 20.7852C17.841 21.2344 17.9387 21.7454 17.9387 22.3184C17.9387 22.9173 17.8182 23.4577 17.5773 23.9395C17.3365 24.4147 16.9914 24.8216 16.5422 25.1602C16.0995 25.4922 15.5656 25.7493 14.9406 25.9316C14.3221 26.1074 13.632 26.1953 12.8703 26.1953C12.1867 26.1953 11.5129 26.1042 10.8488 25.9219C10.1913 25.7396 9.59232 25.4629 9.05195 25.0918C8.51159 24.7142 8.0819 24.2454 7.76289 23.6855C7.44388 23.1191 7.28438 22.4583 7.28438 21.7031H9.73555C9.73555 22.1654 9.81367 22.5592 9.96992 22.8848C10.1327 23.2103 10.3573 23.4772 10.6438 23.6855C10.9302 23.8874 11.2622 24.0371 11.6398 24.1348C12.024 24.2324 12.4341 24.2812 12.8703 24.2812C13.4432 24.2812 13.9217 24.1999 14.3059 24.0371C14.6965 23.8743 14.9895 23.6465 15.1848 23.3535C15.3801 23.0605 15.4777 22.722 15.4777 22.3379ZM25.5887 19.5742H21.9656L21.9461 17.7871H25.1102C25.644 17.7871 26.0965 17.709 26.4676 17.5527C26.8452 17.39 27.1316 17.1589 27.327 16.8594C27.5223 16.5534 27.6199 16.1855 27.6199 15.7559C27.6199 15.2806 27.5288 14.8932 27.3465 14.5938C27.1642 14.2943 26.8842 14.0762 26.5066 13.9395C26.1355 13.8027 25.6603 13.7344 25.0809 13.7344H22.7078V26H20.2566V11.7812H25.0809C25.8621 11.7812 26.5587 11.8561 27.1707 12.0059C27.7892 12.1556 28.3133 12.39 28.743 12.709C29.1792 13.0215 29.5079 13.4186 29.7293 13.9004C29.9572 14.3822 30.0711 14.9551 30.0711 15.6191C30.0711 16.2051 29.9311 16.7422 29.6512 17.2305C29.3712 17.7122 28.9578 18.1061 28.4109 18.4121C27.8641 18.7181 27.1837 18.9004 26.3699 18.959L25.5887 19.5742ZM25.4812 26H21.1941L22.2977 24.0566H25.4812C26.0346 24.0566 26.4969 23.9655 26.868 23.7832C27.2391 23.5944 27.5158 23.3372 27.698 23.0117C27.8868 22.6797 27.9812 22.2923 27.9812 21.8496C27.9812 21.3874 27.8999 20.987 27.7371 20.6484C27.5743 20.3034 27.3172 20.0397 26.9656 19.8574C26.6141 19.6686 26.1551 19.5742 25.5887 19.5742H22.8348L22.8543 17.7871H26.4383L26.9949 18.4609C27.7762 18.487 28.4174 18.6595 28.9187 18.9785C29.4266 19.2975 29.8042 19.7109 30.0516 20.2188C30.299 20.7266 30.4227 21.2734 30.4227 21.8594C30.4227 22.7643 30.2241 23.5228 29.827 24.1348C29.4363 24.7467 28.8732 25.2122 28.1375 25.5312C27.4018 25.8438 26.5164 26 25.4812 26Z" fill="white"/>
<defs>
<linearGradient id="paint0_linear_412_3774" x1="38" y1="-2.26498e-06" x2="2.26498e-06" y2="38" gradientUnits="userSpaceOnUse">
<stop stop-color="#EB7946"/>
<stop offset="1" stop-color="#FAD87D"/>
</linearGradient>
</defs>
</svg>
