<svg width="24" height="24" viewBox="0 0 24 24" fill="none" xmlns="http://www.w3.org/2000/svg">
<mask id="mask0_748_3438" style="mask-type:alpha" maskUnits="userSpaceOnUse" x="0" y="0" width="24" height="24">
<rect width="24" height="24" fill="#D9D9D9"/>
</mask>
<g mask="url(#mask0_748_3438)">
<path d="M2 24V20H22V24H2ZM4 18V14.25L13.05 5.20002L16.8 8.95002L7.75 18H4ZM6 16H6.9L14 8.95002L13.05 8.00002L6 15.1V16ZM17.925 7.85002L14.175 4.10002L15.975 2.30002C16.1583 2.10002 16.3917 2.00419 16.675 2.01252C16.9583 2.02086 17.1917 2.11669 17.375 2.30002L19.725 4.65002C19.9083 4.83336 20 5.06252 20 5.33752C20 5.61252 19.9083 5.85002 19.725 6.05002L17.925 7.85002Z" fill="#425B71"/>
</g>
</svg>
