<svg width="86" height="90" viewBox="0 0 86 90" fill="none" xmlns="http://www.w3.org/2000/svg">
<path d="M30.5335 36.2339C30.2002 36.2006 29.8002 36.2006 29.4335 36.2339C21.5002 35.9672 15.2002 29.4672 15.2002 21.4672C15.2002 13.3006 21.8002 6.66724 30.0002 6.66724C38.1669 6.66724 44.8002 13.3006 44.8002 21.4672C44.7669 29.4672 38.4669 35.9672 30.5335 36.2339Z" fill="#2D3E4D" stroke="#2D3E4D" stroke-width="2.625" stroke-linecap="round" stroke-linejoin="round"/>
<path d="M54.699 13.3328C61.1656 13.3328 66.3656 18.5661 66.3656 24.9994C66.3656 31.2994 61.3656 36.4328 55.1323 36.6661C54.8656 36.6328 54.5656 36.6328 54.2656 36.6661" fill="#2D3E4D"/>
<path d="M54.699 13.3328C61.1656 13.3328 66.3656 18.5661 66.3656 24.9994C66.3656 31.2994 61.3656 36.4328 55.1323 36.6661C54.8656 36.6328 54.5656 36.6328 54.2656 36.6661" stroke="#2D3E4D" stroke-width="2.625" stroke-linecap="round" stroke-linejoin="round"/>
<path d="M13.8674 48.5328C5.80072 53.9328 5.80072 62.7328 13.8674 68.0994C23.034 74.2328 38.0674 74.2328 47.2341 68.0994C55.3007 62.6994 55.3007 53.8994 47.2341 48.5328C38.1007 42.4328 23.0674 42.4328 13.8674 48.5328Z" fill="#2D3E4D" stroke="#2D3E4D" stroke-width="2.625" stroke-linecap="round" stroke-linejoin="round"/>
<path d="M61.1328 66.6672C63.5328 66.1672 65.7995 65.2006 67.6661 63.7672C72.8661 59.8672 72.8661 53.4339 67.6661 49.5339C65.8328 48.1339 63.5995 47.2006 61.2328 46.6672" fill="#2D3E4D"/>
<path d="M61.1328 66.6672C63.5328 66.1672 65.7995 65.2006 67.6661 63.7672C72.8661 59.8672 72.8661 53.4339 67.6661 49.5339C65.8328 48.1339 63.5995 47.2006 61.2328 46.6672" stroke="#2D3E4D" stroke-width="2.625" stroke-linecap="round" stroke-linejoin="round"/>
<path d="M51.3138 58.0751C44.2287 65.1891 44.2287 76.8814 51.3138 83.9249C59.3842 92.025 72.6158 92.025 80.6862 83.9249C87.7713 76.8109 87.7713 65.1186 80.6862 58.0751C72.6628 49.975 59.4311 49.975 51.3138 58.0751Z" fill="#0875A6"/>
<path d="M63.1527 82.7839C62.3028 82.7839 61.4529 82.3796 60.8154 81.7444L54.1222 74.4678C52.8473 73.0817 52.8473 70.7717 54.1222 69.3857C55.3971 67.9997 57.5219 67.9997 58.7968 69.3857L63.1527 74.1213L74.2019 62.1091C75.4768 60.7231 77.6016 60.7231 78.8765 62.1091C80.1514 63.4951 80.1514 65.8051 78.8765 67.1912L65.4901 81.7444C64.8526 82.4374 64.0027 82.7839 63.1527 82.7839Z" fill="#ECECEC"/>
</svg>
