<svg width="80" height="80" viewBox="0 0 80 80" fill="none" xmlns="http://www.w3.org/2000/svg">
<path d="M30.5335 36.2339C30.2002 36.2006 29.8002 36.2006 29.4335 36.2339C21.5002 35.9672 15.2002 29.4672 15.2002 21.4672C15.2002 13.3006 21.8002 6.66724 30.0002 6.66724C38.1669 6.66724 44.8002 13.3006 44.8002 21.4672C44.7669 29.4672 38.4669 35.9672 30.5335 36.2339Z" fill="#2D3E4D" stroke="#2D3E4D" stroke-width="2.625" stroke-linecap="round" stroke-linejoin="round"/>
<path d="M54.699 13.3328C61.1656 13.3328 66.3656 18.5661 66.3656 24.9994C66.3656 31.2994 61.3656 36.4328 55.1323 36.6661C54.8656 36.6328 54.5656 36.6328 54.2656 36.6661" fill="#2D3E4D"/>
<path d="M54.699 13.3328C61.1656 13.3328 66.3656 18.5661 66.3656 24.9994C66.3656 31.2994 61.3656 36.4328 55.1323 36.6661C54.8656 36.6328 54.5656 36.6328 54.2656 36.6661" stroke="#2D3E4D" stroke-width="2.625" stroke-linecap="round" stroke-linejoin="round"/>
<path d="M13.8674 48.5328C5.80072 53.9328 5.80072 62.7328 13.8674 68.0994C23.034 74.2328 38.0674 74.2328 47.2341 68.0994C55.3007 62.6994 55.3007 53.8994 47.2341 48.5328C38.1007 42.4328 23.0674 42.4328 13.8674 48.5328Z" fill="#2D3E4D" stroke="#2D3E4D" stroke-width="2.625" stroke-linecap="round" stroke-linejoin="round"/>
<path d="M61.1328 66.6672C63.5328 66.1672 65.7995 65.2006 67.6661 63.7672C72.8661 59.8672 72.8661 53.4339 67.6661 49.5339C65.8328 48.1339 63.5995 47.2006 61.2328 46.6672" fill="#2D3E4D"/>
<path d="M61.1328 66.6672C63.5328 66.1672 65.7995 65.2006 67.6661 63.7672C72.8661 59.8672 72.8661 53.4339 67.6661 49.5339C65.8328 48.1339 63.5995 47.2006 61.2328 46.6672" stroke="#2D3E4D" stroke-width="2.625" stroke-linecap="round" stroke-linejoin="round"/>
</svg>
